<svg xmlns="http://www.w3.org/2000/svg" width="543" height="125" viewBox="0 0 543 125">
  <g fill="none" fill-rule="evenodd" transform="translate(-1 -3)">
    <text fill="#DA0474" font-family="OpenSans, Open Sans" font-size="12">
      <tspan x="73" y="127">152 min</tspan>
    </text>
    <text fill="#DA0474" font-family="OpenSans, Open Sans" font-size="12">
      <tspan x="190" y="80">40</tspan>
    </text>
    <g transform="translate(20 56)">
      <rect width="152" height="40" fill="#047A9C" rx="20"/>
      <text fill="#FFF" font-family="OpenSans-Semibold, Open Sans" font-size="16" font-weight="500">
        <tspan x="51.398" y="26.219">Add</tspan>
      </text>
    </g>
    <g stroke="#DA0474" transform="translate(19 104)">
      <path stroke-linecap="round" stroke-linejoin="round" d="M1 0L1 8M153.25 0L153.25 8"/>
      <path stroke-linecap="square" d="M2,4 L152.5,4"/>
    </g>
    <g stroke="#DA0474" transform="rotate(-90 139 -41)">
      <path stroke-linecap="round" stroke-linejoin="round" d="M1.75 0L1.75 8M42.25 0L42.25 8"/>
      <path stroke-linecap="square" d="M2.5,4 L41.5,4"/>
    </g>
    <circle cx="113" cy="71" r="4" fill="#DA0474" fill-rule="nonzero"/>
    <circle cx="113" cy="71" r="2" fill="#FFF" fill-rule="nonzero"/>
    <polyline stroke="#DA0474" stroke-linecap="round" stroke-linejoin="round" points="113 67.5 113 8.5 135 8.5"/>
    <text fill="#DA0474" font-family="OpenSans, Open Sans" font-size="12">
      <tspan x="139" y="13">Open Sans Semibold</tspan> <tspan x="139" y="29">16/20, White</tspan>
    </text>
    <g transform="translate(0 13)">
      <circle cx="37" cy="58" r="4" fill="#DA0474" fill-rule="nonzero"/>
      <circle cx="37" cy="58" r="2" fill="#FFF" fill-rule="nonzero"/>
      <path stroke="#DA0474" stroke-linecap="round" stroke-linejoin="round" d="M37,55 L37,20"/>
      <text fill="#DA0474" font-family="OpenSans, Open Sans" font-size="12">
        <tspan x="0" y="13">Pearson Blue</tspan>
      </text>
    </g>
    <g transform="translate(351 22)">
      <g transform="translate(0 34)">
        <rect width="193" height="40" fill="#047A9C" rx="20"/>
        <text fill="#FFF" font-family="OpenSans-Semibold, Open Sans" font-size="16" font-weight="500">
          <tspan x="24" y="27">Create assignment</tspan>
        </text>
      </g>
      <text fill="#DA0474" font-family="OpenSans, Open Sans" font-size="12">
        <tspan x="72.5" y="105">200 max</tspan>
      </text>
      <text fill="#DA0474" font-family="OpenSans, Open Sans" font-size="12">
        <tspan x="173" y="13">24</tspan>
      </text>
      <g stroke="#DA0474" transform="translate(0 82)">
        <path stroke-linecap="round" stroke-linejoin="round" d="M.25 0L.25 8M189.25 0L189.25 8"/>
        <path stroke-linecap="square" d="M0.5,4 L188.5,4"/>
      </g>
      <g stroke="#DA0474" transform="translate(167 18)">
        <path stroke-linecap="round" stroke-linejoin="round" d="M1 0L1 8M1 11L1 13M1 16L1 18M1 21L1 23M1 26L1 28M1 31L1 33M1 36L1 38M25.5 11L25.5 13M25.5 16L25.5 18M25.5 21L25.5 23M25.5 26L25.5 28M25.5 31L25.5 33M25.5 36L25.5 38M25.5 0L25.5 8"/>
        <path stroke-linecap="square" d="M2,4 L25.5,4"/>
      </g>
    </g>
  </g>
</svg>
