<svg xmlns="http://www.w3.org/2000/svg" width="72" height="71" viewBox="0 0 72 71">
  <g fill="none" fill-rule="evenodd" transform="translate(-11 -12)">
    <rect width="96" height="96"/>
    <g transform="translate(12.5 13)">
      <path fill="#E9E9E9" d="M44.5512821 10.6923077C44.5512821 15.6131063 40.5624086 19.6025641 35.6410256 19.6025641 30.720227 19.6025641 26.7307692 15.6131063 26.7307692 10.6923077 26.7307692 5.77150904 30.720227 1.78205128 35.6410256 1.78205128 40.5624086 1.78205128 44.5512821 5.77150904 44.5512821 10.6923077M19.6025641 10.6923077C19.6025641 15.6131063 15.6136906 19.6025641 10.6923077 19.6025641 5.77150904 19.6025641 1.78205128 15.6131063 1.78205128 10.6923077 1.78205128 5.77150904 5.77150904 1.78205128 10.6923077 1.78205128 15.6136906 1.78205128 19.6025641 5.77150904 19.6025641 10.6923077M70.3910256 10.6923077C70.3910256 15.6131063 66.4021522 19.6025641 61.4807692 19.6025641 56.5599706 19.6025641 52.5705128 15.6131063 52.5705128 10.6923077 52.5705128 5.77150904 56.5599706 1.78205128 61.4807692 1.78205128 66.4021522 1.78205128 70.3910256 5.77150904 70.3910256 10.6923077M19.6025641 35.6410256C19.6025641 40.5618243 15.6136906 44.5512821 10.6923077 44.5512821 5.77150904 44.5512821 1.78205128 40.5618243 1.78205128 35.6410256 1.78205128 30.720227 5.77150904 26.7307692 10.6923077 26.7307692 15.6136906 26.7307692 19.6025641 30.720227 19.6025641 35.6410256M70.3910256 35.6410256C70.3910256 40.5618243 66.4021522 44.5512821 61.4807692 44.5512821 56.5599706 44.5512821 52.5705128 40.5618243 52.5705128 35.6410256 52.5705128 30.720227 56.5599706 26.7307692 61.4807692 26.7307692 66.4021522 26.7307692 70.3910256 30.720227 70.3910256 35.6410256M44.5512821 60.5897436C44.5512821 65.5105422 40.5624086 69.5 35.6410256 69.5 30.720227 69.5 26.7307692 65.5105422 26.7307692 60.5897436 26.7307692 55.6689449 30.720227 51.6794872 35.6410256 51.6794872 40.5624086 51.6794872 44.5512821 55.6689449 44.5512821 60.5897436M19.6025641 60.5897436C19.6025641 65.5105422 15.6136906 69.5 10.6923077 69.5 5.77150904 69.5 1.78205128 65.5105422 1.78205128 60.5897436 1.78205128 55.6689449 5.77150904 51.6794872 10.6923077 51.6794872 15.6136906 51.6794872 19.6025641 55.6689449 19.6025641 60.5897436M70.3910256 60.5897436C70.3910256 65.5105422 66.4021522 69.5 61.4807692 69.5 56.5599706 69.5 52.5705128 65.5105422 52.5705128 60.5897436 52.5705128 55.6689449 56.5599706 51.6794872 61.4807692 51.6794872 66.4021522 51.6794872 70.3910256 55.6689449 70.3910256 60.5897436"/>
      <path fill="#EDC0F2" d="M29.107947,26.7307692 L42.1741043,26.7307692 C43.4869007,26.7307692 44.5512821,27.7419315 44.5512821,28.9890881 L44.5512821,41.4019376 C44.5512821,42.6490941 43.4869007,43.6602564 42.1741043,43.6602564 L29.107947,43.6602564 C27.7951506,43.6602564 26.7307692,42.6490941 26.7307692,41.4019376 L26.7307692,28.9890881 C26.7307692,27.7419315 27.7951506,26.7307692 29.107947,26.7307692"/>
      <path stroke="#6A7070" stroke-linecap="round" stroke-linejoin="round" stroke-width="1.5" d="M5.06569987.869991593C6.22958386.312005044 7.53369483 0 8.91025641 0 13.8316393 0 17.8205128 3.98945776 17.8205128 8.91025641 17.8205128 13.8310551 13.8316393 17.8205128 8.91025641 17.8205128 3.98945776 17.8205128 0 13.8310551 0 8.91025641 0 8.02448928.129709962 7.16910467.369848676 6.36163094M30.9054435.869991593C32.0693274.312005044 33.3734384 0 34.75 0 39.6713829 0 43.6602564 3.98945776 43.6602564 8.91025641 43.6602564 13.8310551 39.6713829 17.8205128 34.75 17.8205128 29.8292013 17.8205128 25.8397436 13.8310551 25.8397436 8.91025641 25.8397436 8.02448928 25.9694536 7.16910467 26.2095923 6.36163094M55.8541614.869991593C57.0180454.312005044 58.3221564 0 59.6987179 0 64.6201009 0 68.6089744 3.98945776 68.6089744 8.91025641 68.6089744 13.8310551 64.6201009 17.8205128 59.6987179 17.8205128 54.7779193 17.8205128 50.7884615 13.8310551 50.7884615 8.91025641 50.7884615 8.02448928 50.9181715 7.16910467 51.1583102 6.36163094M5.06569987 50.7674275C6.22958386 50.2094409 7.53369483 49.8974359 8.91025641 49.8974359 13.8316393 49.8974359 17.8205128 53.8868937 17.8205128 58.8076923 17.8205128 63.728491 13.8316393 67.7179487 8.91025641 67.7179487 3.98945776 67.7179487 0 63.728491 0 58.8076923 0 57.9219252.129709962 57.0665406.369848676 56.2590668M30.9054435 50.7674275C32.0693274 50.2094409 33.3734384 49.8974359 34.75 49.8974359 39.6713829 49.8974359 43.6602564 53.8868937 43.6602564 58.8076923 43.6602564 63.728491 39.6713829 67.7179487 34.75 67.7179487 29.8292013 67.7179487 25.8397436 63.728491 25.8397436 58.8076923 25.8397436 57.9219252 25.9694536 57.0665406 26.2095923 56.2590668M55.8541614 50.7674275C57.0180454 50.2094409 58.3221564 49.8974359 59.6987179 49.8974359 64.6201009 49.8974359 68.6089744 53.8868937 68.6089744 58.8076923 68.6089744 63.728491 64.6201009 67.7179487 59.6987179 67.7179487 54.7779193 67.7179487 50.7884615 63.728491 50.7884615 58.8076923 50.7884615 57.9219252 50.9181715 57.0665406 51.1583102 56.2590668M5.06569987 25.8187095C6.22958386 25.260723 7.53369483 24.9487179 8.91025641 24.9487179 13.8316393 24.9487179 17.8205128 28.9381757 17.8205128 33.8589744 17.8205128 38.779773 13.8316393 42.7692308 8.91025641 42.7692308 3.98945776 42.7692308 0 38.779773 0 33.8589744 0 32.9732072.129709962 32.1178226.369848676 31.3103489M55.8541614 25.8187095C57.0180454 25.260723 58.3221564 24.9487179 59.6987179 24.9487179 64.6201009 24.9487179 68.6089744 28.9381757 68.6089744 33.8589744 68.6089744 38.779773 64.6201009 42.7692308 59.6987179 42.7692308 54.7779193 42.7692308 50.7884615 38.779773 50.7884615 33.8589744 50.7884615 32.9732072 50.9181715 32.1178226 51.1583102 31.3103489M33.1156903 24.9487179L41.2830787 24.9487179C42.5958751 24.9487179 43.6602564 25.9598802 43.6602564 27.2070368L43.6602564 39.6198863C43.6602564 40.8670429 42.5958751 41.8782051 41.2830787 41.8782051L28.2169213 41.8782051C26.9041249 41.8782051 25.8397436 40.8670429 25.8397436 39.6198863L25.8397436 33.4134615"/>
    </g>
  </g>
</svg>
