<svg xmlns="http://www.w3.org/2000/svg" xmlns:xlink="http://www.w3.org/1999/xlink" width="699" height="268" viewBox="0 0 699 268">
  <defs>
    <rect id="colordodont-b" width="691" height="260" rx="4"/>
    <filter id="colordodont-a" width="102%" height="105.4%" x="-1%" y="-1.9%" filterUnits="objectBoundingBox">
      <feOffset dy="2" in="SourceAlpha" result="shadowOffsetOuter1"/>
      <feGaussianBlur in="shadowOffsetOuter1" result="shadowBlurOuter1" stdDeviation="2"/>
      <feColorMatrix in="shadowBlurOuter1" values="0 0 0 0 0   0 0 0 0 0   0 0 0 0 0  0 0 0 0.2 0"/>
    </filter>
    <polygon id="colordodont-c" points=".521 .194 53.637 .194 53.637 38.072 .521 38.072"/>
  </defs>
  <g fill="none" fill-rule="evenodd" transform="translate(4 2)">
    <use fill="#000" filter="url(#colordodont-a)" xlink:href="#colordodont-b"/>
    <use fill="#FFF" xlink:href="#colordodont-b"/>
    <g transform="translate(32 164)">
      <path fill="#76D5D4" d="M53.3838769,2.28429841 L4.15372308,2.52746566 C3.13464615,2.53176407 2.31187692,3.36135739 2.31741538,4.37823862 L2.31738759,17.4583033 L55.2398769,17.4583033 L55.2398769,4.11664961 C55.2343385,3.09976838 54.4035692,2.27877188 53.3838769,2.28429841"/>
      <g transform="translate(1.846 17.264)">
        <mask id="colordodont-d" fill="#fff">
          <use xlink:href="#colordodont-c"/>
        </mask>
        <path fill="#FFF" d="M53.3934769,0.194410988 L53.6371692,35.9768403 C53.6414769,36.9949496 52.8193231,37.8233148 51.7996308,37.8288414 L2.56947692,38.0720086 C1.5504,38.076307 0.719015385,37.2559246 0.714092308,36.2384293 L0.521476923,0.194410988 L53.3934769,0.194410988 Z" mask="url(#colordodont-d)"/>
      </g>
      <path stroke="#6A7070" stroke-linecap="round" stroke-width="1.5" d="M51.7907077,53.2595228 L2.56055385,53.50269 C1.54086154,53.5076025 0.710092308,52.68722 0.704553846,51.6697248 L0.461476923,2.5456418 C0.456553846,1.52814651 1.27870769,0.69916725 2.2984,0.693640722 L51.5193231,0.46091247 C52.5427077,0.455385941 53.3747077,1.28190897 53.3747077,2.30308861 L53.3747077,11.6717824"/>
      <path stroke="#E9E9E9" stroke-linecap="round" stroke-linejoin="round" stroke-width="1.5" d="M8.00283077 21.2961088L14.2336 21.2961088C14.5732923 21.2961088 14.8489846 21.5712071 14.8489846 21.9101675L14.8489846 28.127512M29.9898051 21.2961088L36.2205744 21.2961088C36.5602667 21.2961088 36.835959 21.5712071 36.835959 21.9101675L36.835959 28.127512M8.00283077 31.7608974L14.2336 31.7608974C14.5732923 31.7608974 14.8489846 32.0359957 14.8489846 32.3749561L14.8489846 38.5923006M30.3105231 31.7608974L36.5412923 31.7608974C36.8809846 31.7608974 37.1566769 32.0359957 37.1566769 32.3749561L37.1566769 38.5923006M41.4769846 31.7608974L47.7077538 31.7608974C48.0474462 31.7608974 48.3231385 32.0359957 48.3231385 32.3749561L48.3231385 38.5923006M19.2486154 21.1941751L25.4793846 21.1941751C25.8196923 21.1941751 26.0947692 21.4686593 26.0947692 21.8082338L26.0947692 28.0255782M8.00283077 42.225686L14.2336 42.225686C14.5732923 42.225686 14.8489846 42.5001702 14.8489846 42.8397447L14.8489846 49.0570891M30.3105231 42.225686L36.5412923 42.225686C36.8809846 42.225686 37.1566769 42.5001702 37.1566769 42.8397447L37.1566769 49.0570891M41.4769846 42.225686L47.7077538 42.225686C48.0474462 42.225686 48.3231385 42.5001702 48.3231385 42.8397447L48.3231385 49.0570891M19.2486154 42.225686L25.4793846 42.225686C25.8196923 42.225686 26.0947692 42.5001702 26.0947692 42.8397447L26.0947692 49.0570891"/>
      <path fill="#FFF" d="M19.8652308,10.1027396 C19.8652308,11.4205096 18.7944615,12.4895858 17.4726154,12.4895858 C16.152,12.4895858 15.0812308,11.4205096 15.0812308,10.1027396 C15.0812308,8.78435551 16.152,7.71527929 17.4726154,7.71527929 C18.7944615,7.71527929 19.8652308,8.78435551 19.8652308,10.1027396"/>
      <path stroke="#707070" stroke-linecap="round" stroke-width="1.5" d="M16.6224,7.71546351 C17.9430154,7.71546351 19.0144,8.78392567 19.0144,10.1029238 C19.0144,11.4206938 17.9430154,12.4891559 16.6224,12.4891559 C15.3017846,12.4891559 14.2297846,11.4206938 14.2297846,10.1029238"/>
      <path fill="#FFF" d="M40.1729231,10.1027396 C40.1729231,11.4205096 39.1021538,12.4895858 37.7803077,12.4895858 C36.4596923,12.4895858 35.3889231,11.4205096 35.3889231,10.1027396 C35.3889231,8.78435551 36.4596923,7.71527929 37.7803077,7.71527929 C39.1021538,7.71527929 40.1729231,8.78435551 40.1729231,10.1027396"/>
      <path stroke="#707070" stroke-linecap="round" stroke-width="1.5" d="M36.9300923,7.71546351 C38.2507077,7.71546351 39.3220923,8.78392567 39.3220923,10.1029238 C39.3220923,11.4206938 38.2507077,12.4891559 36.9300923,12.4891559 C35.6094769,12.4891559 34.5374769,11.4206938 34.5374769,10.1029238"/>
      <g transform="translate(40.564 21.062)">
        <path fill="#6A7070" d="M7.42810256,6.45656127 L7.42810256,0.853275518 C7.42810256,0.514315109 7.15302564,0.239216806 6.81271795,0.239216806 L1.19733333,0.239216806 C0.857641026,0.239216806 0.581948718,0.514315109 0.581948718,0.853275518 L0.581948718,6.45656127 C0.581948718,6.79613574 0.857641026,7.07061998 1.19733333,7.07061998 L6.81271795,7.07061998 C7.15302564,7.07061998 7.42810256,6.79613574 7.42810256,6.45656127"/>
        <path stroke="#6A7070" stroke-linecap="round" stroke-linejoin="round" stroke-width="1.5" d="M7.42810256,6.45656127 L7.42810256,0.853275518 C7.42810256,0.514315109 7.15302564,0.239216806 6.81271795,0.239216806 L1.19733333,0.239216806 C0.857641026,0.239216806 0.581948718,0.514315109 0.581948718,0.853275518 L0.581948718,6.45656127 C0.581948718,6.79613574 0.857641026,7.07061998 1.19733333,7.07061998 L6.81271795,7.07061998 C7.15302564,7.07061998 7.42810256,6.79613574 7.42810256,6.45656127 Z"/>
        <path stroke="#FFF" stroke-linecap="round" stroke-width="1.5" d="M2.21128337,4.00842178 L3.31930165,5.11028871 C3.4367846,5.22711943 3.62673335,5.2265907 3.74356407,5.10910775 C3.75720467,5.095391 3.76948657,5.08038706 3.78023822,5.06430548 L5.80102696,2.04174959"/>
      </g>
      <g transform="translate(18.667 31.522)">
        <path fill="#6A7070" d="M7.42810256,6.45656127 L7.42810256,0.853275518 C7.42810256,0.514315109 7.15302564,0.239216806 6.81271795,0.239216806 L1.19733333,0.239216806 C0.857641026,0.239216806 0.581948718,0.514315109 0.581948718,0.853275518 L0.581948718,6.45656127 C0.581948718,6.79613574 0.857641026,7.07061998 1.19733333,7.07061998 L6.81271795,7.07061998 C7.15302564,7.07061998 7.42810256,6.79613574 7.42810256,6.45656127"/>
        <path stroke="#6A7070" stroke-linecap="round" stroke-linejoin="round" stroke-width="1.5" d="M7.42810256,6.45656127 L7.42810256,0.853275518 C7.42810256,0.514315109 7.15302564,0.239216806 6.81271795,0.239216806 L1.19733333,0.239216806 C0.857641026,0.239216806 0.581948718,0.514315109 0.581948718,0.853275518 L0.581948718,6.45656127 C0.581948718,6.79613574 0.857641026,7.07061998 1.19733333,7.07061998 L6.81271795,7.07061998 C7.15302564,7.07061998 7.42810256,6.79613574 7.42810256,6.45656127 Z"/>
        <path stroke="#FFF" stroke-linecap="round" stroke-width="1.5" d="M2.21128337,4.00842178 L3.31930165,5.11028871 C3.4367846,5.22711943 3.62673335,5.2265907 3.74356407,5.10910775 C3.75720467,5.095391 3.76948657,5.08038706 3.78023822,5.06430548 L5.80102696,2.04174959"/>
      </g>
    </g>
    <circle cx="390" cy="38" r="14" fill="#DB0020" opacity=".2" transform="rotate(90 390 38)"/>
    <circle cx="390" cy="38" r="10" fill="#C94543" transform="rotate(90 390 38)"/>
    <path fill="#FFF" stroke="#FFF" stroke-linecap="round" stroke-linejoin="round" stroke-width=".5" d="M390.939564,37.9999167 L393.805504,35.133857 C394.064832,34.8745182 394.064832,34.4538428 393.805504,34.1945041 C393.546176,33.9351653 393.125518,33.9351653 392.86619,34.1945041 L390.00025,37.0605638 L387.13431,34.1945041 C386.874982,33.9351653 386.454324,33.9351653 386.194996,34.1945041 C385.935001,34.4538428 385.935001,34.8745182 386.194996,35.133857 L389.060936,37.9999167 L386.194996,40.8659764 C385.935001,41.1253151 385.935001,41.5459905 386.194996,41.8053293 C386.324327,41.935332 386.494323,42 386.664319,42 C386.834316,42 387.004312,41.935332 387.13431,41.8053293 L390.00025,38.9392696 L392.86619,41.8053293 C392.995521,41.935332 393.165517,42 393.335514,42 C393.50551,42 393.675507,41.935332 393.805504,41.8053293 C394.064832,41.5459905 394.064832,41.1253151 393.805504,40.8659764 L390.939564,37.9999167 Z"/>
    <path stroke="#E9E9E9" stroke-linecap="square" d="M345.5.5L345.5 259.5M32.5 69L311.5 69M376 68.25L659 68.25"/>
    <text fill="#6A7070" font-family="OpenSans, Open Sans" font-size="14">
      <tspan x="32" y="99">Use spot illustrations to guide the user to </tspan> <tspan x="32" y="119">take an action.</tspan>
    </text>
    <text fill="#252525" font-family="OpenSans, Open Sans" font-size="14">
      <tspan x="68" y="43">Do</tspan>
    </text>
    <text fill="#252525" font-family="OpenSans, Open Sans" font-size="14">
      <tspan x="412" y="43">Don’t</tspan>
    </text>
    <g transform="translate(32 24)">
      <rect width="24" height="24" x="2" y="2" transform="rotate(90 14 14)"/>
      <circle cx="14" cy="14" r="14" fill="#038238" opacity=".2" transform="rotate(90 14 14)"/>
      <circle cx="14" cy="14" r="10" fill="#038238" transform="rotate(90 14 14)"/>
      <path fill="#FFF" d="M18.2794817,16.7695408 L17.3207926,17.7087458 L15.2758562,19.6980554 C15.070032,19.8996965 14.8008772,20 14.5317225,20 C14.2625677,20 13.993413,19.8996965 13.7886443,19.6980554 C13.3769958,19.2958072 13.3769958,18.6433172 13.7886443,18.241069 L15.8335807,16.2517595 L9.80873633,10.7586724 C9.39708789,10.3564243 9.39708789,9.7039343 9.80873633,9.30168613 C10.2193293,8.89943796 10.8853553,8.89943796 11.2959483,9.30168613 L17.3207926,14.7947732 L18.2794817,15.7339783 C18.5756277,16.0241054 18.5713768,16.4835781 18.2794817,16.7695408 Z" transform="rotate(90 14 14.5)"/>
    </g>
    <text fill="#6A7070" font-family="OpenSans, Open Sans" font-size="14">
      <tspan x="376" y="99">Enlarge an icon to be used as a graphic </tspan> <tspan x="376" y="119">element.</tspan>
    </text>
    <g fill="#252525" transform="translate(104 164)">
      <text font-family="OpenSans-Semibold, Open Sans" font-size="14" font-weight="500">
        <tspan x="0" y="15">Course information</tspan>
      </text>
      <text font-family="OpenSans, Open Sans" font-size="12">
        <tspan x="0" y="35">Select the days and times for your </tspan> <tspan x="0" y="51">course.</tspan>
      </text>
    </g>
    <g transform="translate(378 164)">
      <rect width="58" height="58"/>
      <path fill="#6A7070" fill-rule="nonzero" d="M21.1209335,4.6 L35.8790665,4.6 C36.4139362,2.52972734 38.3003752,1 40.5454545,1 C42.7905339,1 44.6769728,2.52972734 45.2118426,4.6 L48.9772727,4.6 C52.3035332,4.6 55,7.2862915 55,10.6 L55,49 C55,52.3137085 52.3035332,55 48.9772727,55 L8.02272727,55 C4.69646685,55 2,52.3137085 2,49 L2,10.6 C2,7.2862915 4.69646685,4.6 8.02272727,4.6 L11.7881574,4.6 C12.3230272,2.52972734 14.2094661,1 16.4545455,1 C18.6996248,1 20.5860638,2.52972734 21.1209335,4.6 Z M50.1818182,16.6 L50.1818182,10.6 C50.1818182,9.9372583 49.6425248,9.4 48.9772727,9.4 L8.02272727,9.4 C7.35747519,9.4 6.81818182,9.9372583 6.81818182,10.6 L6.81818182,16.6 L50.1818182,16.6 Z M50.1818182,21.4 L6.81818182,21.4 L6.81818182,49 C6.81818182,49.6627417 7.35747519,50.2 8.02272727,50.2 L48.9772727,50.2 C49.6425248,50.2 50.1818182,49.6627417 50.1818182,49 L50.1818182,21.4 Z"/>
      <path fill="#6A7070" d="M40.1666667 39L44.8333333 39C45.4776655 39 46 39.5223345 46 40.1666667L46 44.8333333C46 45.4776655 45.4776655 46 44.8333333 46L40.1666667 46C39.5223345 46 39 45.4776655 39 44.8333333L39 40.1666667C39 39.5223345 39.5223345 39 40.1666667 39zM40.1666667 27L44.8333333 27C45.4776655 27 46 27.5223345 46 28.1666667L46 32.8333333C46 33.4776655 45.4776655 34 44.8333333 34L40.1666667 34C39.5223345 34 39 33.4776655 39 32.8333333L39 28.1666667C39 27.5223345 39.5223345 27 40.1666667 27zM28.1666667 27L32.8333333 27C33.4776655 27 34 27.5223345 34 28.1666667L34 32.8333333C34 33.4776655 33.4776655 34 32.8333333 34L28.1666667 34C27.5223345 34 27 33.4776655 27 32.8333333L27 28.1666667C27 27.5223345 27.5223345 27 28.1666667 27zM28.1666667 39L32.8333333 39C33.4776655 39 34 39.5223345 34 40.1666667L34 44.8333333C34 45.4776655 33.4776655 46 32.8333333 46L28.1666667 46C27.5223345 46 27 45.4776655 27 44.8333333L27 40.1666667C27 39.5223345 27.5223345 39 28.1666667 39zM15.1666667 39L19.8333333 39C20.4776655 39 21 39.5223345 21 40.1666667L21 44.8333333C21 45.4776655 20.4776655 46 19.8333333 46L15.1666667 46C14.5223345 46 14 45.4776655 14 44.8333333L14 40.1666667C14 39.5223345 14.5223345 39 15.1666667 39z"/>
    </g>
    <g fill="#252525" transform="translate(450 166)">
      <text font-family="OpenSans-Semibold, Open Sans" font-size="14" font-weight="500">
        <tspan x="0" y="15">Course information</tspan>
      </text>
      <text font-family="OpenSans, Open Sans" font-size="12">
        <tspan x="0" y="35">Select the days and times for your </tspan> <tspan x="0" y="51">course.</tspan>
      </text>
    </g>
  </g>
</svg>
