<svg xmlns="http://www.w3.org/2000/svg" width="73" height="51" viewBox="0 0 73 51">
  <g fill="none" fill-rule="evenodd" transform="translate(-11 -22)">
    <rect width="96" height="96" rx="4"/>
    <g transform="translate(12 23)">
      <path fill="#ABDC3B" d="M29.9186559,21.853623 C31.2068396,19.7428254 33.5055812,18.3372407 36.1274264,18.3372407 C40.1606682,18.3372407 43.4303069,21.6631994 43.4303069,25.7653764 C43.4303069,27.3043652 42.9707701,28.7330804 42.1828416,29.9186559 L29.9186559,21.853623 Z"/>
      <path fill="#E9E9E9" d="M26.1305886 30.8837738L18.3372407 41.9554942C19.2038996 42.4825166 20.0656218 42.9797878 20.9196648 43.4303069L27.98842 33.3881927C27.269861 32.6311293 26.6385165 31.7965001 26.1305886 30.8837738M35.4341057 37.8718051C34.9834179 37.8718051 34.5408051 37.8378505 34.1037439 37.784728L27.98842 47.5176573C28.9947711 47.8210583 29.9895143 48.0691461 30.9691168 48.2558966L37.6395993 37.6395993C36.9244541 37.7869186 36.1891214 37.8718051 35.4341057 37.8718051M29.307878 35.7093635L23.1628303 45.161896C24.0626988 45.5971121 24.9544603 45.9839709 25.8365949 46.3256607L31.8488917 37.0777169C30.9454765 36.7248677 30.0912095 36.2710526 29.307878 35.7093635M50.1861324 44.3954248C52.6158455 43.2841917 54.8729702 41.9384166 56.9419579 40.4831197L54.146855 38.6047172 50.1861324 44.3954248zM41.500071 47.2907786C42.9669611 47.0605339 44.3917421 46.732719 45.774947 46.3269513L52.1163683 37.3184956 49.6527178 35.7093635 41.500071 47.2907786z"/>
      <path fill="#ABDC3B" d="M70.5478489,23.5438459 C46.6380476,-5.2801609 26.0610866,1.52603692 13.511651,11.4364074 L14.6459129,12.2121858 L14.9105566,11.8182069 L17.1910858,13.3962408 L16.9353158,13.7780402 L19.4496919,15.4979913 L19.6971103,15.1294303 L21.9781615,16.7069347 L21.7385728,17.0638457 L24.1934433,18.743022 L24.6825382,18.0154319 L26.2004551,19.0649833 C28.3698027,15.6663855 32.1332762,13.4115975 36.4218613,13.4115975 C43.1480914,13.4115975 48.6001692,18.9431887 48.6001692,25.7663319 C48.6001692,28.7259397 47.5572538,31.4271313 45.8451605,33.5521816 L47.6585179,34.7928975 L48.065662,34.1886906 L50.3461913,35.7661949 L49.9479208,36.3587519 L52.3605109,38.0088035 L53.075101,36.945484 L55.3561523,38.5229883 L54.6493918,39.5746579 L57.4649502,41.500071 C63.8367561,36.9375409 68.4239136,31.3069253 70.7049648,28.1678029 C71.7149955,26.7777563 71.6445282,24.8650521 70.5478489,23.5438459"/>
      <path fill="#E9E9E9" d="M1.69285491 22.3302526C.66273732 23.6909987.735288326 25.5642337 1.8528939 26.85793 2.18737538 27.2451553 2.52025646 27.6136691 2.85313755 27.98842L14.476769 11.3777537 13.3175533 10.6162972C7.79300753 14.8056073 3.78883214 19.5604222 1.69285491 22.3302526M4.82558966 30.5941661C5.55252313 31.3639047 6.27575315 32.1047136 6.99633786 32.8140097L19.3023586 15.1895779 16.753859 13.511651 4.82558966 30.5941661zM34.7442455 47.2085065C35.9069774 47.2933833 37.0502279 47.3126966 38.1709209 47.2659381L47.2907786 34.0048262 45.509256 32.8140097C44.8110017 33.6622695 44.0102137 34.424636 43.1033034 35.0543508M8.68606138 34.6686658C9.45823701 35.3677969 10.2266195 36.0402397 10.9901251 36.6744814L24.1279483 18.0658714 21.5794978 16.4070048 8.68606138 34.6686658zM23.852041 25.5969598C23.852041 24.7634033 23.936346 23.9489319 24.096781 23.1628303L13.511651 38.8353437C14.2678412 39.4352362 15.019433 40.0031482 15.7659153 40.5349531L24.1279483 28.1538532C23.9506523 27.3290656 23.852041 26.4748764 23.852041 25.5969598"/>
      <path fill="#ABDC3B" d="M68.2039867,47.8855686 L67.8982969,48.353403 C67.3135218,49.2457245 66.1257136,49.4899499 65.2446386,48.8973596 L2.78690054,6.92019136 C1.90582546,6.32812975 1.66482091,5.12339009 2.24959602,4.23106866 L2.55528577,3.76323426 C3.13953923,2.87038421 4.32839069,2.62668742 5.20894412,3.21874903 L67.6672038,45.1964459 C68.5477572,45.7885076 68.7887618,46.9927186 68.2039867,47.8855686"/>
      <path stroke="#6A7070" stroke-linecap="round" stroke-linejoin="round" stroke-width="1.5" d="M45.3330268 43.3682196C48.8273822 42.3842677 51.9643005 40.9460632 54.7479931 39.2768029L64.8699373 45.9585595C65.8875012 46.6307695 67.25987 46.3536073 67.9352629 45.3413628 68.6101294 44.3280705 68.3321812 42.9621691 67.3146174 42.2899592L58.695067 36.6005374C64.2808768 32.3493202 67.9973801 27.4678079 69.8566846 24.672609 70.7426442 23.3412874 70.6331495 21.6028676 69.5897912 20.3826205 46.38007-6.77036615 26.5757398-1.88204266 13.9875324 7.08879066L4.75207429.992794536C3.73451042.320584564 2.36214156.597222806 1.68727509 1.61051516 1.01240863 2.62275964 1.28983033 3.9891849 2.30792062 4.66087093L10.3347255 9.95891243C5.65803778 13.9822175 2.33897922 18.2198124.670237639 20.5607587-.139391555 21.6966521-.222565426 23.1678646.459144462 24.3802526 1.64147682 26.483332 4.40832406 29.7925122 8.24485044 33.1912855M18.3372407 11.5814152L52.1163683 33.7791276"/>
      <path stroke="#6A7070" stroke-linecap="round" stroke-linejoin="round" stroke-width="1.5" d="M26.0581841,15.9874854 C26.8487019,15.0238085 27.7769027,14.1862955 28.811331,13.5071583 C30.670311,12.2868589 32.8722097,11.5814152 35.2324182,11.5814152 C41.8917437,11.5814152 47.2907786,17.2024162 47.2907786,24.1355209 C47.2907786,26.2212505 46.8825687,27.9912342 46.0183105,29.7215576"/>
      <path stroke="#6A7070" stroke-linecap="round" stroke-linejoin="round" stroke-width="1.5" d="M35.7093635,16.4070048 C36.399544,16.4070048 37.0654805,16.5084103 37.6932456,16.6960862 C40.4560311,17.5254923 42.465189,20.0404493 42.465189,23.0145059 C42.465189,24.1118041 42.1912832,25.1470482 41.7074347,26.0581841"/>
    </g>
  </g>
</svg>
