<svg xmlns="http://www.w3.org/2000/svg" width="65" height="77" viewBox="0 0 65 77">
  <g fill="none" fill-rule="evenodd" transform="translate(-15 -9)">
    <rect width="96" height="96" rx="4"/>
    <g transform="translate(16 9.5)">
      <polygon fill="#FFF" points="48.035 31.923 34.448 18.68 13.343 39.252 35.154 44.477"/>
      <path fill="#76D5D4" d="M8.29096435,45.6658462 L5.86908762,57.9268838 C5.75824069,58.7709338 6.48196808,59.4913088 7.33652065,59.3861213 L19.7894009,57.0535088 C21.2439447,56.8750088 22.5960196,56.2222088 23.6323096,55.1964713 L34.1666355,44.7758962 L12.5682384,39.5241712 L10.1624731,41.9039587 C9.13649448,42.9188587 8.47785744,44.2423087 8.29096435,45.6658462"/>
      <path fill="#E9E9E9" d="M54.5516453,30.6024225 L52.5576893,28.6299975 C53.1911925,28.00461 53.7293157,27.4722975 54.6096466,26.6014725 L59.9754118,21.29301 C64.2120849,17.102085 64.2120849,10.24386 59.9754118,6.052935 C55.7387387,1.86201 48.8050049,1.86201 44.5683318,6.052935 L39.2025666,11.36076 L37.1512538,13.3899225 L35.1572978,11.4174975 C33.3921247,9.671385 30.5036597,9.671385 28.7371978,11.4174975 L28.7339755,11.4213225 C26.9688024,13.167435 26.9688024,16.0253475 28.7339755,17.77146 L48.128323,36.9570225 C49.8941405,38.703135 52.78325,38.703135 54.548423,36.9570225 L54.5522898,36.9531975 C56.3174628,35.207085 56.3174628,32.3491725 54.5516453,30.6024225"/>
      <path fill="#76D5D4" d="M5.05107588,63.4840988 C5.05107588,63.4840988 -2.32540122,76.4999363 5.05107588,76.4999363 C12.4269085,76.4999363 5.05107588,63.4840988 5.05107588,63.4840988"/>
      <path stroke="#6A7070" stroke-linecap="round" stroke-linejoin="round" stroke-width="1.5" d="M14.7399361 34.6048387L10.1623442 39.3535762C9.13636559 40.3691137 8.47772855 41.6919262 8.29083545 43.1167387L5.86895873 55.3771387C5.75811179 56.2205512 6.48248365 56.9409262 7.33639175 56.8363762L19.789272 54.5037637C21.2438158 54.3252637 22.5958907 53.6711887 23.6321807 52.6467262L34.1671511 42.2255137 45.0997526 31.4109637 48.1287097 34.4065762C49.8945272 36.1533262 52.7829922 36.1533262 54.5488097 34.4065762L54.552032 34.4033887C56.3178495 32.6566387 56.3178495 29.7993637 54.5513875 28.0532512L52.558076 26.0808262 54.6093888 24.0510262 59.975154 18.7432012C64.2124716 14.5522762 64.2124716 7.69405125 59.975154 3.50312625 57.7053696 1.25721375 54.6609456.21553875 51.6732339.37618875 49.0831534.51452625 46.5356072 1.55747625 44.5687185 3.50312625L39.2023088 8.81095125C38.6119844 9.39490125 37.8927682 10.1069887 37.150996 10.8401137L35.1576845 8.86768875C33.391867 7.12157625 30.5027575 7.12157625 28.7382289 8.86768875L28.7343621 8.87151375C26.9685446 10.6176262 26.9685446 13.4749012 28.7343621 15.2216512L31.6460277 18.1018762 28.49269 21.2218012 26.8280526 22.8684637 24.3037069 25.3655512M3.76215799 62.2090987C3.76215799 62.2090987 2.89407179 63.7403737 2.05176395 65.7529613 1.60064269 66.8296988 1.15661047 68.0441363.856937061 69.2356238.0842307843 72.3077363.269834961 75.2249363 3.76215799 75.2249363 11.1379906 75.2249363 3.76215799 62.2090987 3.76215799 62.2090987z"/>
    </g>
  </g>
</svg>
