<svg xmlns="http://www.w3.org/2000/svg" width="593" height="179" viewBox="0 0 593 179">
  <g fill="none" fill-rule="evenodd" transform="translate(0 -3)">
    <g transform="translate(360 64)">
      <rect width="152" height="40" fill="#6A7070" rx="20"/>
      <text fill="#FFF" font-family="OpenSans-Semibold, Open Sans" font-size="16" font-weight="500">
        <tspan x="48.727" y="26.219">Save</tspan>
      </text>
    </g>
    <g transform="translate(0 63)">
      <rect width="151" height="39" x="32.5" y="1.5" stroke="#6A7070" rx="19.5"/>
      <text fill="#DA0474" font-family="OpenSans, Open Sans" font-size="12">
        <tspan x="0" y="25">40</tspan>
      </text>
      <g stroke="#DA0474" transform="rotate(-90 29.5 13.5)">
        <path stroke-linecap="round" stroke-linejoin="round" d="M1.75 0L1.75 8M42.25 0L42.25 8"/>
        <path stroke-linecap="square" d="M2.5,4 L41.5,4"/>
      </g>
      <text fill="#6A7070" font-family="OpenSans-Semibold, Open Sans" font-size="16" font-weight="500">
        <tspan x="73.566" y="27.219">Cancel</tspan>
      </text>
    </g>
    <g transform="translate(196 64)">
      <rect width="151" height="39" x=".5" y=".5" stroke="#6A7070" rx="19.5"/>
      <text fill="#6A7070" font-family="OpenSans-Semibold, Open Sans" font-size="16" font-weight="500">
        <tspan x="38.738" y="26.219">Publish</tspan>
      </text>
    </g>
    <text fill="#DA0474" font-family="OpenSans, Open Sans" font-size="12">
      <tspan x="85" y="135">152 min</tspan>
    </text>
    <g stroke="#DA0474" transform="translate(31 112)">
      <path stroke-linecap="round" stroke-linejoin="round" d="M1 0L1 8M153.25 0L153.25 8"/>
      <path stroke-linecap="square" d="M2,4 L152.5,4"/>
    </g>
    <circle cx="301" cy="80" r="4" fill="#DA0474" fill-rule="nonzero"/>
    <circle cx="301" cy="80" r="2" fill="#FFF" fill-rule="nonzero"/>
    <circle cx="395" cy="94" r="4" fill="#DA0474" fill-rule="nonzero"/>
    <circle cx="395" cy="94" r="2" fill="#FFF" fill-rule="nonzero"/>
    <circle cx="454" cy="91" r="4" fill="#DA0474" fill-rule="nonzero"/>
    <circle cx="454" cy="91" r="2" fill="#FFF" fill-rule="nonzero"/>
    <circle cx="236" cy="64" r="4" fill="#DA0474" fill-rule="nonzero"/>
    <circle cx="236" cy="64" r="2" fill="#FFF" fill-rule="nonzero"/>
    <polyline stroke="#DA0474" stroke-linecap="round" stroke-linejoin="round" points="301 76.02 301 8 323 8"/>
    <polyline stroke="#DA0474" stroke-linecap="round" stroke-linejoin="round" points="474 147.02 454 147.02 454 94"/>
    <text fill="#DA0474" font-family="OpenSans, Open Sans" font-size="12">
      <tspan x="478" y="151">Open Sans Semibold</tspan> <tspan x="478" y="167">16/20, White</tspan>
    </text>
    <polyline stroke="#DA0474" stroke-linecap="round" stroke-linejoin="round" points="236 60.448 236 13 226 13"/>
    <path stroke="#DA0474" stroke-linecap="round" stroke-linejoin="round" d="M395,162 L395,97"/>
    <text fill="#DA0474" font-family="OpenSans, Open Sans" font-size="12">
      <tspan x="327" y="13">Open Sans Semibold</tspan> <tspan x="327" y="29">16/20, Medium Gray</tspan>
    </text>
    <text fill="#DA0474" font-family="OpenSans, Open Sans" font-size="12">
      <tspan x="157.967" y="16">No fill color</tspan> <tspan x="82" y="32">1px stroke, Medium Gray</tspan>
    </text>
    <text fill="#DA0474" font-family="OpenSans, Open Sans" font-size="12">
      <tspan x="357" y="179">Medium Gray</tspan>
    </text>
    <text fill="#DA0474" font-family="OpenSans, Open Sans" font-size="12">
      <tspan x="347" y="129">12</tspan>
    </text>
    <g stroke="#DA0474" transform="translate(347 76)">
      <path stroke-linecap="round" stroke-linejoin="round" d="M1 30L1 38M1 0L1 2M1 5L1 7M1 10L1 12M1 15L1 17M1 20L1 22M1 25L1 27M13 0L13 2M13 5L13 7M13 10L13 12M13 15L13 17M13 20L13 22M13 25L13 27M13 30L13 38"/>
      <path stroke-linecap="square" d="M2,34 L12.5,34"/>
    </g>
  </g>
</svg>
