<svg xmlns="http://www.w3.org/2000/svg" width="129" height="70" viewBox="0 0 129 70">
  <g fill="none" fill-rule="evenodd" transform="translate(0 -1)">
    <g transform="translate(52)">
      <rect width="24" height="24"/>
      <path stroke="#047A9C" stroke-width="2" d="M7,22.9834919 L12.0881892,17 L21,17 C22.1045695,17 23,16.1045695 23,15 L23,4 C23,2.8954305 22.1045695,2 21,2 L3,2 C1.8954305,2 1,2.8954305 1,4 L1,15 C1,16.1045695 1.8954305,17 3,17 L7,17 L7,22.9834919 Z"/>
      <circle cx="7" cy="9.5" r="1.5" fill="#047A9C"/>
      <circle cx="12" cy="9.5" r="1.5" fill="#047A9C"/>
      <circle cx="17" cy="9.5" r="1.5" fill="#047A9C"/>
    </g>
    <path fill="#252525" fill-rule="nonzero" d="M72,39.1427201 L125,39.1427201 C127.209139,39.1427201 129,40.9335811 129,43.1427201 L129,67.002559 C129,69.211698 127.209139,71.002559 125,71.002559 L4,71.002559 C1.790861,71.002559 2.705415e-16,69.211698 0,67.002559 L0,43.1427201 C-2.705415e-16,40.9335811 1.790861,39.1427201 4,39.1427201 L56,39.1427201 L62.5888938,32.5826859 C63.3692262,31.8057714 64.6307738,31.8057714 65.4111062,32.5826859 L72,39.1427201 Z"/>
    <text fill="#FFF" font-family="OpenSans-Semibold, Open Sans" font-size="14" font-weight="500">
      <tspan x="16" y="61">Send message</tspan>
    </text>
  </g>
</svg>
