<svg xmlns="http://www.w3.org/2000/svg" width="746" height="72" viewBox="0 0 746 72">
  <g fill="none" fill-rule="evenodd">
    <rect width="746" height="72" fill="#FFF"/>
    <text fill="#252525" font-family="OpenSans, Open Sans" font-size="20">
      <tspan x="328" y="45">Page title</tspan>
    </text>
    <g transform="translate(31 24)">
      <rect width="24" height="24"/>
      <path fill="#6A7070" d="M13.6442366,11.9998542 L18.6596321,6.98424967 C19.113456,6.53040688 19.113456,5.79422488 18.6596321,5.34038209 C18.2058082,4.8865393 17.4696569,4.8865393 17.015833,5.34038209 L12.0004375,10.3559866 L6.98504198,5.34038209 C6.5312181,4.8865393 5.79506677,4.8865393 5.34124289,5.34038209 C4.88625237,5.79422488 4.88625237,6.53040688 5.34124289,6.98424967 L10.3566384,11.9998542 L5.34124289,17.0154587 C4.88625237,17.4693014 4.88625237,18.2054834 5.34124289,18.6593262 C5.56757151,18.886831 5.86506531,19 6.16255911,19 C6.46005292,19 6.75754672,18.886831 6.98504198,18.6593262 L12.0004375,13.6437217 L17.015833,18.6593262 C17.2421616,18.886831 17.5396554,19 17.8371492,19 C18.134643,19 18.4321368,18.886831 18.6596321,18.6593262 C19.113456,18.2054834 19.113456,17.4693014 18.6596321,17.0154587 L13.6442366,11.9998542 Z"/>
    </g>
    <circle cx="702" cy="36" r="12" fill="#D8D8D8"/>
    <circle cx="659" cy="36" r="12" fill="#D8D8D8"/>
  </g>
</svg>
