<svg xmlns="http://www.w3.org/2000/svg" width="318" height="344" viewBox="0 0 318 344">
  <g fill="none" fill-rule="evenodd">
    <rect width="317.1" height="248.545" x=".45" y="95.005" fill="#EEE" stroke="#EEE" stroke-width=".9"/>
    <rect width="317.1" height="94.555" x=".45" y=".45" fill="#FFF" stroke="#E9E9E9" stroke-width=".9"/>
    <rect width="317.1" height="20.713" x=".45" y="95.005" fill="#FFF" stroke="#E9E9E9" stroke-width=".9"/>
    <rect width="45.042" height="10.806" x="15.932" y="9.681" fill="#E9E9E9"/>
    <ellipse cx="295.704" cy="13.674" fill="#E9E9E9" rx="5.63" ry="5.569"/>
    <ellipse cx="275.885" cy="13.674" fill="#E9E9E9" rx="5.63" ry="5.569"/>
    <rect width="159.614" height="12.607" x="79.275" y="42.325" fill="#E9E9E9"/>
    <rect width="44.961" height="5.403" x="56.754" y="76.545" fill="#898989" rx="2.702"/>
    <rect width="44.961" height="5.403" x="109.904" y="76.545" fill="#047A9C" rx="2.702"/>
    <rect width="44.961" height="5.403" x="163.955" y="76.545" fill="#898989" rx="2.702"/>
    <rect width="44.961" height="5.403" x="218.006" y="76.545" fill="#898989" rx="2.702"/>
    <path fill="#047A9C" d="M17.7634184,107.777381 L17.7388935,102.844432 C17.7364483,102.501848 18.0045394,102.226034 18.3375311,102.22855 C18.6700929,102.230623 18.9414528,102.5098 18.943468,102.851941 L18.9678407,107.754279 L20.9068781,105.790364 C21.1473427,105.553283 21.5374022,105.553283 21.7778668,105.790364 C22.0183314,106.026837 22.0183314,106.410422 21.7778668,106.646895 L18.8451066,109.682031 C18.5860628,109.950118 18.1587393,109.957448 17.8906529,109.698404 C17.8854024,109.693331 17.8802345,109.688173 17.8751514,109.682931 L14.9317649,106.648093 C14.6913003,106.411619 14.6913003,106.028034 14.9317649,105.791561 C15.1722295,105.55448 15.562289,105.55448 15.8027536,105.791561 L17.7634184,107.777381 Z" transform="rotate(90 18.355 106.15)"/>
    <rect width="159.45" height="7.204" x="79.275" y="132.377" fill="#D9D9D9"/>
    <g transform="translate(14.414 154.89)">
      <path fill="#FFF" stroke="#D9D9D9" stroke-width=".9" d="M0.45,188.659948 L288.722805,188.659948 L288.722805,3.6 C288.722805,1.86030304 287.312501,0.45 285.572805,0.45 L3.6,0.45 C1.86030304,0.45 0.45,1.86030304 0.45,3.6 L0.45,188.659948 Z"/>
      <g fill="#D9D9D9" transform="translate(36.935 20.712)">
        <rect width="216.204" height="2.702"/>
        <rect width="216.204" height="2.702" y="68.44"/>
        <rect width="216.204" height="2.702" y="17.11"/>
        <rect width="216.204" height="2.702" y="85.55"/>
        <rect width="216.204" height="2.702" y="136.88"/>
        <rect width="216.204" height="2.702" y="34.22"/>
        <rect width="216.204" height="2.702" y="102.66"/>
        <rect width="216.204" height="2.702" y="153.99"/>
        <rect width="216.204" height="2.702" y="51.33"/>
        <rect width="216.204" height="2.702" y="119.77"/>
      </g>
    </g>
  </g>
</svg>
