<svg xmlns="http://www.w3.org/2000/svg" width="162" height="344" viewBox="0 0 162 344">
  <defs>
    <linearGradient id="navigationsmall01-a" x1="0%" x2="98.038%" y1="37.719%" y2="37.719%">
      <stop offset="0%" stop-color="#FFF" stop-opacity="0"/>
      <stop offset="100%" stop-color="#FFF"/>
    </linearGradient>
  </defs>
  <g fill="none" fill-rule="evenodd">
    <rect width="161.1" height="248.545" x=".45" y=".45" fill="#EEE" stroke="#E9E9E9" stroke-width=".9" transform="translate(0 94.555)"/>
    <rect width="117" height="7.204" x="22.5" y="127.874" fill="#D9D9D9"/>
    <path fill="#FFF" stroke="#D9D9D9" stroke-width=".9" d="M0.45,343.55 L161.55,343.55 L161.55,151.285864 C161.55,149.546167 160.139697,148.135864 158.4,148.135864 L3.6,148.135864 C1.86030304,148.135864 0.45,149.546167 0.45,151.285864 L0.45,343.55 Z"/>
    <g fill="#D9D9D9" transform="translate(20.7 168.398)">
      <rect width="121.121" height="2.702"/>
      <rect width="121.121" height="2.702" y="68.44"/>
      <rect width="121.121" height="2.702" y="17.11"/>
      <rect width="121.121" height="2.702" y="85.55"/>
      <rect width="121.121" height="2.702" y="136.88"/>
      <rect width="121.121" height="2.702" y="34.22"/>
      <rect width="121.121" height="2.702" y="102.66"/>
      <rect width="121.121" height="2.702" y="153.99"/>
      <rect width="121.121" height="2.702" y="51.33"/>
      <rect width="121.121" height="2.702" y="119.77"/>
    </g>
    <rect width="161.1" height="94.555" x=".45" y=".45" fill="#FFF" stroke="#E9E9E9" stroke-width=".9"/>
    <ellipse cx="145.125" cy="13.674" fill="#E9E9E9" rx="5.625" ry="5.569"/>
    <ellipse cx="125.325" cy="13.674" fill="#E9E9E9" rx="5.625" ry="5.569"/>
    <rect width="136.35" height="16.002" x="12.6" y="37.822" fill="#E9E9E9"/>
    <rect width="44.919" height="5.403" x="11.7" y="76.545" fill="#898989" rx="2.702"/>
    <rect width="44.919" height="5.403" x="64.8" y="76.545" fill="#047A9C" rx="2.702"/>
    <rect width="39.6" height="5.403" x="118.8" y="76.545" fill="#898989" rx="2.702"/>
    <rect width="36" height="10.806" x="11.7" y="9.005" fill="#E9E9E9"/>
    <rect width="68.4" height="29.717" x="92.7" y="64.838" fill="url(#navigationsmall01-a)"/>
    <rect width="161.1" height="20.713" x=".45" y="94.104" fill="#FFF" stroke="#E9E9E9" stroke-width=".9"/>
    <path fill="#047A9C" d="M17.6336093,106.088341 L17.6090765,101.158469 C17.6066313,100.816208 17.8747224,100.540654 18.2077142,100.543168 C18.5402759,100.545239 18.8116359,100.824152 18.8136511,101.165971 L18.8380314,106.065204 L20.7746546,104.101882 C21.0148924,103.864801 21.4045839,103.864801 21.6448217,104.101882 C21.8850594,104.338355 21.8850594,104.721941 21.6448217,104.958414 L18.7155061,107.992847 C18.4565887,108.261056 18.0292687,108.268588 17.7610602,108.009671 C17.7556545,108.004452 17.7503364,107.999144 17.745108,107.993748 L14.8051783,104.959611 C14.5649406,104.723138 14.5649406,104.339553 14.8051783,104.10308 C15.0454161,103.865998 15.4351076,103.865998 15.6753454,104.10308 L17.6336093,106.088341 Z" transform="rotate(90 18.225 104.46)"/>
  </g>
</svg>
