<svg xmlns="http://www.w3.org/2000/svg" width="318" height="344" viewBox="0 0 318 344">
  <g fill="none" fill-rule="evenodd">
    <g stroke-width=".9">
      <rect width="317.1" height="316.985" x=".45" y="26.565" fill="#EEE" stroke="#D9D9D9"/>
      <rect width="317.1" height="26.116" x=".45" y=".45" fill="#FFF" stroke="#E9E9E9"/>
    </g>
    <path fill="#047A9C" d="M20.6651028,14.4083019 L23.2468847,11.8273476 C23.4805002,11.593807 23.4805002,11.2149788 23.2468847,10.9814382 C23.0132691,10.7478976 22.6343195,10.7478976 22.400704,10.9814382 L19.8189221,13.5623925 L17.2371402,10.9814382 C17.0035247,10.7478976 16.624575,10.7478976 16.3909595,10.9814382 C16.1567434,11.2149788 16.1567434,11.593807 16.3909595,11.8273476 L18.9727414,14.4083019 L16.3909595,16.9892562 C16.1567434,17.2227969 16.1567434,17.601625 16.3909595,17.8351656 C16.507467,17.9522361 16.6606083,18.0104712 16.8137496,18.0104712 C16.9668909,18.0104712 17.1200321,17.9522361 17.2371402,17.8351656 L19.8189221,15.2542113 L22.400704,17.8351656 C22.5172115,17.9522361 22.6703528,18.0104712 22.8234941,18.0104712 C22.9766353,18.0104712 23.1297766,17.9522361 23.2468847,17.8351656 C23.4805002,17.601625 23.4805002,17.2227969 23.2468847,16.9892562 L20.6651028,14.4083019 Z"/>
    <ellipse cx="298.407" cy="13.674" stroke="#047A9C" stroke-width=".9" rx="5.18" ry="5.119"/>
    <ellipse cx="279.489" cy="13.674" stroke="#047A9C" stroke-width=".9" rx="5.18" ry="5.119"/>
    <ellipse cx="261.021" cy="13.674" stroke="#047A9C" stroke-width=".9" rx="5.18" ry="5.119"/>
    <path fill="#FFF" stroke="#D9D9D9" stroke-width=".9" d="M14.8635977,343.55 L303.136402,343.55 L303.136402,43.2230366 C303.136402,41.4833397 301.726099,40.0730366 299.986402,40.0730366 L18.0135977,40.0730366 C16.2739008,40.0730366 14.8635977,41.4833397 14.8635977,43.2230366 L14.8635977,343.55 Z M303.136402,343.55 L303.586402,343.55 L303.136402,344 L303.136402,343.55 Z"/>
    <g fill="#D9D9D9" transform="translate(49.547 62.136)">
      <rect width="216.204" height="2.702"/>
      <rect width="216.204" height="2.702" y="68.44"/>
      <rect width="216.204" height="2.702" y="171.099"/>
      <rect width="216.204" height="2.702" y="17.11"/>
      <rect width="216.204" height="2.702" y="85.55"/>
      <rect width="216.204" height="2.702" y="188.209"/>
      <rect width="216.204" height="2.702" y="136.88"/>
      <rect width="216.204" height="2.702" y="239.539"/>
      <rect width="216.204" height="2.702" y="34.22"/>
      <rect width="216.204" height="2.702" y="102.66"/>
      <rect width="216.204" height="2.702" y="205.319"/>
      <rect width="216.204" height="2.702" y="153.99"/>
      <rect width="216.204" height="2.702" y="256.649"/>
      <rect width="216.204" height="2.702" y="51.33"/>
      <rect width="216.204" height="2.702" y="119.77"/>
      <rect width="216.204" height="2.702" y="222.429"/>
    </g>
    <rect width="147.739" height="7.204" x="79.275" y="9.906" fill="#E9E9E9"/>
  </g>
</svg>
