<svg xmlns="http://www.w3.org/2000/svg" width="162" height="344" viewBox="0 0 162 344">
  <defs>
    <linearGradient id="navigationbadmobile-a" x1="0%" x2="98.038%" y1="37.719%" y2="37.719%">
      <stop offset="0%" stop-color="#FFF" stop-opacity="0"/>
      <stop offset="100%" stop-color="#FFF"/>
    </linearGradient>
  </defs>
  <g fill="none" fill-rule="evenodd">
    <g stroke-width=".9" transform="translate(0 94.555)">
      <rect width="161.1" height="248.545" x=".45" y=".45" fill="#EEE" stroke="#EEE"/>
      <rect width="146.133" height="198.116" x="7.493" y="37.371" fill="#FFF" stroke="#D9D9D9" rx="3.6"/>
    </g>
    <rect width="161.1" height="94.555" x=".45" y=".45" fill="#FFF" stroke="#E9E9E9" stroke-width=".9"/>
    <ellipse cx="145.125" cy="13.674" fill="#E9E9E9" rx="5.625" ry="5.569"/>
    <ellipse cx="125.325" cy="13.674" fill="#E9E9E9" rx="5.625" ry="5.569"/>
    <rect width="136.35" height="12.607" x="12.6" y="41.424" fill="#E9E9E9"/>
    <rect width="44.919" height="5.403" x="11.7" y="76.545" fill="#898989" rx="2.702"/>
    <rect width="44.919" height="5.403" x="64.8" y="76.545" fill="#047A9C" rx="2.702"/>
    <rect width="39.6" height="5.403" x="118.8" y="76.545" fill="#898989" rx="2.702"/>
    <rect width="36" height="10.806" x="11.7" y="9.005" fill="#E9E9E9"/>
    <rect width="36" height="29.717" x="125.1" y="64.838" fill="url(#navigationbadmobile-a)"/>
    <g transform="translate(11.7 105.361)">
      <rect width="53.154" height="5.403" fill="#047A9C" rx="2.702"/>
      <rect width="53.154" height="5.403" x="63" fill="#898989" rx="2.702"/>
      <rect width="53.154" height="5.403" y="12.607" fill="#898989" rx="2.702"/>
    </g>
  </g>
</svg>
