<svg xmlns="http://www.w3.org/2000/svg" width="18" height="18" viewBox="0 0 18 18">
  <g fill="none" fill-rule="evenodd" transform="translate(-3 -3)">
    <rect width="24" height="24"/>
    <path fill="#252525" d="M14.7443848,16.6972656 C11.8519475,18.4055572 7.69438369,18.3613354 5.20919804,15.8761498 C2.26360065,12.9305524 2.26360065,8.15479542 5.20919804,5.20919804 C8.15479542,2.26360065 12.9305524,2.26360065 15.8761498,5.20919804 C18.3613354,7.69438369 18.4971503,11.7733746 16.7888588,14.6658119 L20.1950684,18.0720215 C20.9314677,18.8084208 21.1840998,19.7113011 20.4477005,20.4477005 C19.7113011,21.1840998 18.8869937,20.8398745 18.1505943,20.1034752 L14.7443848,16.6972656 Z M13.9959803,13.9959803 C15.9031887,12.0887718 15.9031887,8.99657596 13.9959803,7.0893675 C12.0887718,5.18215904 8.99657596,5.18215904 7.0893675,7.0893675 C5.18215904,8.99657596 5.18215904,12.0887718 7.0893675,13.9959803 C8.99657596,15.9031887 12.0887718,15.9031887 13.9959803,13.9959803 Z"/>
  </g>
</svg>
