<svg xmlns="http://www.w3.org/2000/svg" width="675" height="286" viewBox="0 0 675 286">
  <g fill="none" fill-rule="evenodd" transform="translate(0 -3)">
    <g transform="translate(32 36)">
      <rect width="152" height="40" fill="#047A9C" rx="20"/>
      <text fill="#FFF" font-family="OpenSans-Semibold, Open Sans" font-size="16" font-weight="500">
        <tspan x="35" y="27">Extra large</tspan>
      </text>
    </g>
    <g transform="translate(146)">
      <circle cx="4" cy="53" r="4" fill="#DA0474" fill-rule="nonzero"/>
      <circle cx="4" cy="53" r="2" fill="#FFF" fill-rule="nonzero"/>
      <polyline stroke="#DA0474" stroke-linecap="round" stroke-linejoin="round" points="4 49 4 8.784 26 8.784"/>
      <text fill="#DA0474" font-family="OpenSans, Open Sans" font-size="12">
        <tspan x="30" y="13">Open Sans Semibold</tspan> <tspan x="30" y="29">16/20, White</tspan>
      </text>
    </g>
    <text fill="#DA0474" font-family="OpenSans, Open Sans" font-size="12">
      <tspan x="0" y="60">40</tspan>
    </text>
    <g stroke="#DA0474" transform="rotate(-90 47 31)">
      <path stroke-linecap="round" stroke-linejoin="round" d="M1.75 0L1.75 8M42.25 0L42.25 8"/>
      <path stroke-linecap="square" d="M2.5,4 L41.5,4"/>
    </g>
    <text fill="#DA0474" font-family="OpenSans, Open Sans" font-size="12">
      <tspan x="86" y="107">152 min</tspan>
    </text>
    <g stroke="#DA0474" transform="translate(32 84)">
      <path stroke-linecap="round" stroke-linejoin="round" d="M1 0L1 8M153.25 0L153.25 8"/>
      <path stroke-linecap="square" d="M2,4 L152.5,4"/>
    </g>
    <g transform="translate(215 82)">
      <g transform="translate(32 38)">
        <rect width="152" height="36" fill="#047A9C" rx="18"/>
        <text fill="#FFF" font-family="OpenSans-Semibold, Open Sans" font-size="16" font-weight="500">
          <tspan x="45.25" y="24.219">Large</tspan>
        </text>
      </g>
      <g transform="translate(126)">
        <circle cx="4" cy="53" r="4" fill="#DA0474" fill-rule="nonzero"/>
        <circle cx="4" cy="53" r="2" fill="#FFF" fill-rule="nonzero"/>
        <polyline stroke="#DA0474" stroke-linecap="round" stroke-linejoin="round" points="4 49 4 8.784 26 8.784"/>
        <text fill="#DA0474" font-family="OpenSans, Open Sans" font-size="12">
          <tspan x="30" y="13">Open Sans Semibold</tspan> <tspan x="30" y="29">16/20, White</tspan>
        </text>
      </g>
      <text fill="#DA0474" font-family="OpenSans, Open Sans" font-size="12">
        <tspan x="85" y="105">152 min</tspan>
      </text>
      <g stroke="#DA0474" transform="translate(31 82)">
        <path stroke-linecap="round" stroke-linejoin="round" d="M1 0L1 8M153.25 0L153.25 8"/>
        <path stroke-linecap="square" d="M2,4 L152.5,4"/>
      </g>
      <text fill="#DA0474" font-family="OpenSans, Open Sans" font-size="12">
        <tspan x="0" y="60">36</tspan>
      </text>
      <g stroke="#DA0474" transform="rotate(-90 46 30)">
        <path stroke-linecap="round" stroke-linejoin="round" d="M1.75 0L1.75 8M38.25 0L38.25 8"/>
        <path stroke-linecap="square" d="M2.5,4 L37.5,4"/>
      </g>
    </g>
    <g transform="translate(403 183)">
      <g transform="translate(32 42)">
        <rect width="152" height="32" fill="#047A9C" rx="16"/>
        <text fill="#FFF" font-family="OpenSans-Semibold, Open Sans" font-size="16" font-weight="500">
          <tspan x="50" y="23">Small</tspan>
        </text>
      </g>
      <text fill="#DA0474" font-family="OpenSans, Open Sans" font-size="12">
        <tspan x="0" y="61">32</tspan>
      </text>
      <g stroke="#DA0474" transform="rotate(-90 46 30)">
        <path stroke-linecap="round" stroke-linejoin="round" d="M1.75 0L1.75 8M34.25 0L34.25 8"/>
        <path stroke-linecap="square" d="M2.5,4 L33.5,4"/>
      </g>
      <text fill="#DA0474" font-family="OpenSans, Open Sans" font-size="12">
        <tspan x="86" y="105">152 min</tspan>
      </text>
      <g stroke="#DA0474" transform="translate(32 82)">
        <path stroke-linecap="round" stroke-linejoin="round" d="M1 0L1 8M153.25 0L153.25 8"/>
        <path stroke-linecap="square" d="M2,4 L152.5,4"/>
      </g>
      <g transform="translate(127)">
        <circle cx="4" cy="53" r="4" fill="#DA0474" fill-rule="nonzero"/>
        <circle cx="4" cy="53" r="2" fill="#FFF" fill-rule="nonzero"/>
        <polyline stroke="#DA0474" stroke-linecap="round" stroke-linejoin="round" points="4 49 4 8.784 26 8.784"/>
        <text fill="#DA0474" font-family="OpenSans, Open Sans" font-size="12">
          <tspan x="30" y="13">Open Sans Semibold</tspan> <tspan x="30" y="29">16/20, White</tspan>
        </text>
      </g>
    </g>
  </g>
</svg>
