<svg xmlns="http://www.w3.org/2000/svg" xmlns:xlink="http://www.w3.org/1999/xlink" width="163" height="163" viewBox="0 0 163 163">
  <defs>
    <polygon id="spotillustrationsc-a" points="0 .526 54.311 .526 54.311 75.527 0 75.527"/>
  </defs>
  <g fill="none" fill-rule="evenodd">
    <rect width="162" height="162" x=".5" y=".5" fill="#FFF" stroke="#C7C7C7" rx="4"/>
    <g transform="translate(39 42)">
      <g transform="translate(0 2.703)">
        <mask id="spotillustrationsc-b" fill="#fff">
          <use xlink:href="#spotillustrationsc-a"/>
        </mask>
        <path fill="#E9E9E9" d="M54.3011423,72.606556 L53.9605654,3.11694066 C53.9526038,1.67844615 52.7592577,0.518621978 51.29345,0.525567033 L2.64048846,0.868479121 C1.17468077,0.876292308 -0.00805,2.04827033 -8.84615385e-05,3.48676484 L0.350219231,72.9364462 C0.357296154,74.3749407 1.55152692,75.5347648 3.01645,75.5269516 L51.6694115,75.1840396 C53.1361038,75.1770945 54.31795,74.0042484 54.3108731,72.566622" mask="url(#spotillustrationsc-b)"/>
      </g>
      <path stroke="#6A7070" stroke-linecap="round" stroke-width="1.5" d="M56.8850154 61.4189407L56.9416308 72.691633C56.9487077 74.1309956 55.7668615 75.3021055 54.3010538 75.3099187L5.66224615 75.6398088M5.27151154.994792308L53.9244731.651012088C55.3902808.644067033 56.5845115 1.80389121 56.5924731 3.24238571L56.5924731 34.0732209"/>
      <path stroke="#FFF" stroke-linecap="round" stroke-linejoin="round" stroke-width="1.5" d="M4.42325385,25.3694176 L44.1106385,25.3694176 C44.5989462,25.3694176 44.9952538,24.9813626 44.9952538,24.5012857 L44.9952538,13.9751868 C44.9952538,13.495978 44.5989462,13.1070549 44.1106385,13.1070549 L4.42325385,13.1070549"/>
      <path stroke="#C7C7C7" stroke-linecap="round" stroke-linejoin="round" stroke-width="1.312" d="M4.42325385,44.5768352 L5.75017692,44.5768352"/>
      <path stroke="#C7C7C7" stroke-dasharray="2.549 2.549" stroke-linecap="round" stroke-linejoin="round" stroke-width="1.5" d="M8.32794615,44.5768352 L44.1106385,44.5768352 C44.5989462,44.5768352 44.9952538,44.1887802 44.9952538,43.7087033 L44.9952538,33.1826044 C44.9952538,32.7033956 44.5989462,32.3144725 44.1106385,32.3144725 L7.03906154,32.3144725"/>
      <path stroke="#C7C7C7" stroke-linecap="round" stroke-linejoin="round" stroke-width="1.312" d="M5.75017692,32.3144725 L4.42325385,32.3144725"/>
      <path stroke="#FFF" stroke-linecap="round" stroke-linejoin="round" stroke-width="1.5" d="M4.42325385,63.7842527 L44.1106385,63.7842527 C44.5989462,63.7842527 44.9952538,63.3961978 44.9952538,62.9161209 L44.9952538,52.390022 C44.9952538,51.9108132 44.5989462,51.5218901 44.1106385,51.5218901 L4.42325385,51.5218901"/>
      <path fill="#ABDC3B" d="M38.6718462,53.8770451 L88.09,53.8770451 C89.0675,53.8770451 89.8592308,53.0991989 89.8592308,52.1407813 L89.8592308,43.3509462 C89.8592308,42.3925286 89.0675,41.6146824 88.09,41.6146824 L38.6718462,41.6146824 C37.6952308,41.6146824 36.9026154,42.3925286 36.9026154,43.3509462 L36.9026154,52.1407813 C36.9026154,53.0991989 37.6952308,53.8770451 38.6718462,53.8770451"/>
      <path stroke="#6A7070" stroke-linecap="round" stroke-linejoin="round" stroke-width="1.5" d="M40.4410769,52.1407813 L89.8592308,52.1407813 C90.8367308,52.1407813 91.6284615,51.3629352 91.6284615,50.4045176 L91.6284615,41.6146824 C91.6284615,40.6562648 90.8367308,39.8784187 89.8592308,39.8784187 L40.4410769,39.8784187 C39.4644615,39.8784187 38.6718462,40.6562648 38.6718462,41.6146824 L38.6718462,50.4045176 C38.6718462,51.3629352 39.4644615,52.1407813 40.4410769,52.1407813 Z"/>
    </g>
  </g>
</svg>
