<svg xmlns="http://www.w3.org/2000/svg" width="163" height="163" viewBox="0 0 163 163">
  <g fill="none" fill-rule="evenodd">
    <rect width="162" height="162" x=".5" y=".5" fill="#FFF" stroke="#C7C7C7" rx="4"/>
    <g transform="translate(25 36)">
      <path fill="#D3EAE4" d="M0.0542579365,22.2044505 C-0.28743254,20.4159851 1.03269444,18.7446485 2.8424881,18.6662624 L64.5108929,15.9984307 C65.9135278,15.9380644 67.1663929,16.8696881 67.5197421,18.2346881 L78.1004881,59.2144208 L107.990782,70.0668465 C109.170107,70.4957178 109.955726,71.6192525 109.955726,72.8779356 L109.955726,73.1509356 C109.955726,74.0708465 109.29925,74.8592129 108.39794,75.0222921 L38.5092341,87.6406584 C37.6455913,87.7965297 36.7550437,87.6460644 35.9891548,87.2144901 L13.3138214,74.4456584 C11.0107738,73.1491337 9.39379762,70.9020644 8.89336905,68.297302 C6.42978968,55.463599 2.22009127,33.5515198 0.0542579365,22.2044505"/>
      <path fill="#FFF" d="M13.9410611,66.0740188 C13.9410611,66.0740188 8.91704524,36.6098406 6.75569603,25.6997515 C6.64448968,25.1366327 7.05164841,24.6131574 7.62292619,24.5861277 C22.3299659,23.8914644 65.0134738,21.5804248 65.0134738,21.5804248 C65.4260135,21.561504 65.7955056,21.835405 65.8995373,22.2372465 L74.5619738,57.6173257 C74.6938071,58.1308901 74.3467357,58.6435535 73.8229897,58.7084248 L14.9078389,66.783999 C14.4495611,66.8416624 14.0262595,66.5299198 13.9410611,66.0740188"/>
      <path stroke="#6A7070" stroke-linecap="round" stroke-width="1.5" d="M16.9485651 79.1339604C14.4347635 77.6797624 12.6814698 75.1930297 12.1496524 72.3278812L3.37780317 25.1033861C3.05225556 23.3167228 4.37507302 21.654396 6.18217619 21.5796139L67.3169698 19.0478317C68.7124302 18.9892673 69.9599143 19.9136832 70.3168508 21.2705743L81.0760651 62.2043564 111.74839 73.3396931C112.457779 73.5973762 112.930406 74.2740198 112.930406 75.0317525 112.930406 76.4733366 111.908025 77.7085941 110.498216 77.9716832L39.2472317 90.4296733C37.8876444 90.6711386 36.4850095 90.4287723 35.2823667 89.7449208L16.9485651 79.1339604zM44.2658667 67.2002564L81.0760651 62.2042663"/>
      <path fill="#FFF" d="M64.9637897,79.2712713 C67.6246706,78.931598 74.5687897,77.8486079 78.9426071,77.2530535 C79.9120754,77.1206079 80.0806786,76.0051822 79.1865437,75.661004 L74.9230357,73.841004 C74.397496,73.6382812 73.811869,73.5698059 73.2405913,73.6436871 C73.2405913,73.6436871 63.0903214,75.2024 59.5128849,75.6682119 C58.5586627,75.7925485 58.3541865,76.8782416 59.2151389,77.2467465 C60.3514167,77.7332812 63.1773135,79.028004 63.1773135,79.028004 C63.7288611,79.2649644 64.3512579,79.3496574 64.9637897,79.2712713"/>
      <path stroke="#E9E9E9" stroke-linecap="round" stroke-width="1.5" d="M12.168396 33.8997525L63.136777 30.0660396M11.2120214 28.1893673L11.8550452 28.1461198M14.334319 27.9200614L14.9773429 27.8759129M17.3365317 27.7837416L17.9795556 27.7395931M16.407331 47.4418139L17.2637992 51.5088832C17.4521325 52.436903 18.3139817 53.068497 19.2520611 52.9648832L30.7305294 51.6980911C31.7986484 51.5800614 32.5340452 50.5655465 32.319704 49.5077842L30.4587913 40.3447149C30.2749421 39.4401208 29.4498627 38.8139327 28.5333071 38.8833089L16.9759183 39.7536653M35.1119698 38.8779931L61.7611365 36.695795M36.1514802 43.4471842L63.0140913 41.1244317M36.8232921 47.8571703L63.805181 45.2839426"/>
      <path fill="#F5C54C" d="M103.354733,27.5311941 L103.340383,27.5311941 C104.813867,25.6715505 105.699034,23.346095 105.699034,20.8161149 C105.699034,14.7326297 100.637352,9.8006099 94.3927563,9.8006099 C88.1481611,9.8006099 83.0855817,14.7326297 83.0855817,20.8161149 C83.0855817,23.346095 83.9716452,25.6715505 85.4433357,27.5311941 L85.4298833,27.5311941 C85.4298833,27.5311941 85.4576849,27.5591248 85.4980421,27.6005703 C85.7150738,27.8708673 85.9455579,28.1303525 86.186804,28.3790257 C87.3033516,29.7151941 88.1454706,30.176501 88.8602405,33.5669267 L94.3927563,33.5669267 L99.9243754,33.5669267 C100.640042,30.177402 101.481264,29.716095 102.596915,28.3799267 C102.839955,28.1303525 103.070439,27.8708673 103.287471,27.6005703 C103.327828,27.5591248 103.354733,27.5311941 103.354733,27.5311941"/>
      <path fill="#E9E9E9" d="M99.924196,33.5671069 L88.8600611,33.5671069 L88.8600611,38.0711564 C88.8600611,39.2091069 89.7784103,40.1308198 90.9093071,40.1308198 L97.87495,40.1308198 C99.0076405,40.1308198 99.924196,39.2091069 99.924196,38.0711564 L99.924196,33.5671069 Z"/>
      <path stroke="#6A7070" stroke-linecap="round" stroke-linejoin="round" stroke-width="1.5" d="M91.2301016,32.3766287 C91.2301016,30.5620347 90.2256571,28.9889059 89.5620063,28.1978366"/>
      <path stroke="#6A7070" stroke-linecap="round" stroke-linejoin="round" stroke-width="1.35" d="M96.761631,8.61040198 C92.8586468,8.61040198 89.4184246,10.5376198 87.3862183,13.4676396"/>
      <path stroke="#6A7070" stroke-linecap="round" stroke-linejoin="round" stroke-width="1.5" d="M102.294147 32.3766287L102.294147 36.5599257C102.294147 37.8753713 101.233202 38.9403416 99.9238373 38.9403416L93.5994246 38.9403416C92.2909563 38.9403416 91.2300119 37.8753713 91.2300119 36.5599257L91.2300119 32.3766287M102.061152 32.8376653L96.9949849 32.8376653"/>
      <path stroke="#FFF" stroke-linecap="round" stroke-linejoin="round" stroke-width="1.35" d="M96.761631,13.8702921 C100.626948,14.3252921 101.677131,17.9184406 101.623321,17.7968069"/>
      <path stroke="#6A7070" stroke-linecap="round" stroke-linejoin="round" stroke-width="1.5" d="M85.0845159 5.58541782L83.5410794 4.03481386M95.1545198 3.05579802L95.1545198.675382178M106.26242 5.58541782L107.80496 4.03481386M78.7901468 13.8702921L81.5541627 14.4622426M96.761631 8.61040198C103.006226 8.61040198 107.804242 13.5901743 107.804242 19.6736594 107.804242 19.6736594 107.829353 22.6586396 106.560345 25.1066297 106.329861 25.5508178 106.020456 25.9490554 105.711052 26.3409861L105.724504 26.3409861C105.724504 26.3409861 105.696702 26.3689168 105.657242 26.4103624 105.439313 26.6806594 105.208829 26.9410455 104.966687 27.1897188 103.851036 28.5258871 102.294147 28.9493525 102.294147 32.3767188"/>
    </g>
  </g>
</svg>
