<svg xmlns="http://www.w3.org/2000/svg" xmlns:xlink="http://www.w3.org/1999/xlink" width="163" height="163" viewBox="0 0 163 163">
  <defs>
    <polygon id="spotillustrationsb-a" points=".875 .326 90.033 .326 90.033 63.906 .875 63.906"/>
  </defs>
  <g fill="none" fill-rule="evenodd">
    <rect width="162" height="162" x=".5" y=".5" fill="#FFF" stroke="#C7C7C7" rx="4"/>
    <g transform="translate(35 35)">
      <path fill="#76D5D4" d="M89.6086505,3.83435805 L6.97232088,4.24253165 C5.26172747,4.24974684 3.88065055,5.64227848 3.88994725,7.34918626 L3.88990059,29.305009 L92.7240791,29.305009 L92.7240791,6.91009042 C92.7147824,5.20318264 91.3202769,3.82508137 89.6086505,3.83435805"/>
      <g transform="translate(3.099 28.979)">
        <mask id="spotillustrationsb-b" fill="#fff">
          <use xlink:href="#spotillustrationsb-a"/>
        </mask>
        <path fill="#FFF" d="M89.6247648,0.326332731 L90.0338198,60.3896962 C90.0410505,62.0986655 88.6610066,63.4891356 86.9493802,63.4984123 L4.31305055,63.9065859 C2.60245714,63.9138011 1.20691868,62.5367306 1.19865495,60.828792 L0.875336264,0.326332731 L89.6247648,0.326332731 Z" mask="url(#spotillustrationsb-b)"/>
      </g>
      <path stroke="#6A7070" stroke-linecap="round" stroke-width="1.5" d="M86.9344022,89.3999132 L4.29807253,89.8080868 C2.58644615,89.8163327 1.19194066,88.4392622 1.18264396,86.7313237 L0.774621978,4.27304159 C0.766358242,2.56510307 2.1464022,1.17360217 3.85802857,1.1643255 L86.4788637,0.773674503 C88.1966879,0.76439783 89.5932593,2.15177577 89.5932593,3.86589873 L89.5932593,19.5919204"/>
      <path stroke="#E9E9E9" stroke-linecap="round" stroke-linejoin="round" stroke-width="1.5" d="M13.4333231 35.7470398L23.8921143 35.7470398C24.4623121 35.7470398 24.9250813 36.2088119 24.9250813 36.7777812L24.9250813 47.214038M50.34003 35.7470398L60.7988212 35.7470398C61.369019 35.7470398 61.8317883 36.2088119 61.8317883 36.7777812L61.8317883 47.214038M13.4333231 53.3129349L23.8921143 53.3129349C24.4623121 53.3129349 24.9250813 53.7747071 24.9250813 54.3436763L24.9250813 64.7799331M50.878378 53.3129349L61.3371692 53.3129349C61.907367 53.3129349 62.3701363 53.7747071 62.3701363 54.3436763L62.3701363 64.7799331M69.6220813 53.3129349L80.0808725 53.3129349C80.6510703 53.3129349 81.1138396 53.7747071 81.1138396 54.3436763L81.1138396 64.7799331M32.3101758 35.5759367L42.768967 35.5759367C43.3401978 35.5759367 43.8019341 36.0366781 43.8019341 36.6066781L43.8019341 47.0429349M13.4333231 70.87883L23.8921143 70.87883C24.4623121 70.87883 24.9250813 71.3395714 24.9250813 71.9095714L24.9250813 82.3458282M50.878378 70.87883L61.3371692 70.87883C61.907367 70.87883 62.3701363 71.3395714 62.3701363 71.9095714L62.3701363 82.3458282M69.6220813 70.87883L80.0808725 70.87883C80.6510703 70.87883 81.1138396 71.3395714 81.1138396 71.9095714L81.1138396 82.3458282M32.3101758 70.87883L42.768967 70.87883C43.3401978 70.87883 43.8019341 71.3395714 43.8019341 71.9095714L43.8019341 82.3458282"/>
      <path fill="#FFF" d="M33.3452088,16.95817 C33.3452088,19.170141 31.5478462,20.9646618 29.329033,20.9646618 C27.1122857,20.9646618 25.3149231,19.170141 25.3149231,16.95817 C25.3149231,14.7451682 27.1122857,12.9506474 29.329033,12.9506474 C31.5478462,12.9506474 33.3452088,14.7451682 33.3452088,16.95817"/>
      <path stroke="#707070" stroke-linecap="round" stroke-width="1.5" d="M27.9018857,12.9509566 C30.118633,12.9509566 31.9170286,14.7444467 31.9170286,16.9584792 C31.9170286,19.1704503 30.118633,20.9639403 27.9018857,20.9639403 C25.6851385,20.9639403 23.8857099,19.1704503 23.8857099,16.9584792"/>
      <path fill="#FFF" d="M67.4331209,16.95817 C67.4331209,19.170141 65.6357582,20.9646618 63.4169451,20.9646618 C61.2001978,20.9646618 59.4028352,19.170141 59.4028352,16.95817 C59.4028352,14.7451682 61.2001978,12.9506474 63.4169451,12.9506474 C65.6357582,12.9506474 67.4331209,14.7451682 67.4331209,16.95817"/>
      <path stroke="#707070" stroke-linecap="round" stroke-width="1.5" d="M61.9897978,12.9509566 C64.2065451,12.9509566 66.0049407,14.7444467 66.0049407,16.9584792 C66.0049407,19.1704503 64.2065451,20.9639403 61.9897978,20.9639403 C59.7730505,20.9639403 57.973622,19.1704503 57.973622,16.9584792"/>
      <g transform="translate(68.09 35.354)">
        <path fill="#F5C54C" d="M12.4686007,10.8377993 L12.4686007,1.43228391 C12.4686007,0.863314647 12.0068645,0.401542495 11.4356337,0.401542495 L2.00980952,0.401542495 C1.43961172,0.401542495 0.976842491,0.863314647 0.976842491,1.43228391 L0.976842491,10.8377993 C0.976842491,11.4077993 1.43961172,11.8685407 2.00980952,11.8685407 L11.4356337,11.8685407 C12.0068645,11.8685407 12.4686007,11.4077993 12.4686007,10.8377993"/>
        <path stroke="#F5C54C" stroke-linecap="round" stroke-linejoin="round" stroke-width="1.8" d="M12.4686007,10.8377993 L12.4686007,1.43228391 C12.4686007,0.863314647 12.0068645,0.401542495 11.4356337,0.401542495 L2.00980952,0.401542495 C1.43961172,0.401542495 0.976842491,0.863314647 0.976842491,1.43228391 L0.976842491,10.8377993 C0.976842491,11.4077993 1.43961172,11.8685407 2.00980952,11.8685407 L11.4356337,11.8685407 C12.0068645,11.8685407 12.4686007,11.4077993 12.4686007,10.8377993 Z"/>
        <path stroke="#FFF" stroke-linecap="round" stroke-width="1.5" d="M3.71179708,6.72842228 L5.74702545,8.75235174 C5.8645084,8.86918246 6.05445716,8.86865372 6.17128788,8.75117077 C6.18492848,8.73745403 6.19721038,8.72245008 6.20796203,8.7063685 L9.7374381,3.42722253"/>
      </g>
      <g transform="translate(31.333 52.911)">
        <path fill="#F5C54C" d="M12.4686007,10.8377993 L12.4686007,1.43228391 C12.4686007,0.863314647 12.0068645,0.401542495 11.4356337,0.401542495 L2.00980952,0.401542495 C1.43961172,0.401542495 0.976842491,0.863314647 0.976842491,1.43228391 L0.976842491,10.8377993 C0.976842491,11.4077993 1.43961172,11.8685407 2.00980952,11.8685407 L11.4356337,11.8685407 C12.0068645,11.8685407 12.4686007,11.4077993 12.4686007,10.8377993"/>
        <path stroke="#F5C54C" stroke-linecap="round" stroke-linejoin="round" stroke-width="1.8" d="M12.4686007,10.8377993 L12.4686007,1.43228391 C12.4686007,0.863314647 12.0068645,0.401542495 11.4356337,0.401542495 L2.00980952,0.401542495 C1.43961172,0.401542495 0.976842491,0.863314647 0.976842491,1.43228391 L0.976842491,10.8377993 C0.976842491,11.4077993 1.43961172,11.8685407 2.00980952,11.8685407 L11.4356337,11.8685407 C12.0068645,11.8685407 12.4686007,11.4077993 12.4686007,10.8377993 Z"/>
        <path stroke="#FFF" stroke-linecap="round" stroke-width="1.5" d="M3.71179708,6.72842228 L5.74702545,8.75235174 C5.8645084,8.86918246 6.05445716,8.86865372 6.17128788,8.75117077 C6.18492848,8.73745403 6.19721038,8.72245008 6.20796203,8.7063685 L9.7374381,3.42722253"/>
      </g>
    </g>
  </g>
</svg>
