<svg xmlns="http://www.w3.org/2000/svg" xmlns:xlink="http://www.w3.org/1999/xlink" width="163" height="163" viewBox="0 0 163 163">
  <defs>
    <polygon id="spotillustrationsa-a" points="0 .527 49.102 .527 49.102 75.624 0 75.624"/>
  </defs>
  <g fill="none" fill-rule="evenodd">
    <rect width="162" height="162" x=".5" y=".5" fill="#FFF" stroke="#C7C7C7" rx="4"/>
    <g transform="translate(34 42)">
      <g transform="translate(0 2.707)">
        <mask id="spotillustrationsa-b" fill="#fff">
          <use xlink:href="#spotillustrationsa-a"/>
        </mask>
        <path fill="#E9E9E9" d="M49.0934009,72.699235 L48.7573147,3.12066971 C48.7503491,1.68120311 47.5749181,0.519025065 46.133056,0.526848253 L2.59944397,0.870199284 C1.15584052,0.877153229 -0.00740086207,2.05150068 -0.000435344828,3.49096728 L0.344357759,73.0295474 C0.352193966,74.4698832 1.52675431,75.631192 2.96948707,75.6242381 L46.5030991,75.280887 C47.9458319,75.2730638 49.109944,74.0995856 49.1021078,72.6592498" mask="url(#spotillustrationsa-b)"/>
      </g>
      <path stroke="#6A7070" stroke-linecap="round" stroke-width="1.5" d="M51.6358147 62.3818407L51.6915388 72.7849423C51.699375 74.2252782 50.5352629 75.3987564 49.0934009 75.4057103L5.57284914 75.736892M5.18904914.995804914L48.7226612.65158464C50.1645233.644630695 51.340825 1.80680874 51.3477905 3.24627534L51.3477905 14.9940961"/>
      <path stroke="#FFF" stroke-linecap="round" stroke-linejoin="round" stroke-width="1.5" d="M39.9333103 13.413899L4.35344828 13.413899M39.9333103 22.1063302L4.35344828 22.1063302"/>
      <path stroke="#6A7070" stroke-linecap="round" stroke-linejoin="round" stroke-width="1.5" d="M39.9333103,30.7987613 L4.35344828,30.7987613"/>
      <path stroke="#FFF" stroke-linecap="round" stroke-linejoin="round" stroke-width="1.5" d="M39.9333103 39.4911925L4.35344828 39.4911925M39.9333103 48.1836237L4.35344828 48.1836237M39.9333103 56.8760548L4.35344828 56.8760548M39.9333103 65.568486L4.35344828 65.568486"/>
      <path fill="#76D5D4" d="M96.5052388,23.2115728 L52.2184802,23.2115728 C51.2563681,23.2115728 50.4771009,23.9904146 50.4771009,24.950059 L50.4771009,27.6481897 L46.6277819,30.22028 C46.128006,30.5532001 46.1088509,31.2798874 46.5912129,31.6388848 L50.4771009,34.5299874 L50.4771009,54.5590873 C50.4771009,55.5187317 51.2563681,56.2975735 52.2184802,56.2975735 L96.5052388,56.2975735 C97.4664802,56.2975735 98.2466181,55.5187317 98.2466181,54.5590873 L98.2466181,24.950059 C98.2466181,23.9904146 97.4664802,23.2115728 96.5052388,23.2115728"/>
      <path stroke="#FFF" stroke-linecap="round" stroke-linejoin="round" stroke-width="1.5" d="M90.6509828 45.5758943L58.5538793 45.5758943M90.6509828 41.2296787L58.5538793 41.2296787"/>
      <path fill="#F5C54C" d="M64.3313405,32.7910666 C64.3313405,34.3835199 63.0383664,35.674346 61.4432629,35.674346 C59.8472888,35.674346 58.553444,34.3835199 58.553444,32.7910666 C58.553444,31.1977439 59.8472888,29.9069179 61.4432629,29.9069179 C63.0383664,29.9069179 64.3313405,31.1977439 64.3313405,32.7910666"/>
      <path stroke="#6A7070" stroke-width="1.5" d="M64.3313405,32.7910666 C64.3313405,34.3835199 63.0383664,35.674346 61.4432629,35.674346 C59.8472888,35.674346 58.553444,34.3835199 58.553444,32.7910666 C58.553444,31.1977439 59.8472888,29.9069179 61.4432629,29.9069179 C63.0383664,29.9069179 64.3313405,31.1977439 64.3313405,32.7910666 Z"/>
      <path fill="#EDC0F2" d="M73.0382371,32.7910666 C73.0382371,34.3835199 71.7452629,35.674346 70.1501595,35.674346 C68.5541853,35.674346 67.2603405,34.3835199 67.2603405,32.7910666 C67.2603405,31.1977439 68.5541853,29.9069179 70.1501595,29.9069179 C71.7452629,29.9069179 73.0382371,31.1977439 73.0382371,32.7910666"/>
      <path stroke="#6A7070" stroke-width="1.5" d="M73.0382371,32.7910666 C73.0382371,34.3835199 71.7452629,35.674346 70.1501595,35.674346 C68.5541853,35.674346 67.2603405,34.3835199 67.2603405,32.7910666 C67.2603405,31.1977439 68.5541853,29.9069179 70.1501595,29.9069179 C71.7452629,29.9069179 73.0382371,31.1977439 73.0382371,32.7910666 Z"/>
      <path fill="#ABDC3B" d="M81.7451336,32.7910666 C81.7451336,34.3835199 80.4521595,35.674346 78.857056,35.674346 C77.2610819,35.674346 75.9672371,34.3835199 75.9672371,32.7910666 C75.9672371,31.1977439 77.2610819,29.9069179 78.857056,29.9069179 C80.4521595,29.9069179 81.7451336,31.1977439 81.7451336,32.7910666"/>
      <path stroke="#6A7070" stroke-width="1.5" d="M81.7451336,32.7910666 C81.7451336,34.3835199 80.4521595,35.674346 78.857056,35.674346 C77.2610819,35.674346 75.9672371,34.3835199 75.9672371,32.7910666 C75.9672371,31.1977439 77.2610819,29.9069179 78.857056,29.9069179 C80.4521595,29.9069179 81.7451336,31.1977439 81.7451336,32.7910666 Z"/>
      <path stroke="#6A7070" stroke-linecap="round" stroke-linejoin="round" stroke-width="1.5" d="M100.858687,39.7543124 L100.858687,51.9506626 C100.858687,52.9111762 100.078549,53.6891488 99.1173078,53.6891488 L54.8305491,53.6891488 C53.8684371,53.6891488 53.0891698,52.9111762 53.0891698,51.9506626 L53.0891698,31.9215627 L49.2032819,29.0313293 C48.7209198,28.6723319 48.740075,27.9456446 49.2398509,27.6118553 L53.0891698,25.0397649 L53.0891698,22.3425035 C53.0891698,21.3819899 53.8684371,20.6040173 54.8305491,20.6040173 L70.9931612,20.6040173 L77.7087905,20.6040173 L88.1292043,20.6040173 L92.3921009,20.6040173 L99.1173078,20.6040173 C100.078549,20.6040173 100.858687,21.3819899 100.858687,22.3425035 L100.858687,39.7543124 Z"/>
    </g>
  </g>
</svg>
