<?xml version="1.0" encoding="UTF-8"?>
<svg width="38px" height="32px" viewBox="0 0 38 32" version="1.1" xmlns="http://www.w3.org/2000/svg" xmlns:xlink="http://www.w3.org/1999/xlink">
    <!-- Generator: Sketch 49.3 (51167) - http://www.bohemiancoding.com/sketch -->
    <title>Group 2</title>
    <desc>Created with Sketch.</desc>
    <defs></defs>
    <g id="Page-1" stroke="none" stroke-width="1" fill="none" fill-rule="evenodd">
        <g id="Intro_1" transform="translate(-16.000000, -11.000000)" fill="#FFFFFF">
            <g id="Group-2" transform="translate(16.000000, 11.000000)">
                <polygon id="Star" points="26 4.5 24.2366442 5.42705098 24.5734152 3.46352549 23.1468305 2.07294902 25.1183221 1.78647451 26 0 26.8816779 1.78647451 28.8531695 2.07294902 27.4265848 3.46352549 27.7633558 5.42705098"></polygon>
                <polygon id="Star" points="31 30.5 29.2366442 31.427051 29.5734152 29.4635255 28.1468305 28.072949 30.1183221 27.7864745 31 26 31.8816779 27.7864745 33.8531695 28.072949 32.4265848 29.4635255 32.7633558 31.427051"></polygon>
                <polygon id="Star" points="23 13.5 21.2366442 14.427051 21.5734152 12.4635255 20.1468305 11.072949 22.1183221 10.7864745 23 9 23.8816779 10.7864745 25.8531695 11.072949 24.4265848 12.4635255 24.7633558 14.427051"></polygon>
                <polygon id="Star" points="33.2797543 12.75 30.6347207 14.1405765 31.1398772 11.1952882 29 9.10942353 31.9572375 8.67971176 33.2797543 6 34.6022711 8.67971176 37.5595086 9.10942353 35.4196315 11.1952882 35.924788 14.1405765"></polygon>
                <polygon id="Star" points="10.5 11.5201767 8.33688104 12.6573956 8.75 10.2487273 7 8.54289885 9.41844052 8.19147887 10.5 6 11.5815595 8.19147887 14 8.54289885 12.25 10.2487273 12.663119 12.6573956"></polygon>
                <polygon id="Star" points="20.2169578 26.1209757 16.6428411 28 17.3254367 24.0201626 14.4339155 21.2016261 18.4298994 20.6209757 20.2169578 17 22.0040161 20.6209757 26 21.2016261 23.1084789 24.0201626 23.7910744 28"></polygon>
                <polygon id="Star" points="3.68011778 24.8042572 1.40567991 26 1.84005889 23.4673762 3.66373598e-14 21.6737621 2.54289885 21.3042572 3.68011778 19 4.81733672 21.3042572 7.36023557 21.6737621 5.52017668 23.4673762 5.95455566 26"></polygon>
            </g>
        </g>
    </g>
</svg>