<?xml version="1.0" encoding="UTF-8"?>
<svg width="476px" height="192px" viewBox="0 0 476 192" version="1.1" xmlns="http://www.w3.org/2000/svg" xmlns:xlink="http://www.w3.org/1999/xlink">
    <!-- Generator: Sketch 49.3 (51167) - http://www.bohemiancoding.com/sketch -->
    <title>Group 4</title>
    <desc>Created with Sketch.</desc>
    <defs></defs>
    <g id="Page-1" stroke="none" stroke-width="1" fill="none" fill-rule="evenodd">
        <g id="Intro_1" transform="translate(-960.000000, 0.000000)" fill="#FFFFFF">
            <g id="Group" transform="translate(172.000000, -154.000000)">
                <g id="Group-4" transform="translate(786.000000, 0.000000)">
                    <polygon id="Path-4" points="449.00486 177 447.915809 182.936147 444 184.003011 447.915809 185.123417 449.00486 191.006022 450.074388 185.123417 453.94819 184.003011 450.074388 182.936147"></polygon>
                    <g id="Group-3-Copy-10" opacity="0.995527627" style="mix-blend-mode: lighten;" transform="translate(349.889017, 165.246041) rotate(110.000000) translate(-349.889017, -165.246041) translate(334.389017, 125.246041)">
                        <circle id="Oval-Copy-196" fill-opacity="0.400000006" cx="13" cy="42" r="1"></circle>
                        <circle id="Oval-Copy-40" cx="6" cy="9" r="1"></circle>
                        <circle id="Oval-Copy-197" cx="19" cy="52" r="1"></circle>
                        <circle id="Oval-Copy-48" cx="20" cy="11" r="1"></circle>
                        <circle id="Oval-Copy" fill-opacity="0.400000006" cx="14" cy="2" r="1"></circle>
                        <circle id="Oval-Copy-209" cx="17" cy="56" r="1"></circle>
                        <circle id="Oval-Copy-81" fill-opacity="0.400000006" cx="24" cy="33" r="1"></circle>
                        <circle id="Oval-Copy-219" fill-opacity="0.6" cx="23" cy="38" r="1"></circle>
                        <circle id="Oval-Copy-220" fill-opacity="0.400000006" cx="16" cy="49" r="1"></circle>
                        <circle id="Oval-Copy-50" fill-opacity="0.6" cx="23" cy="18" r="1"></circle>
                        <circle id="Oval-Copy-223" cx="28" cy="73" r="1"></circle>
                        <circle id="Oval-Copy-3" cx="12" cy="11" r="1"></circle>
                        <circle id="Oval-Copy-11" cx="22" cy="15" r="1"></circle>
                        <circle id="Oval-Copy-27" cx="3" cy="1" r="1"></circle>
                        <circle id="Oval-Copy-232" fill-opacity="0.400000006" cx="9" cy="55" r="1"></circle>
                        <circle id="Oval-Copy-51" fill-opacity="0.400000006" cx="16" cy="24" r="1"></circle>
                        <circle id="Oval-Copy-235" fill-opacity="0.400000006" cx="21" cy="79" r="1"></circle>
                        <circle id="Oval-Copy-83" cx="22" cy="42" r="1"></circle>
                        <circle id="Oval-Copy-4" fill-opacity="0.400000006" cx="7" cy="5" r="1"></circle>
                        <circle id="Oval-Copy-242" cx="24" cy="32" r="1"></circle>
                        <circle id="Oval-Copy-52" fill-opacity="0.6" cx="11" cy="18" r="1"></circle>
                        <circle id="Oval-Copy-247" cx="16" cy="73" r="1"></circle>
                        <circle id="Oval-Copy-84" cx="17" cy="36" r="1"></circle>
                        <circle id="Oval-Copy-255" fill-opacity="0.400000006" cx="17" cy="40" r="1"></circle>
                        <circle id="Oval-Copy-256" fill-opacity="0.400000006" cx="10" cy="51" r="1"></circle>
                        <circle id="Oval-Copy-61" cx="9" cy="32" r="1"></circle>
                        <circle id="Oval-Copy-259" cx="22" cy="75" r="1"></circle>
                        <circle id="Oval-Copy-85" fill-opacity="0.400000006" cx="23" cy="38" r="1"></circle>
                        <circle id="Oval-Copy-6" fill-opacity="0.400000006" cx="17" cy="18" r="1"></circle>
                        <circle id="Oval-Copy-264" fill-opacity="0.400000006" cx="30" cy="61" r="1"></circle>
                        <circle id="Oval-Copy-14" cx="27" cy="22" r="1"></circle>
                        <circle id="Oval-Copy-267" cx="21" cy="51" r="1"></circle>
                        <circle id="Oval-Copy-46" cx="5" cy="30" r="1"></circle>
                        <circle id="Oval-Copy-269" cx="20" cy="72" r="1"></circle>
                        <circle id="Oval-Copy-62" fill-opacity="0.400000006" cx="13" cy="43" r="1"></circle>
                        <circle id="Oval-Copy-7" cx="17" cy="13" r="1"></circle>
                        <circle id="Oval-Copy-39" cx="1" cy="14" r="1"></circle>
                        <circle id="Oval-Copy-280" cx="14" cy="57" r="1"></circle>
                        <circle id="Oval-Copy-47" cx="14" cy="6" r="1"></circle>
                        <circle id="Oval-Copy-63" cx="13" cy="38" r="1"></circle>
                    </g>
                    <g id="Group-3-Copy-11" opacity="0.995527627" style="mix-blend-mode: lighten;" transform="translate(427.803080, 190.968698) rotate(-71.000000) translate(-427.803080, -190.968698) translate(412.303080, 150.968698)">
                        <circle id="Oval-Copy-196" fill-opacity="0.400000006" cx="13" cy="42" r="1"></circle>
                        <circle id="Oval-Copy-40" cx="6" cy="9" r="1"></circle>
                        <circle id="Oval-Copy-197" cx="19" cy="52" r="1"></circle>
                        <circle id="Oval-Copy-48" cx="20" cy="11" r="1"></circle>
                        <circle id="Oval-Copy" fill-opacity="0.400000006" cx="14" cy="2" r="1"></circle>
                        <circle id="Oval-Copy-209" cx="17" cy="56" r="1"></circle>
                        <circle id="Oval-Copy-81" fill-opacity="0.400000006" cx="24" cy="33" r="1"></circle>
                        <circle id="Oval-Copy-219" fill-opacity="0.6" cx="23" cy="38" r="1"></circle>
                        <circle id="Oval-Copy-220" fill-opacity="0.400000006" cx="16" cy="49" r="1"></circle>
                        <circle id="Oval-Copy-50" fill-opacity="0.6" cx="23" cy="18" r="1"></circle>
                        <circle id="Oval-Copy-223" cx="28" cy="73" r="1"></circle>
                        <circle id="Oval-Copy-224" fill-opacity="0.400000006" cx="15" cy="76" r="1"></circle>
                        <circle id="Oval-Copy-3" cx="12" cy="11" r="1"></circle>
                        <circle id="Oval-Copy-11" cx="22" cy="15" r="1"></circle>
                        <circle id="Oval-Copy-27" cx="3" cy="1" r="1"></circle>
                        <circle id="Oval-Copy-232" fill-opacity="0.400000006" cx="9" cy="55" r="1"></circle>
                        <circle id="Oval-Copy-51" fill-opacity="0.400000006" cx="16" cy="24" r="1"></circle>
                        <circle id="Oval-Copy-235" fill-opacity="0.400000006" cx="21" cy="79" r="1"></circle>
                        <circle id="Oval-Copy-83" cx="22" cy="42" r="1"></circle>
                        <circle id="Oval-Copy-4" fill-opacity="0.400000006" cx="7" cy="5" r="1"></circle>
                        <circle id="Oval-Copy-242" cx="24" cy="32" r="1"></circle>
                        <circle id="Oval-Copy-244" cx="4" cy="49" r="1"></circle>
                        <circle id="Oval-Copy-52" fill-opacity="0.6" cx="11" cy="18" r="1"></circle>
                        <circle id="Oval-Copy-247" cx="16" cy="73" r="1"></circle>
                        <circle id="Oval-Copy-84" cx="17" cy="36" r="1"></circle>
                        <circle id="Oval-Copy-255" fill-opacity="0.400000006" cx="17" cy="40" r="1"></circle>
                        <circle id="Oval-Copy-256" fill-opacity="0.400000006" cx="10" cy="51" r="1"></circle>
                        <circle id="Oval-Copy-61" cx="9" cy="32" r="1"></circle>
                        <circle id="Oval-Copy-259" cx="22" cy="75" r="1"></circle>
                        <circle id="Oval-Copy-85" fill-opacity="0.400000006" cx="23" cy="38" r="1"></circle>
                        <circle id="Oval-Copy-6" fill-opacity="0.400000006" cx="17" cy="18" r="1"></circle>
                        <circle id="Oval-Copy-264" fill-opacity="0.400000006" cx="30" cy="61" r="1"></circle>
                        <circle id="Oval-Copy-14" cx="27" cy="22" r="1"></circle>
                        <circle id="Oval-Copy-267" cx="21" cy="51" r="1"></circle>
                        <circle id="Oval-Copy-46" cx="5" cy="30" r="1"></circle>
                        <circle id="Oval-Copy-269" cx="20" cy="72" r="1"></circle>
                        <circle id="Oval-Copy-62" fill-opacity="0.400000006" cx="13" cy="43" r="1"></circle>
                        <circle id="Oval-Copy-7" cx="17" cy="13" r="1"></circle>
                        <circle id="Oval-Copy-39" cx="1" cy="14" r="1"></circle>
                        <circle id="Oval-Copy-280" cx="14" cy="57" r="1"></circle>
                        <circle id="Oval-Copy-47" cx="14" cy="6" r="1"></circle>
                        <circle id="Oval-Copy-63" cx="13" cy="38" r="1"></circle>
                    </g>
                    <g id="Group-Copy-42" opacity="0.847429801" transform="translate(243.529286, 165.820582) rotate(-219.000000) translate(-243.529286, -165.820582) translate(201.029286, 107.820582)">
                        <circle id="Oval-Copy-482" transform="translate(50.459302, 1.179352) rotate(7.000000) translate(-50.459302, -1.179352) " cx="50.4593018" cy="1.17935162" r="1"></circle>
                        <circle id="Oval-Copy-490" transform="translate(59.997357, 75.894115) rotate(7.000000) translate(-59.997357, -75.894115) " cx="59.9973566" cy="75.8941147" r="1"></circle>
                        <circle id="Oval-Copy-497" transform="translate(25.024489, 50.459302) rotate(7.000000) translate(-25.024489, -50.459302) " cx="25.0244888" cy="50.4593018" r="1"></circle>
                        <circle id="Oval-Copy-505" transform="translate(64.766384, 44.100599) rotate(7.000000) translate(-64.766384, -44.100599) " cx="64.7663841" cy="44.1005985" r="1"></circle>
                        <circle id="Oval-Copy-506" fill-opacity="0.6" transform="translate(55.228329, 12.307082) rotate(7.000000) translate(-55.228329, -12.307082) " cx="55.2283292" cy="12.3070823" r="1"></circle>
                        <circle id="Oval-Copy-508" fill-opacity="0.400000006" transform="translate(23.434813, 39.331571) rotate(7.000000) translate(-23.434813, -39.331571) " cx="23.434813" cy="39.3315711" r="1"></circle>
                        <circle id="Oval-Copy-510" fill-opacity="0.6" transform="translate(55.228329, 58.407681) rotate(7.000000) translate(-55.228329, -58.407681) " cx="55.2283292" cy="58.4076808" r="1"></circle>
                        <circle id="Oval-Copy-515" transform="translate(83.842494, 93.380549) rotate(7.000000) translate(-83.842494, -93.380549) " cx="83.8424938" cy="93.3805486" r="1"></circle>
                        <circle id="Oval-Copy-516" transform="translate(37.741895, 47.279950) rotate(7.000000) translate(-37.741895, -47.279950) " cx="37.7418953" cy="47.2799501" r="1"></circle>
                        <circle id="Oval-Copy-517" transform="translate(53.638653, 53.638653) rotate(7.000000) translate(-53.638653, -53.638653) " cx="53.6386534" cy="53.6386534" r="1"></circle>
                        <circle id="Oval-Copy-567" fill-opacity="0.400000006" transform="translate(31.383192, 34.562544) rotate(7.000000) translate(-31.383192, -34.562544) " cx="31.383192" cy="34.5625436" r="1"></circle>
                        <circle id="Oval-Copy-570" fill-opacity="0.400000006" transform="translate(52.048978, 71.125087) rotate(7.000000) translate(-52.048978, -71.125087) " cx="52.0489776" cy="71.1250873" r="1"></circle>
                    </g>
                    <g id="Group-Copy-45" opacity="0.487601902" transform="translate(377.228466, 273.163556) rotate(142.000000) translate(-377.228466, -273.163556) translate(323.228466, 188.663556)">
                        <circle id="Oval-Copy-482" transform="translate(64.107488, 1.968570) rotate(7.000000) translate(-64.107488, -1.968570) " cx="64.1074877" cy="1.96857045" r="1"></circle>
                        <circle id="Oval-Copy-490" transform="translate(76.125042, 111.510835) rotate(7.000000) translate(-76.125042, -111.510835) " cx="76.1250422" cy="111.510835" r="1"></circle>
                        <circle id="Oval-Copy-497" transform="translate(32.060676, 74.219852) rotate(7.000000) translate(-32.060676, -74.219852) " cx="32.0606757" cy="74.2198515" r="1"></circle>
                        <circle id="Oval-Copy-501" transform="translate(2.016789, 74.219852) rotate(7.000000) translate(-2.016789, -74.219852) " cx="2.01678942" cy="74.2198515" r="1"></circle>
                        <circle id="Oval-Copy-505" transform="translate(82.133819, 64.897106) rotate(7.000000) translate(-82.133819, -64.897106) " cx="82.1338194" cy="64.8971056" r="1"></circle>
                        <circle id="Oval-Copy-506" fill-opacity="0.6" transform="translate(70.116265, 18.283376) rotate(7.000000) translate(-70.116265, -18.283376) " cx="70.1162649" cy="18.2833759" r="1"></circle>
                        <circle id="Oval-Copy-508" fill-opacity="0.400000006" transform="translate(30.057750, 57.905046) rotate(7.000000) translate(-30.057750, -57.905046) " cx="30.0577499" cy="57.9050461" r="1"></circle>
                        <circle id="Oval-Copy-510" fill-opacity="0.6" transform="translate(70.116265, 85.873284) rotate(7.000000) translate(-70.116265, -85.873284) " cx="70.1162649" cy="85.873284" r="1"></circle>
                        <circle id="Oval-Copy-513" fill-opacity="0.400000006" transform="translate(12.031418, 81.211911) rotate(7.000000) translate(-12.031418, -81.211911) " cx="12.0314182" cy="81.211911" r="1"></circle>
                        <circle id="Oval-Copy-515" transform="translate(106.168928, 137.148387) rotate(7.000000) translate(-106.168928, -137.148387) " cx="106.168928" cy="137.148387" r="1"></circle>
                        <circle id="Oval-Copy-516" transform="translate(48.084082, 69.558479) rotate(7.000000) translate(-48.084082, -69.558479) " cx="48.0840817" cy="69.5584786" r="1"></circle>
                        <circle id="Oval-Copy-517" transform="translate(68.113339, 78.881225) rotate(7.000000) translate(-68.113339, -78.881225) " cx="68.1133392" cy="78.8812245" r="1"></circle>
                        <circle id="Oval-Copy-521" fill-opacity="0.6" transform="translate(28.054824, 95.196030) rotate(7.000000) translate(-28.054824, -95.196030) " cx="28.0548242" cy="95.1960299" r="1"></circle>
                        <circle id="Oval-Copy-523" fill-opacity="0.400000006" transform="translate(40.072379, 127.825641) rotate(7.000000) translate(-40.072379, -127.825641) " cx="40.0723787" cy="127.825641" r="1"></circle>
                        <circle id="Oval-Copy-536" transform="translate(4.019715, 120.833581) rotate(7.000000) translate(-4.019715, -120.833581) " cx="4.01971517" cy="120.833581" r="1"></circle>
                        <circle id="Oval-Copy-547" transform="translate(42.075304, 118.502895) rotate(7.000000) translate(-42.075304, -118.502895) " cx="42.0753044" cy="118.502895" r="1"></circle>
                        <circle id="Oval-Copy-559" fill-opacity="0.400000006" transform="translate(50.087007, 144.140446) rotate(7.000000) translate(-50.087007, -144.140446) " cx="50.0870074" cy="144.140446" r="1"></circle>
                        <circle id="Oval-Copy-560" transform="translate(24.048973, 151.132506) rotate(7.000000) translate(-24.048973, -151.132506) " cx="24.0489727" cy="151.132506" r="1"></circle>
                        <circle id="Oval-Copy-563" transform="translate(102.163077, 167.447311) rotate(7.000000) translate(-102.163077, -167.447311) " cx="102.163077" cy="167.447311" r="1"></circle>
                        <circle id="Oval-Copy-567" fill-opacity="0.400000006" transform="translate(40.072379, 50.912987) rotate(7.000000) translate(-40.072379, -50.912987) " cx="40.0723787" cy="50.9129867" r="1"></circle>
                        <circle id="Oval-Copy-570" fill-opacity="0.400000006" transform="translate(66.110413, 104.518776) rotate(7.000000) translate(-66.110413, -104.518776) " cx="66.1104134" cy="104.518776" r="1"></circle>
                        <circle id="Oval-Copy-572" fill-opacity="0.6" transform="translate(24.048973, 139.479073) rotate(7.000000) translate(-24.048973, -139.479073) " cx="24.0489727" cy="139.479073" r="1"></circle>
                        <circle id="Oval-Copy-573" transform="translate(8.025567, 99.857403) rotate(7.000000) translate(-8.025567, -99.857403) " cx="8.02556667" cy="99.8574029" r="1"></circle>
                        <circle id="Oval-Copy-574" fill-opacity="0.400000006" transform="translate(78.127968, 146.471133) rotate(7.000000) translate(-78.127968, -146.471133) " cx="78.1279679" cy="146.471133" r="1"></circle>
                    </g>
                    <g id="Group-Copy-43" opacity="0.796648551" transform="translate(288.445374, 200.778342) rotate(-145.000000) translate(-288.445374, -200.778342) translate(260.445374, 163.278342)">
                        <circle id="Oval-Copy-482" transform="translate(33.000000, 2.000000) rotate(7.000000) translate(-33.000000, -2.000000) " cx="33" cy="2" r="1"></circle>
                        <circle id="Oval-Copy-490" transform="translate(39.000000, 49.000000) rotate(7.000000) translate(-39.000000, -49.000000) " cx="39" cy="49" r="1"></circle>
                        <circle id="Oval-Copy-497" transform="translate(17.000000, 33.000000) rotate(7.000000) translate(-17.000000, -33.000000) " cx="17" cy="33" r="1"></circle>
                        <circle id="Oval-Copy-501" transform="translate(2.000000, 33.000000) rotate(7.000000) translate(-2.000000, -33.000000) " cx="2" cy="33" r="1"></circle>
                        <circle id="Oval-Copy-505" transform="translate(42.000000, 29.000000) rotate(7.000000) translate(-42.000000, -29.000000) " cx="42" cy="29" r="1"></circle>
                        <circle id="Oval-Copy-506" fill-opacity="0.6" transform="translate(36.000000, 9.000000) rotate(7.000000) translate(-36.000000, -9.000000) " cx="36" cy="9" r="1"></circle>
                        <circle id="Oval-Copy-508" fill-opacity="0.400000006" transform="translate(16.000000, 26.000000) rotate(7.000000) translate(-16.000000, -26.000000) " cx="16" cy="26" r="1"></circle>
                        <circle id="Oval-Copy-510" fill-opacity="0.6" transform="translate(36.000000, 38.000000) rotate(7.000000) translate(-36.000000, -38.000000) " cx="36" cy="38" r="1"></circle>
                        <circle id="Oval-Copy-513" fill-opacity="0.400000006" transform="translate(7.000000, 36.000000) rotate(7.000000) translate(-7.000000, -36.000000) " cx="7" cy="36" r="1"></circle>
                        <circle id="Oval-Copy-515" transform="translate(54.000000, 60.000000) rotate(7.000000) translate(-54.000000, -60.000000) " cx="54" cy="60" r="1"></circle>
                        <circle id="Oval-Copy-516" transform="translate(25.000000, 31.000000) rotate(7.000000) translate(-25.000000, -31.000000) " cx="25" cy="31" r="1"></circle>
                        <circle id="Oval-Copy-517" transform="translate(35.000000, 35.000000) rotate(7.000000) translate(-35.000000, -35.000000) " cx="35" cy="35" r="1"></circle>
                        <circle id="Oval-Copy-521" fill-opacity="0.6" transform="translate(15.000000, 42.000000) rotate(7.000000) translate(-15.000000, -42.000000) " cx="15" cy="42" r="1"></circle>
                        <circle id="Oval-Copy-523" fill-opacity="0.400000006" transform="translate(21.000000, 56.000000) rotate(7.000000) translate(-21.000000, -56.000000) " cx="21" cy="56" r="1"></circle>
                        <circle id="Oval-Copy-536" transform="translate(3.000000, 53.000000) rotate(7.000000) translate(-3.000000, -53.000000) " cx="3" cy="53" r="1"></circle>
                        <circle id="Oval-Copy-547" transform="translate(22.000000, 52.000000) rotate(7.000000) translate(-22.000000, -52.000000) " cx="22" cy="52" r="1"></circle>
                        <circle id="Oval-Copy-559" fill-opacity="0.400000006" transform="translate(26.000000, 63.000000) rotate(7.000000) translate(-26.000000, -63.000000) " cx="26" cy="63" r="1"></circle>
                        <circle id="Oval-Copy-560" transform="translate(13.000000, 66.000000) rotate(7.000000) translate(-13.000000, -66.000000) " cx="13" cy="66" r="1"></circle>
                        <circle id="Oval-Copy-563" transform="translate(52.000000, 73.000000) rotate(7.000000) translate(-52.000000, -73.000000) " cx="52" cy="73" r="1"></circle>
                        <circle id="Oval-Copy-567" fill-opacity="0.400000006" transform="translate(21.000000, 23.000000) rotate(7.000000) translate(-21.000000, -23.000000) " cx="21" cy="23" r="1"></circle>
                        <circle id="Oval-Copy-570" fill-opacity="0.400000006" transform="translate(34.000000, 46.000000) rotate(7.000000) translate(-34.000000, -46.000000) " cx="34" cy="46" r="1"></circle>
                        <circle id="Oval-Copy-572" fill-opacity="0.6" transform="translate(13.000000, 61.000000) rotate(7.000000) translate(-13.000000, -61.000000) " cx="13" cy="61" r="1"></circle>
                        <circle id="Oval-Copy-573" transform="translate(5.000000, 44.000000) rotate(7.000000) translate(-5.000000, -44.000000) " cx="5" cy="44" r="1"></circle>
                        <circle id="Oval-Copy-574" fill-opacity="0.400000006" transform="translate(40.000000, 64.000000) rotate(7.000000) translate(-40.000000, -64.000000) " cx="40" cy="64" r="1"></circle>
                    </g>
                    <g id="Group-Copy-41" opacity="0.487601902" transform="translate(112.494711, 122.598222) rotate(97.000000) translate(-112.494711, -122.598222) translate(1.494711, 23.598222)">
                        <circle id="Oval-Copy-482" transform="translate(131.865867, 1.431693) rotate(7.000000) translate(-131.865867, -1.431693) " cx="131.865867" cy="1.43169342" r="1"></circle>
                        <circle id="Oval-Copy-490" transform="translate(157.080417, 130.761386) rotate(7.000000) translate(-157.080417, -130.761386) " cx="157.080417" cy="130.761386" r="1"></circle>
                        <circle id="Oval-Copy-505" transform="translate(169.687692, 75.727474) rotate(7.000000) translate(-169.687692, -75.727474) " cx="169.687692" cy="75.7274742" r="1"></circle>
                        <circle id="Oval-Copy-506" fill-opacity="0.6" transform="translate(144.473142, 20.693563) rotate(7.000000) translate(-144.473142, -20.693563) " cx="144.473142" cy="20.6935625" r="1"></circle>
                        <circle id="Oval-Copy-510" fill-opacity="0.6" transform="translate(144.473142, 100.492734) rotate(7.000000) translate(-144.473142, -100.492734) " cx="144.473142" cy="100.492734" r="1"></circle>
                        <circle id="Oval-Copy-515" transform="translate(220.116794, 161.030037) rotate(7.000000) translate(-220.116794, -161.030037) " cx="220.116794" cy="161.030037" r="1"></circle>
                        <circle id="Oval-Copy-563" transform="translate(211.711943, 196.802080) rotate(7.000000) translate(-211.711943, -196.802080) " cx="211.711943" cy="196.80208" r="1"></circle>
                        <circle id="Oval-Copy-574" fill-opacity="0.400000006" transform="translate(161.282842, 172.036820) rotate(7.000000) translate(-161.282842, -172.036820) " cx="161.282842" cy="172.03682" r="1"></circle>
                    </g>
                    <g id="Group-Copy-44" opacity="0.513643569" transform="translate(435.421936, 227.536154) rotate(-39.000000) translate(-435.421936, -227.536154) translate(407.421936, 190.036154)">
                        <circle id="Oval-Copy-482" transform="translate(33.000000, 2.000000) rotate(7.000000) translate(-33.000000, -2.000000) " cx="33" cy="2" r="1"></circle>
                        <circle id="Oval-Copy-490" transform="translate(39.000000, 49.000000) rotate(7.000000) translate(-39.000000, -49.000000) " cx="39" cy="49" r="1"></circle>
                        <circle id="Oval-Copy-497" transform="translate(17.000000, 33.000000) rotate(7.000000) translate(-17.000000, -33.000000) " cx="17" cy="33" r="1"></circle>
                        <circle id="Oval-Copy-501" transform="translate(2.000000, 33.000000) rotate(7.000000) translate(-2.000000, -33.000000) " cx="2" cy="33" r="1"></circle>
                        <circle id="Oval-Copy-505" transform="translate(42.000000, 29.000000) rotate(7.000000) translate(-42.000000, -29.000000) " cx="42" cy="29" r="1"></circle>
                        <circle id="Oval-Copy-506" fill-opacity="0.6" transform="translate(36.000000, 9.000000) rotate(7.000000) translate(-36.000000, -9.000000) " cx="36" cy="9" r="1"></circle>
                        <circle id="Oval-Copy-508" fill-opacity="0.400000006" transform="translate(16.000000, 26.000000) rotate(7.000000) translate(-16.000000, -26.000000) " cx="16" cy="26" r="1"></circle>
                        <circle id="Oval-Copy-510" fill-opacity="0.6" transform="translate(36.000000, 38.000000) rotate(7.000000) translate(-36.000000, -38.000000) " cx="36" cy="38" r="1"></circle>
                        <circle id="Oval-Copy-513" fill-opacity="0.400000006" transform="translate(7.000000, 36.000000) rotate(7.000000) translate(-7.000000, -36.000000) " cx="7" cy="36" r="1"></circle>
                        <circle id="Oval-Copy-515" transform="translate(54.000000, 60.000000) rotate(7.000000) translate(-54.000000, -60.000000) " cx="54" cy="60" r="1"></circle>
                        <circle id="Oval-Copy-516" transform="translate(25.000000, 31.000000) rotate(7.000000) translate(-25.000000, -31.000000) " cx="25" cy="31" r="1"></circle>
                        <circle id="Oval-Copy-517" transform="translate(35.000000, 35.000000) rotate(7.000000) translate(-35.000000, -35.000000) " cx="35" cy="35" r="1"></circle>
                        <circle id="Oval-Copy-521" fill-opacity="0.6" transform="translate(15.000000, 42.000000) rotate(7.000000) translate(-15.000000, -42.000000) " cx="15" cy="42" r="1"></circle>
                        <circle id="Oval-Copy-523" fill-opacity="0.400000006" transform="translate(21.000000, 56.000000) rotate(7.000000) translate(-21.000000, -56.000000) " cx="21" cy="56" r="1"></circle>
                        <circle id="Oval-Copy-536" transform="translate(3.000000, 53.000000) rotate(7.000000) translate(-3.000000, -53.000000) " cx="3" cy="53" r="1"></circle>
                        <circle id="Oval-Copy-547" transform="translate(22.000000, 52.000000) rotate(7.000000) translate(-22.000000, -52.000000) " cx="22" cy="52" r="1"></circle>
                        <circle id="Oval-Copy-559" fill-opacity="0.400000006" transform="translate(26.000000, 63.000000) rotate(7.000000) translate(-26.000000, -63.000000) " cx="26" cy="63" r="1"></circle>
                        <circle id="Oval-Copy-560" transform="translate(13.000000, 66.000000) rotate(7.000000) translate(-13.000000, -66.000000) " cx="13" cy="66" r="1"></circle>
                        <circle id="Oval-Copy-563" transform="translate(52.000000, 73.000000) rotate(7.000000) translate(-52.000000, -73.000000) " cx="52" cy="73" r="1"></circle>
                        <circle id="Oval-Copy-567" fill-opacity="0.400000006" transform="translate(21.000000, 23.000000) rotate(7.000000) translate(-21.000000, -23.000000) " cx="21" cy="23" r="1"></circle>
                        <circle id="Oval-Copy-570" fill-opacity="0.400000006" transform="translate(34.000000, 46.000000) rotate(7.000000) translate(-34.000000, -46.000000) " cx="34" cy="46" r="1"></circle>
                        <circle id="Oval-Copy-572" fill-opacity="0.6" transform="translate(13.000000, 61.000000) rotate(7.000000) translate(-13.000000, -61.000000) " cx="13" cy="61" r="1"></circle>
                        <circle id="Oval-Copy-573" transform="translate(5.000000, 44.000000) rotate(7.000000) translate(-5.000000, -44.000000) " cx="5" cy="44" r="1"></circle>
                        <circle id="Oval-Copy-574" fill-opacity="0.400000006" transform="translate(40.000000, 64.000000) rotate(7.000000) translate(-40.000000, -64.000000) " cx="40" cy="64" r="1"></circle>
                    </g>
                </g>
            </g>
        </g>
    </g>
</svg>