<svg xmlns="http://www.w3.org/2000/svg" xmlns:xlink="http://www.w3.org/1999/xlink" width="699" height="228" viewBox="0 0 699 228">
  <defs>
    <rect id="styledodont00-b" width="691" height="220" rx="4"/>
    <filter id="styledodont00-a" width="102%" height="106.4%" x="-1%" y="-2.3%" filterUnits="objectBoundingBox">
      <feOffset dy="2" in="SourceAlpha" result="shadowOffsetOuter1"/>
      <feGaussianBlur in="shadowOffsetOuter1" result="shadowBlurOuter1" stdDeviation="2"/>
      <feColorMatrix in="shadowBlurOuter1" values="0 0 0 0 0   0 0 0 0 0   0 0 0 0 0  0 0 0 0.2 0"/>
    </filter>
  </defs>
  <g fill="none" fill-rule="evenodd" transform="translate(4 2)">
    <use fill="#000" filter="url(#styledodont00-a)" xlink:href="#styledodont00-b"/>
    <use fill="#FFF" xlink:href="#styledodont00-b"/>
    <g transform="translate(457 156)">
      <rect width="24" height="24"/>
      <path fill="#6A7070" fill-rule="nonzero" d="M17.9097583,16.4457485 L22.6967936,21.2327838 C23.1010688,21.637059 23.1010688,22.2925185 22.6967936,22.6967936 C22.2925185,23.1010688 21.637059,23.1010688 21.2327838,22.6967936 L16.4457485,17.9097583 C14.8180853,19.2175068 12.7504232,20 10.5,20 C5.25329488,20 1,15.7467051 1,10.5 C1,5.25329488 5.25329488,1 10.5,1 C15.7467051,1 20,5.25329488 20,10.5 C20,12.7504232 19.2175068,14.8180853 17.9097583,16.4457485 Z M10.5,17.9 C14.5869071,17.9 17.9,14.5869071 17.9,10.5 C17.9,6.41309285 14.5869071,3.1 10.5,3.1 C6.41309285,3.1 3.1,6.41309285 3.1,10.5 C3.1,14.5869071 6.41309285,17.9 10.5,17.9 Z"/>
    </g>
    <g transform="translate(505 156)">
      <rect width="24" height="24"/>
      <path fill="#6A7070" fill-rule="nonzero" d="M4 4L4 9 9 9 9 4 4 4zM2.5 2L10.5 2C10.7761424 2 11 2.22385763 11 2.5L11 10.5C11 10.7761424 10.7761424 11 10.5 11L2.5 11C2.22385763 11 2 10.7761424 2 10.5L2 2.5C2 2.22385763 2.22385763 2 2.5 2zM4 15L4 20 9 20 9 15 4 15zM2.5 13L10.5 13C10.7761424 13 11 13.2238576 11 13.5L11 21.5C11 21.7761424 10.7761424 22 10.5 22L2.5 22C2.22385763 22 2 21.7761424 2 21.5L2 13.5C2 13.2238576 2.22385763 13 2.5 13zM15 4L15 9 20 9 20 4 15 4zM13.5 2L21.5 2C21.7761424 2 22 2.22385763 22 2.5L22 10.5C22 10.7761424 21.7761424 11 21.5 11L13.5 11C13.2238576 11 13 10.7761424 13 10.5L13 2.5C13 2.22385763 13.2238576 2 13.5 2zM15 15L15 20 20 20 20 15 15 15zM13.5 13L21.5 13C21.7761424 13 22 13.2238576 22 13.5L22 21.5C22 21.7761424 21.7761424 22 21.5 22L13.5 22C13.2238576 22 13 21.7761424 13 21.5L13 13.5C13 13.2238576 13.2238576 13 13.5 13z"/>
    </g>
    <g transform="translate(553 156)">
      <rect width="24" height="24"/>
      <path fill="#6A7070" fill-rule="nonzero" d="M12,24 C5.372583,24 0,18.627417 0,12 C0,5.372583 5.372583,0 12,0 C18.627417,0 24,5.372583 24,12 C24,18.627417 18.627417,24 12,24 Z M9.5,9 C9.77614237,9 10,8.77614237 10,8.5 C10,7.67157288 10.6715729,7 11.5,7 L13.5,7 C14.3284271,7 15,7.67157288 15,8.5 L15,8.96514743 C15,9.66379825 14.5023959,10.2633745 13.8157115,10.3921278 C12.1830812,10.698246 11,12.1237716 11,13.7848526 L11,14.5 C11,14.7761424 11.2238576,15 11.5,15 L12.5,15 C12.7761424,15 13,14.7761424 13,14.5 L13,13.7848526 C13,13.0862017 13.4976041,12.4866255 14.1842885,12.3578722 C15.8169188,12.051754 17,10.6262284 17,8.96514743 L17,8.5 C17,6.56700338 15.4329966,5 13.5,5 L11.5,5 C9.56700338,5 8,6.56700338 8,8.5 C8,8.77614237 8.22385763,9 8.5,9 L9.5,9 Z M11.5,17 C11.2238576,17 11,17.2238576 11,17.5 L11,18.5 C11,18.7761424 11.2238576,19 11.5,19 L12.5,19 C12.7761424,19 13,18.7761424 13,18.5 L13,17.5 C13,17.2238576 12.7761424,17 12.5,17 L11.5,17 Z"/>
    </g>
    <g transform="translate(112 156)">
      <rect width="24" height="24"/>
      <path fill="#6A7070" fill-rule="nonzero" d="M4,13 L1.00205545,13 C0.449683381,13 0.00189734345,12.5534636 0.00189734345,12.002633 C0.00189734345,11.7320087 0.112177131,11.4730024 0.307430113,11.2850496 L10.2653335,1.6994592 C11.2341693,0.766846935 12.7696244,0.766846935 13.7384602,1.6994592 L23.6963636,11.2850496 C24.093783,11.66761 24.1049607,12.2990095 23.7213297,12.6953199 C23.532851,12.890028 23.2731198,13 23.0017383,13 L20,13 L20,21.5 C20,21.7761424 19.7761424,22 19.5,22 L14.5,22 C14.2238576,22 14,21.7761424 14,21.5 L14,17 C14,15.8954305 13.1045695,15 12,15 C10.8954305,15 10,15.8954305 10,17 L10,21.5 C10,21.7761424 9.77614237,22 9.5,22 L4.5,22 C4.22385763,22 4,21.7761424 4,21.5 L4,13 Z"/>
    </g>
    <g transform="translate(161 156)">
      <rect width="24" height="24"/>
      <path fill="#6A7070" d="M9,14.3069995 L8.99995757,13.2901693 C8.99995757,13.1071243 8.93301329,12.930399 8.81173887,12.7932932 C7.27057962,11.0509491 6.5,8.8976291 6.5,6.33333333 C6.5,3.2666626 8.66666667,1 12,1 C15.3333333,1 17.5,3.2666626 17.5,6.33333333 C17.5,8.89765622 16.7294041,11.0509946 15.1882122,12.7933485 L15.1882279,12.7933624 C15.0669477,12.9304726 15,13.1072048 15,13.290257 L15,14.3069995 C15,14.7238441 15.2585728,15.0969648 15.6488766,15.2433287 L20.6591771,17.1221914 C22.0671982,17.6501993 23,18.9962328 23,20.5 L23,22 C23,22.5522847 22.5522847,23 22,23 L2,23 C1.44771525,23 1,22.5522847 1,22 L1,20.5 C1,18.9962328 1.9328018,17.6501993 3.34082294,17.1221914 L8.35112344,15.2433287 C8.74142717,15.0969648 9,14.7238441 9,14.3069995 Z"/>
    </g>
    <g transform="translate(209 156)">
      <rect width="24" height="24"/>
      <path fill="#6A7070" d="M14,3.25203497 C17.4504544,4.14012056 20,7.27232114 20,11 L20,15.4188612 C20,16.3631019 20.6042146,17.2014049 21.5,17.5 L21.6324555,17.5441518 C22.4491398,17.8163799 23,18.5806576 23,19.4415184 L23,20 C23,20.5522847 22.5522847,21 22,21 L14.8292943,21 C14.4174579,22.1651924 13.3062188,23 12,23 C10.6937812,23 9.58254212,22.1651924 9.17070571,21 L2,21 C1.44771525,21 1,20.5522847 1,20 L1,19.4415184 C1,18.5806576 1.55086019,17.8163799 2.36754447,17.5441518 L2.5,17.5 C3.39578544,17.2014049 4,16.3631019 4,15.4188612 L4,11 C4,7.27232114 6.54954557,4.14012056 10,3.25203497 L10,3 C10,1.8954305 10.8954305,1 12,1 C13.1045695,1 14,1.8954305 14,3 L14,3.25203497 Z"/>
    </g>
    <g transform="translate(376 24)">
      <circle cx="14" cy="14" r="14" fill="#DB0020" opacity=".2" transform="rotate(90 14 14)"/>
      <circle cx="14" cy="14" r="10" fill="#C94543" transform="rotate(90 14 14)"/>
      <path fill="#FFF" stroke="#FFF" stroke-linecap="round" stroke-linejoin="round" stroke-width=".5" d="M14.9395638,13.9999167 L17.8055041,11.133857 C18.064832,10.8745182 18.064832,10.4538428 17.8055041,10.1945041 C17.5461761,9.93516532 17.1255182,9.93516532 16.8661903,10.1945041 L14.00025,13.0605638 L11.1343097,10.1945041 C10.8749818,9.93516532 10.4543239,9.93516532 10.1949959,10.1945041 C9.93500135,10.4538428 9.93500135,10.8745182 10.1949959,11.133857 L13.0609362,13.9999167 L10.1949959,16.8659764 C9.93500135,17.1253151 9.93500135,17.5459905 10.1949959,17.8053293 C10.3243266,17.935332 10.494323,18 10.6643195,18 C10.834316,18 11.0043124,17.935332 11.1343097,17.8053293 L14.00025,14.9392696 L16.8661903,17.8053293 C16.9955209,17.935332 17.1655174,18 17.3355138,18 C17.5055103,18 17.6755068,17.935332 17.8055041,17.8053293 C18.064832,17.5459905 18.064832,17.1253151 17.8055041,16.8659764 L14.9395638,13.9999167 Z"/>
    </g>
    <path stroke="#E9E9E9" stroke-linecap="square" d="M345.5.5L345.5 219.5M32.5 69L311.5 69M376 68.25L659 68.25"/>
    <text fill="#6A7070" font-family="OpenSans, Open Sans" font-size="14">
      <tspan x="32" y="99">Use the same style of icons together.</tspan>
    </text>
    <text fill="#252525" font-family="OpenSans, Open Sans" font-size="14">
      <tspan x="68" y="43">Do</tspan>
    </text>
    <text fill="#252525" font-family="OpenSans, Open Sans" font-size="14">
      <tspan x="412" y="43">Don’t</tspan>
    </text>
    <g transform="translate(32 24)">
      <rect width="24" height="24" x="2" y="2" transform="rotate(90 14 14)"/>
      <circle cx="14" cy="14" r="14" fill="#038238" opacity=".2" transform="rotate(90 14 14)"/>
      <circle cx="14" cy="14" r="10" fill="#038238" transform="rotate(90 14 14)"/>
      <path fill="#FFF" d="M18.2794817,16.7695408 L17.3207926,17.7087458 L15.2758562,19.6980554 C15.070032,19.8996965 14.8008772,20 14.5317225,20 C14.2625677,20 13.993413,19.8996965 13.7886443,19.6980554 C13.3769958,19.2958072 13.3769958,18.6433172 13.7886443,18.241069 L15.8335807,16.2517595 L9.80873633,10.7586724 C9.39708789,10.3564243 9.39708789,9.7039343 9.80873633,9.30168613 C10.2193293,8.89943796 10.8853553,8.89943796 11.2959483,9.30168613 L17.3207926,14.7947732 L18.2794817,15.7339783 C18.5756277,16.0241054 18.5713768,16.4835781 18.2794817,16.7695408 Z" transform="rotate(90 14 14.5)"/>
    </g>
    <text fill="#6A7070" font-family="OpenSans, Open Sans" font-size="14">
      <tspan x="376" y="99">Mix filled icons with outline icons.</tspan>
    </text>
  </g>
</svg>
