<svg xmlns="http://www.w3.org/2000/svg" width="120" height="120" viewBox="0 0 120 120">
  <g fill="none" fill-rule="evenodd">
    <circle cx="60" cy="60" r="60" fill="#ABDC3B" fill-rule="nonzero" opacity=".1"/>
    <g transform="translate(14 33)">
      <path fill="#E9E9E9" d="M84.5605071,22.9330188 C85.4904456,22.5627025 86.384882,22.4531724 87.2284501,22.5220199 C87.8346322,22.5715693 88.3454359,22.0802483 88.3454359,21.482005 L88.3454359,15.4578461 C88.3454359,14.3056932 87.3964219,13.3752084 86.2259182,13.3752084 L78.9517333,13.3752084 C78.2761371,13.3752084 77.7637436,12.7592316 77.9189983,12.1119605 C78.1023366,11.3442063 78.1346592,10.5185575 77.973046,9.66370066 C77.4919155,7.11164792 75.3019238,5.12706573 72.6784907,4.86575806 C69.0678922,4.50587325 66.023205,7.28637461 66.023205,10.7673474 C66.023205,11.2357192 66.0793722,11.6905302 66.1853481,12.1270861 C66.3406028,12.7675768 65.8133728,13.3752084 65.144135,13.3752084 L57.875249,13.3752084 C56.7042154,13.3752084 55.7557312,14.3093442 55.7557312,15.4614971 L55.7557312,21.4809618 C55.7557312,22.0792051 56.266535,22.5710477 56.8721872,22.5220199 C57.6272654,22.4604744 58.4236742,22.5418397 59.2492263,22.8250534 C61.5833452,23.6256667 63.2651826,25.7542028 63.3669194,28.1842076 C63.5089271,31.57547 60.758323,34.3684891 57.3453695,34.3684891 C57.2044216,34.3684891 57.0645334,34.3632734 56.9272946,34.3533635 C56.2988576,34.3085083 55.7557312,34.7695781 55.7557312,35.3892059 L55.7557312,41.4133647 C55.7557312,42.5655177 56.7042154,43.4960025 57.875249,43.4960025 L65.1483741,43.4960025 C65.8245002,43.4960025 66.3368936,44.1114577 66.181639,44.7587288 C65.9977708,45.5270046 65.9654482,46.3526534 66.1275913,47.2085534 C66.6092517,49.7606061 68.8003031,51.7451883 71.4237362,52.0054528 C75.0338048,52.3637729 78.0779621,49.5837931 78.0779621,46.1038635 C78.0779621,45.6349701 78.0207352,45.1801591 77.9152892,44.7436032 C77.7600345,44.1031125 78.2872645,43.4960025 78.9565023,43.4960025 L86.2259182,43.4960025 C87.3964219,43.4960025 88.3454359,42.5618667 88.3454359,41.4097137 L88.3454359,35.8622719 C88.3454359,35.0157602 87.6322182,34.3658813 86.7722239,34.3684891 L86.7557976,34.3684891 C83.2018963,34.3684891 80.3665114,31.3412841 80.7660405,27.7632989 C81.0071357,25.6008606 82.5119933,23.7487577 84.5605071,22.9330188" transform="rotate(12 72.05 28.435)"/>
      <path stroke="#6A7070" stroke-linecap="round" stroke-linejoin="round" stroke-width="1.5" d="M77.1815766,10.376897 C77.3898192,9.50900088 77.4030662,8.56756308 77.1635607,7.59274465 C76.6087769,5.34059592 74.7028006,3.58237606 72.3824586,3.1896322 C68.5821632,2.54653369 65.2857833,5.4104866 65.2857833,9.03176233 C65.2857833,9.50065573 65.3419505,9.95546668 65.4479264,10.3920226 C65.6031811,11.0325133 65.075951,11.6396233 64.4072432,11.6396233 L57.1378272,11.6396233 C55.9667937,11.6396233 55.0183095,12.5737591 55.0183095,13.7259121 L55.0183095,18.7011892 C55.0183095,19.7876241 55.8629373,20.7097637 56.9645567,20.7786112 C57.4658226,20.809384 57.9829849,20.9079611 58.5123345,21.0899898 C60.8459235,21.8900816 62.5277608,24.0186177 62.6294977,26.4491441 C62.7720353,29.8398849 60.0209012,32.632904 56.6079478,32.632904 C56.4669999,32.632904 56.3276416,32.6282099 56.1898729,32.6183 C55.5614359,32.5729232 55.0183095,33.0345146 55.0183095,33.6541424 L55.0183095,39.6777796 C55.0183095,40.8299326 55.9667937,41.7604174 57.1378272,41.7604174 L64.4109523,41.7604174 C65.0870785,41.7604174 65.6000018,42.3763942 65.4447471,43.0236653 C65.2603491,43.7919411 65.2280264,44.6175899 65.3901695,45.4734898 C65.8718299,48.025021 68.0628814,50.0096032 70.6863145,50.2703893 C74.2969129,50.6287094 77.3405404,47.848208 77.3405404,44.3682784 C77.3405404,43.8999065 77.2833134,43.4450956 77.1778674,43.0085397 C77.0226128,42.368049 77.5498428,41.7604174 78.2190805,41.7604174 L85.4884965,41.7604174 C86.6590001,41.7604174 87.6080142,40.8262816 87.6080142,39.6741286 L87.6080142,34.1272084 C87.6080142,33.2801751 86.8947965,32.6308177 86.0348022,32.632904 L86.0183759,32.632904 C82.4644745,32.632904 79.6290897,29.605699 80.0286188,26.0282354 C80.2697139,23.8657971 81.7745715,22.0136942 83.8230854,21.1979553 C84.7530238,20.8271175 85.6479902,20.7181089 86.4910284,20.7864348" transform="rotate(12 71.313 26.7)"/>
      <path fill="#ABDC3B" d="M34.8471646,43.6141466 C35.5285896,44.339132 35.9493138,45.1240981 36.1829907,45.9247114 C36.3509624,46.499484 36.9984751,46.795737 37.5670357,46.5839787 C39.0247341,46.0399789 40.5417789,45.4740731 42.2988591,44.8195 C43.39359,44.4111089 43.9409555,43.2078419 43.5265897,42.1302737 L40.9497861,35.4348515 C40.7097507,34.8126159 41.1135188,34.1230974 41.7832864,34.0365165 C42.5781056,33.9337667 43.3739845,33.6708944 44.1290627,33.2192128 C46.3831698,31.8719919 47.4922074,29.153036 46.8107825,26.6458385 C45.8734258,23.1945953 42.1526124,21.3769162 38.8461647,22.6099129 C38.401066,22.7762944 37.9893497,22.9896174 37.6120755,23.2415368 C37.0583515,23.6113315 36.2942653,23.3411571 36.0574092,22.7257019 L33.4821952,16.0344522 C33.0672996,14.9568841 31.843808,14.414449 30.7490771,14.8223185 L26.0214928,16.585754 C25.4529321,16.7975124 25.1662673,17.4421756 25.4280278,17.9820028 C25.7539036,18.6553525 25.958967,19.4173695 25.9828116,20.2779636 C26.0490465,22.7095332 24.4350337,24.5240828 22.161851,25.4790815 C18.9905225,26.8111769 15.5505453,25.7565579 14.3413604,22.614607 C14.2910218,22.4852571 14.246512,22.3548641 14.2073009,22.224471 C14.0276718,21.6309219 13.3971152,21.2934647 12.8078893,21.5130465 C11.350191,22.0565248 9.83314616,22.6224306 8.07659583,23.2775253 C6.98133504,23.6859163 6.43396959,24.8891833 6.84833531,25.9667515 L9.42513899,32.6616522 C9.66517438,33.2838878 9.26140625,33.9739278 8.59163864,34.0605088 C7.79628961,34.1632585 7.0004107,34.4261309 6.24480263,34.8778124 C3.99175528,36.2255549 2.88218774,38.9455539 3.56467245,41.453273 C4.50308893,44.9029515 8.22284256,46.7195875 11.5287603,45.4865908 C11.9738591,45.3207308 12.3855754,45.1074078 12.7628496,44.8554884 C13.3165736,44.4851722 14.0806597,44.7553466 14.3175158,45.3713233 L16.8927299,52.062573 C17.3076255,53.1401411 18.5311171,53.6830978 19.625848,53.2747068 L24.3534323,51.5117928 C24.9421283,51.2922109 25.1890522,50.6282495 24.9235826,50.0670378 C24.8652958,49.9429036 24.8112481,49.8161616 24.7614395,49.6862901 C23.501916,46.4149893 25.3734502,42.7326896 28.9141046,41.832456 C31.0537577,41.2889778 33.3465461,42.0176141 34.8471646,43.6141466" transform="rotate(7 25.187 34.049)"/>
      <path stroke="#6A7070" stroke-linecap="round" stroke-linejoin="round" stroke-width="1.5" d="M10.579614,44.0660399 C7.16189162,45.3402408 3.3027797,43.3561801 2.53021549,39.678053 C2.01252328,37.214146 3.11096335,34.7637999 5.29618614,33.4572615 C5.88382243,33.1057219 6.49583318,32.8689281 7.11261284,32.7322762 C8.05579823,32.5236473 8.59362586,31.546221 8.25079386,30.6564188 C7.57042867,28.8888107 6.57584497,26.3044205 5.89759929,24.5409849 C5.48323358,23.465503 6.03430819,22.2648438 7.12691958,21.8569744 L11.34423,20.2844342 C12.161834,19.9793145 13.0832943,20.3887487 13.392214,21.1940561 C14.7661914,24.7652609 19.0227129,25.6394159 22.4907738,23.3778789 C24.1265116,22.3112638 25.1571271,20.5264437 25.0204182,18.5992345 C24.9785577,18.0020343 24.8476775,17.4543835 24.6500325,16.9526311 C24.3421725,16.1702728 24.7867414,15.2710823 25.58368,14.9737862 C26.8198888,14.5127163 28.5011962,13.8857866 29.8009905,13.401246 C30.8957214,12.992855 32.1176233,13.5358116 32.5330488,14.6133798 L35.1082629,21.3046294 C35.345119,21.9206062 36.1092051,22.1907806 36.6629291,21.8209859 C37.0402033,21.5690665 37.4519196,21.3557435 37.8970183,21.189362 C41.3152706,19.9146395 45.1749124,21.8997433 45.9469467,25.5789135 C46.464109,28.0428206 45.3640793,30.4926452 43.1793864,31.7986619 C42.4243082,32.2498219 41.6289592,32.5132158 40.83414,32.615444 C40.1643724,32.702025 39.7595445,33.3899787 39.99905,34.0122143 C40.6656384,35.7433124 41.8154767,38.7313995 42.5742641,40.7018993 C42.9907493,41.7841616 42.4333162,42.994209 41.3338163,43.4041648 C39.9767951,43.9106114 38.7623114,44.3633361 37.6077042,44.7941547 C36.5760289,45.1785534 35.5072621,45.081541 34.9482393,43.737971 C34.9482393,43.737971 32.8790601,38.9499383 27.9649582,40.4119051 C24.1037268,41.5609287 22.5527697,44.9944384 23.8122931,48.2657392" transform="rotate(7 24.238 30.766)"/>
    </g>
  </g>
</svg>
