<svg xmlns="http://www.w3.org/2000/svg" xmlns:xlink="http://www.w3.org/1999/xlink" width="699" height="228" viewBox="0 0 699 228">
  <defs>
    <rect id="styledodont01-b" width="691" height="220" rx="4"/>
    <filter id="styledodont01-a" width="102%" height="106.4%" x="-1%" y="-2.3%" filterUnits="objectBoundingBox">
      <feOffset dy="2" in="SourceAlpha" result="shadowOffsetOuter1"/>
      <feGaussianBlur in="shadowOffsetOuter1" result="shadowBlurOuter1" stdDeviation="2"/>
      <feColorMatrix in="shadowBlurOuter1" values="0 0 0 0 0   0 0 0 0 0   0 0 0 0 0  0 0 0 0.2 0"/>
    </filter>
  </defs>
  <g fill="none" fill-rule="evenodd" transform="translate(4 2)">
    <use fill="#000" filter="url(#styledodont01-a)" xlink:href="#styledodont01-b"/>
    <use fill="#FFF" xlink:href="#styledodont01-b"/>
    <g transform="translate(160 156)">
      <rect width="24" height="24"/>
      <path fill="#6A7070" fill-rule="nonzero" d="M12,24 C5.372583,24 0,18.627417 0,12 C0,5.372583 5.372583,0 12,0 C18.627417,0 24,5.372583 24,12 C24,18.627417 18.627417,24 12,24 Z M10.8333333,17.3333333 C10.4651435,17.3333333 10.1666667,17.6318102 10.1666667,18 L10.1666667,19 C10.1666667,19.3681898 10.4651435,19.6666667 10.8333333,19.6666667 L11.8333333,19.6666667 C12.2015232,19.6666667 12.5,19.3681898 12.5,19 L12.5,18 C12.5,17.6318102 12.2015232,17.3333333 11.8333333,17.3333333 L10.8333333,17.3333333 Z M8.99940636,9.33771373 C9.36758207,9.34093936 9.66866234,9.04508887 9.67188797,8.67691317 L9.67328998,8.51688647 C9.71147118,8.07654788 10.148232,7.67333221 10.6730563,7.67333221 L12.9266675,7.67333221 C13.7072303,7.67333221 14.3400014,8.30610335 14.3400014,9.08666611 L14.3400014,9.5468652 C14.3400014,10.2085108 13.8658346,10.7750418 13.2145309,10.8915689 C11.4507485,11.2071333 10.1666667,12.7413447 10.1666667,14.5331341 L10.1666667,15.3333333 C10.1666667,15.7015232 10.4651435,16 10.8333333,16 L11.8333333,16 C12.2015232,16 12.5,15.7015232 12.5,15.3333333 L12.5,14.5331341 C12.5,13.8714884 12.9741669,13.3049575 13.6254705,13.1884304 C15.3892529,12.8728659 16.6733348,11.3386546 16.6733348,9.5468652 L16.6733348,9.08666611 C16.6733348,7.01743894 14.9958947,5.33999888 12.9266675,5.33999888 L10.6730563,5.33999888 C8.931723,5.33999888 7.48257865,6.6778425 7.34371687,8.41363028 L7.3408062,8.65649027 C7.33758056,9.02466598 7.63343105,9.32574625 8.00160675,9.32897188 L8.99940636,9.33771373 Z"/>
    </g>
    <g transform="translate(376 24)">
      <circle cx="14" cy="14" r="14" fill="#DB0020" opacity=".2" transform="rotate(90 14 14)"/>
      <circle cx="14" cy="14" r="10" fill="#C94543" transform="rotate(90 14 14)"/>
      <path fill="#FFF" stroke="#FFF" stroke-linecap="round" stroke-linejoin="round" stroke-width=".5" d="M14.9395638,13.9999167 L17.8055041,11.133857 C18.064832,10.8745182 18.064832,10.4538428 17.8055041,10.1945041 C17.5461761,9.93516532 17.1255182,9.93516532 16.8661903,10.1945041 L14.00025,13.0605638 L11.1343097,10.1945041 C10.8749818,9.93516532 10.4543239,9.93516532 10.1949959,10.1945041 C9.93500135,10.4538428 9.93500135,10.8745182 10.1949959,11.133857 L13.0609362,13.9999167 L10.1949959,16.8659764 C9.93500135,17.1253151 9.93500135,17.5459905 10.1949959,17.8053293 C10.3243266,17.935332 10.494323,18 10.6643195,18 C10.834316,18 11.0043124,17.935332 11.1343097,17.8053293 L14.00025,14.9392696 L16.8661903,17.8053293 C16.9955209,17.935332 17.1655174,18 17.3355138,18 C17.5055103,18 17.6755068,17.935332 17.8055041,17.8053293 C18.064832,17.5459905 18.064832,17.1253151 17.8055041,16.8659764 L14.9395638,13.9999167 Z"/>
    </g>
    <path stroke="#E9E9E9" stroke-linecap="square" d="M345.5.5L345.5 219.5M32.5 69L311.5 69M376 68.25L659 68.25"/>
    <text fill="#6A7070" font-family="OpenSans, Open Sans" font-size="14">
      <tspan x="32" y="99">Use icons that are clear about the action </tspan> <tspan x="32" y="119">that it represents, like the “help” icon.</tspan>
    </text>
    <text fill="#252525" font-family="OpenSans, Open Sans" font-size="14">
      <tspan x="68" y="43">Do</tspan>
    </text>
    <text fill="#252525" font-family="OpenSans, Open Sans" font-size="14">
      <tspan x="412" y="43">Don’t</tspan>
    </text>
    <g transform="translate(32 24)">
      <rect width="24" height="24" x="2" y="2" transform="rotate(90 14 14)"/>
      <circle cx="14" cy="14" r="14" fill="#038238" opacity=".2" transform="rotate(90 14 14)"/>
      <circle cx="14" cy="14" r="10" fill="#038238" transform="rotate(90 14 14)"/>
      <path fill="#FFF" d="M18.2794817,16.7695408 L17.3207926,17.7087458 L15.2758562,19.6980554 C15.070032,19.8996965 14.8008772,20 14.5317225,20 C14.2625677,20 13.993413,19.8996965 13.7886443,19.6980554 C13.3769958,19.2958072 13.3769958,18.6433172 13.7886443,18.241069 L15.8335807,16.2517595 L9.80873633,10.7586724 C9.39708789,10.3564243 9.39708789,9.7039343 9.80873633,9.30168613 C10.2193293,8.89943796 10.8853553,8.89943796 11.2959483,9.30168613 L17.3207926,14.7947732 L18.2794817,15.7339783 C18.5756277,16.0241054 18.5713768,16.4835781 18.2794817,16.7695408 Z" transform="rotate(90 14 14.5)"/>
    </g>
    <text fill="#6A7070" font-family="OpenSans, Open Sans" font-size="14">
      <tspan x="376" y="99">Use icons that are abstract and not </tspan> <tspan x="376" y="119">meaningful to the user.</tspan>
    </text>
    <path fill="#6A7070" fill-rule="nonzero" d="M529,168.032858 C529,166.368951 528.650954,164.784329 528.023317,163.345239 C528.574046,162.564901 528.876032,161.640094 528.876032,160.677774 C528.876032,158.09864 526.754866,156 524.148315,156 C523.105749,156 522.117234,156.337091 521.300015,156.951412 C519.964067,156.441917 518.515177,156.160165 517.000134,156.160165 C515.496924,156.160165 514.058791,156.437394 512.731986,156.938907 C511.920951,156.340284 510.944806,156.012239 509.919181,156.012239 C507.312362,156.012239 505.191195,158.110878 505.191195,160.690013 C505.191195,161.624663 505.477585,162.527653 506.000347,163.294157 C505.358189,164.746816 505,166.348731 505,168.032858 C505,169.701021 505.351197,171.289634 505.981793,172.731651 C505.471131,173.492833 505.191195,174.386777 505.191195,175.310253 C505.191195,177.889388 507.312093,179.988028 509.919181,179.988028 C510.916839,179.988028 511.87201,179.674615 512.672288,179.103129 C514.016034,179.61901 515.474605,179.905551 517.000134,179.905551 C518.537765,179.905551 520.007361,179.614753 521.359444,179.090891 C522.166176,179.678074 523.134523,180 524.148315,180 C526.754866,180 528.876032,177.901626 528.876032,175.322492 C528.876032,174.371346 528.5805,173.455053 528.041334,172.680302 C528.658215,171.25212 529,169.681067 529,168.032858 Z M506.840424,169.712727 L511.30676,169.712727 C511.878733,171.605707 513.388665,173.099338 515.301964,173.664971 L515.301964,178.08414 C510.979764,177.371645 507.560835,173.989291 506.840424,169.712727 Z M515.301964,157.981044 L515.301964,162.399681 C513.388665,162.965313 511.878464,164.459477 511.30676,166.352456 L506.840424,166.352456 C507.560835,162.076158 510.979764,158.693538 515.301964,157.981044 Z M527.159576,166.352722 L522.69324,166.352722 C522.121536,164.459743 520.611603,162.966111 518.698305,162.399947 L518.698305,157.981044 C523.020504,158.693538 526.439433,162.076158 527.159576,166.352722 Z M517.000134,172.232798 C514.659268,172.232798 512.754843,170.348598 512.754843,168.032592 C512.754843,165.716585 514.659268,163.832386 517.000134,163.832386 C519.341001,163.832386 521.245426,165.716585 521.245426,168.032592 C521.245426,170.348598 519.341001,172.232798 517.000134,172.232798 Z M518.698036,173.665237 C520.611335,173.099604 522.121267,171.605973 522.692971,169.712993 L527.159038,169.712993 C526.438896,173.989291 523.019967,177.371645 518.697767,178.08414 L518.697767,173.665237 L518.698036,173.665237 Z M524.148315,157.336393 C526.010521,157.336393 527.525563,158.835079 527.525563,160.677508 C527.525563,161.106389 527.438167,161.523829 527.279779,161.913865 C526.187195,160.123848 524.630741,158.641658 522.776603,157.629585 C523.203633,157.441219 523.666965,157.336393 524.148315,157.336393 Z M506.541933,160.689747 C506.541933,158.847318 508.056975,157.348631 509.918912,157.348631 C510.380363,157.348631 510.826485,157.445741 511.24007,157.620539 C509.399646,158.620905 507.852066,160.084472 506.758137,161.85214 C506.619111,161.483122 506.541933,161.091224 506.541933,160.689747 Z M509.918912,178.651635 C508.056975,178.651635 506.541933,177.152682 506.541933,175.309987 C506.541933,174.923942 506.613195,174.545878 506.742541,174.188566 C507.823561,175.945592 509.3542,177.401975 511.173111,178.406598 C510.777813,178.564369 510.354547,178.651635 509.918912,178.651635 Z M527.525563,175.322226 C527.525563,177.164389 526.010521,178.663607 524.148315,178.663607 C523.692781,178.663607 523.252036,178.568892 522.842755,178.397818 C524.676456,177.381489 526.215162,175.904619 527.295645,174.124181 C527.443277,174.503309 527.525563,174.907712 527.525563,175.322226 Z"/>
  </g>
</svg>
