<svg xmlns="http://www.w3.org/2000/svg" width="748" height="72" viewBox="0 0 748 72">
  <g fill="none" fill-rule="evenodd">
    <rect width="748" height="72" fill="#FFF"/>
    <g transform="translate(690 27)">
      <rect width="18" height="18"/>
      <path fill="#6A7070" fill-rule="nonzero" d="M9,18 C4.02943725,18 0,13.9705627 0,9 C0,4.02943725 4.02943725,0 9,0 C13.9705627,0 18,4.02943725 18,9 C18,13.9705627 13.9705627,18 9,18 Z M8.625,13 C8.34885763,13 8.125,13.2238576 8.125,13.5 L8.125,14.25 C8.125,14.5261424 8.34885763,14.75 8.625,14.75 L9.375,14.75 C9.65114237,14.75 9.875,14.5261424 9.875,14.25 L9.875,13.5 C9.875,13.2238576 9.65114237,13 9.375,13 L8.625,13 Z M7.24955477,7.0032853 C7.52568655,7.00570452 7.75149675,6.78381666 7.75391598,6.50768488 L7.75496749,6.38766485 C7.78360338,6.05741091 8.11117401,5.75499916 8.50479226,5.75499916 L10.1950006,5.75499916 C10.7804227,5.75499916 11.2550011,6.22957751 11.2550011,6.81499958 L11.2550011,7.1601489 C11.2550011,7.65638313 10.8993759,8.08128138 10.4108982,8.16867664 C9.08806139,8.40535001 8.125,9.5560085 8.125,10.8998506 L8.125,11.5 C8.125,11.7761424 8.34885763,12 8.625,12 L9.375,12 C9.65114237,12 9.875,11.7761424 9.875,11.5 L9.875,10.8998506 C9.875,10.4036163 10.2306251,9.97871809 10.7191029,9.89132283 C12.0419397,9.65464945 13.0050011,8.50399097 13.0050011,7.1601489 L13.0050011,6.81499958 C13.0050011,5.2630792 11.746921,4.00499916 10.1950006,4.00499916 L8.50479226,4.00499916 C7.19879225,4.00499916 6.11193399,5.00838187 6.00778765,6.31022271 L6.00562145,6.49074885 L6.00560465,6.4923677 C6.00318542,6.76849948 6.22507329,6.99430969 6.50120506,6.99672891 L7.24955477,7.0032853 Z"/>
    </g>
    <g transform="translate(648 27)">
      <rect width="18" height="18"/>
      <path fill="#6A7070" d="M10.4987706,2.18870995 C13.0872352,2.85434648 15,5.20379816 15,8 L15,10.881966 C15,11.5671711 15.3871339,12.193567 16,12.5 L16.1055728,12.5527864 C16.6537369,12.8268684 17,13.3871339 17,14 L17,14.25 C17,14.6642136 16.6642136,15 16.25,15 L11.4499909,15 C11.2183558,16.1411202 10.209479,17 9,17 C7.79052104,17 6.78164422,16.1411202 6.55000906,15 L1.75,15 C1.33578644,15 1,14.6642136 1,14.25 L1,14 C1,13.3871339 1.34626312,12.8268684 1.89442719,12.5527864 L2,12.5 C2.61286606,12.193567 3,11.5671711 3,10.881966 L3,8 C3,5.20379816 4.91276479,2.85434648 7.50122937,2.18870995 C7.53338032,1.38870127 8.19210182,0.75 9,0.75 C9.80789818,0.75 10.4666197,1.38870127 10.4987706,2.18870995 Z"/>
    </g>
    <g transform="translate(606 27)">
      <rect width="18" height="18"/>
      <path fill="#6A7070" d="M7,10.6564977 L6.99999969,10.2032019 C6.99999969,10.0751642 6.95088088,9.95200521 6.86276712,9.85910935 C5.62092237,8.54986742 5,6.93016431 5,5 C5,2.69999695 6.5,1 9,1 C11.5,1 13,2.69999695 13,5 C13,6.93017576 12.3790703,8.54988665 11.1372108,9.85913267 L11.1372277,9.85914877 C11.0491171,9.95204049 11,10.0751944 11,10.2032271 L11,10.7692138 C11,11.0737567 11.1841566,11.3480641 11.4660254,11.463374 L15.4854686,13.1076917 C16.4015113,13.4824364 17,14.3739052 17,15.3636364 L17,16.25 C17,16.6642136 16.6642136,17 16.25,17 L1.75,17 C1.33578644,17 1,16.6642136 1,16.25 L1,15.1818182 C1,14.0902599 1.68287604,13.1153178 2.70871532,12.7422853 L6.5063073,11.3613428 C6.80269919,11.2535639 7,10.9718776 7,10.6564977 Z"/>
    </g>
    <g transform="translate(564 27)">
      <rect width="18" height="18"/>
      <path fill="#6A7070" fill-rule="nonzero" d="M3,10 L0.700177616,10 C0.313571212,10 0.000164799191,9.68338213 0.000164799191,9.29281419 C0.000164799191,9.09934081 0.0786274819,8.91431545 0.217271776,8.78084729 L7.79289956,1.4880473 C8.46886575,0.837317568 9.53146257,0.837317568 10.2074288,1.4880473 L17.7830565,8.78084729 C18.0629401,9.0502817 18.0736262,9.49791683 17.8069247,9.78066834 C17.6748103,9.92073331 17.4916617,10 17.3001507,10 L15,10 L15,15.5 C15,15.7761424 14.7761424,16 14.5,16 L11.5,16 C11.2238576,16 11,15.7761424 11,15.5 L11,13 C11,11.8954305 10.1045695,11 9,11 C7.8954305,11 7,11.8954305 7,13 L7,15.5 C7,15.7761424 6.77614237,16 6.5,16 L3.5,16 C3.22385763,16 3,15.7761424 3,15.5 L3,10 Z"/>
    </g>
    <g transform="translate(40 20)">
      <path fill="#000" d="M62.2206366 21.158244C61.9726632 21.5066552 61.1633545 22.5469543 60.1565527 22.5469543 58.7950603 22.5469543 58.5093004 21.57873 58.5093004 20.7667674 58.5093004 19.4312907 59.5184638 18.8137206 62.2206366 18.1376833L62.2206366 21.158244zM65.5846624 22.7939823C65.5454 22.6903562 65.4391256 22.6314403 65.3346225 22.6564122L65.3015594 22.6649356C64.9911497 22.7331225 64.7523277 22.7139823 64.5849456 22.5995898 64.3477471 22.4365991 64.2321738 22.0696459 64.2321738 21.4777954L64.2321738 16.1242253C64.2321738 14.0331599 63.0013102 12.972973 60.5733843 12.972973 58.3987455 12.972973 56.6952563 14.0156646 56.6952563 15.3468047 56.6952563 16.031216 57.1067742 16.5258702 57.714752 16.6001879 58.1119524 16.6486365 58.4907023 16.4665057 58.7659824 16.1723748 59.3006014 15.6007113 59.2312279 14.9212347 58.583102 14.1913655 58.9664276 13.7849356 59.6454026 13.544487 60.4198769 13.544487 61.6820323 13.544487 62.2206366 14.3027674 62.2206366 16.0799636L62.2206366 17.4327861C61.9246921 17.5254963 61.6477884 17.613272 61.1413616 17.7336459 60.1195043 17.9766365 58.7175685 18.3000758 57.6601388 18.8920758 56.7872132 19.3767113 56.344551 20.1420197 56.344551 21.1669169 56.344551 22.2822814 57.0672165 23.5848608 59.1041415 23.5848608 60.2446718 23.5848608 61.2668244 23.0365244 62.3156931 21.8610477 62.4060263 23.0828795 62.8631536 23.5405991 63.9719493 23.5405991 64.5049446 23.5405991 64.931518 23.4146926 65.4385352 23.1661692 65.5759538 23.0988795 65.6413421 22.9373842 65.5846624 22.7939823L65.5846624 22.7939823zM87.7622431 13.544487C86.5151432 13.544487 85.083982 14.0877393 85.083982 18.3235524 85.083982 21.5542066 86.02451 23.1244496 87.9594411 23.1244496 89.8114191 23.1244496 90.6372593 21.6437767 90.6372593 18.3235524 90.6372593 15.1075524 89.696879 13.544487 87.7622431 13.544487zM87.8714695 23.6962627C84.9856783 23.6962627 82.8094159 21.4055711 82.8094159 18.3678141 82.8094159 15.3930104 85.0804396 12.972973 87.8714695 12.972973 90.6979243 12.972973 92.9119731 15.3034403 92.9119731 18.2789917 92.9119731 21.6249356 90.2957054 23.6962627 87.8714695 23.6962627L87.8714695 23.6962627zM38.5085605 21.2680131L38.5085605 17.3951159 39.9803126 17.3951159C42.1765014 17.3951159 43.8472227 16.9242374 44.9464241 15.9953402 46.0950727 15.0244243 46.3361088 13.7942187 46.3361088 12.9333589 46.3361088 9.39212528 42.9633744 8.64894771 40.13382 8.64894771L40.145333 8.64864865 34.4062232 8.64864865C34.2763324 8.64864865 34.1706484 8.75571407 34.1706484 8.88730285L34.1706484 8.90315332 34.1705008 8.89806921C34.1705008 9.0196393 34.243712 9.12790099 34.3563333 9.16977014 34.8674834 9.36012528 36.2559872 9.09216267 36.2559872 10.6007982L36.2561348 21.2659197C36.2561348 22.0416954 35.9164997 22.5889851 34.3641563 22.7374711 34.2412028 22.7494337 34.1482127 22.8515645 34.1482127 22.974929L34.1482127 23.0115645C34.1482127 23.1431533 34.2538967 23.2502187 34.3837875 23.2502187L40.5152268 23.2502187C40.64497 23.2502187 40.7508016 23.1431533 40.7508016 23.0115645L40.7508016 22.9789664C40.7508016 22.8556019 40.654269 22.7512281 40.5313155 22.7415085 38.8449483 22.6048356 38.5063465 22.0754898 38.5063465 21.2659197L38.5063465 17.4018449M43.7985136 12.8887982C43.7985136 15.3527982 43.1990968 16.7102561 40.13382 16.7102561L38.5085605 16.7102561 38.5085605 9.26502248 40.1997986 9.26502248C43.370907 9.26502248 43.7985136 11.0967982 43.7985136 12.8887982M48.3653544 16.9995898C48.5889733 14.7796272 49.4441866 13.56273 50.7872286 13.56273 51.4595614 13.56273 51.9577224 13.7511412 52.3100514 14.139029 52.79419 14.6718141 52.9987682 15.6340571 52.9183244 16.9995898L48.3653544 16.9995898zM50.9402932 12.972973C48.2713311 12.972973 46.1000872 15.4211225 46.1000872 18.4303188 46.1000872 21.4765991 48.1358313 23.6877393 50.9402932 23.6877393 53.2970743 23.6877393 54.4436564 22.2613468 55.1010813 21.1883001 55.1658792 21.0828795 55.1375393 20.9429169 55.0367263 20.8697954L55.0057296 20.847515C54.904031 20.7740945 54.7624795 20.7945804 54.6841021 20.8947674 53.8173758 21.9953281 53.0591379 22.632487 51.7493066 22.632487 50.0926077 22.632487 48.322697 21.4761505 48.322697 18.2308421L48.322697 18.2067674C48.3198926 18.0633655 48.3232874 17.8668795 48.3284535 17.6835524L55.1063951 17.6835524C55.1249931 17.6835524 55.1401962 17.6688982 55.1415246 17.6503562L55.1453623 17.5951786C55.2410092 16.2638889 54.8693442 15.0685244 54.0990028 14.2287487 53.3450454 13.407216 52.2526337 12.972973 50.9402932 12.972973L50.9402932 12.972973zM79.160803 17.1196646C79.1602126 17.1193655 79.1594746 17.1193655 79.1587366 17.119216 77.3051349 16.5925618 76.5829121 16.0593281 76.5829121 15.217758 76.5829121 14.2586552 77.3343603 13.56273 78.3695019 13.56273 79.5873764 13.56273 80.1088587 14.1523375 81.3943355 16.3296833L81.4114575 16.3586926C81.4176568 16.3696085 81.4293174 16.376487 81.4417161 16.376487L81.618102 16.376487C81.7478453 16.376487 81.8536768 16.269272 81.8536768 16.1378328L81.8536768 13.0088608C81.8536768 12.988973 81.8377357 12.972973 81.818252 12.972973L81.5856293 12.972973C81.5147797 12.972973 81.4483583 13.0048234 81.4036345 13.0603001L80.9932974 13.5661692C80.47521 13.2768234 79.631805 12.972973 78.7853003 12.972973 76.6565662 12.972973 75.169611 14.3059076 75.169611 16.2145431 75.169611 18.0057954 76.3420236 18.6771973 78.3665499 19.2310664 80.3336585 19.7765618 81.0307887 20.3440384 81.0307887 21.3988421 81.0307887 22.57073 79.9094467 23.0979823 79.1132748 23.0979823 77.6323713 23.0979823 77.0060907 22.5402253 75.5868854 19.9568982L75.5700586 19.9260945C75.5638593 19.91473 75.552051 19.9075524 75.5392095 19.9075524L75.3616428 19.9075524C75.2317519 19.9075524 75.126068 20.0146178 75.126068 20.1462066L75.126068 23.6518515C75.126068 23.6715898 75.1418616 23.6877393 75.1613452 23.6877393L75.4022337 23.6877393C75.4643747 23.6877393 75.5250396 23.6620197 75.5688778 23.6179076L76.2177417 22.9602627C76.977308 23.4378702 78.1129675 23.6877393 78.8508362 23.6877393 79.9581558 23.6877393 80.8685727 23.3324496 81.483783 22.660001 82.0322767 22.0608234 82.3344206 21.2116272 82.3344206 20.2688234 82.3344206 18.6362253 81.4741888 17.7825431 79.160803 17.1196646M67.793605 22.2459449C67.793605 22.7865057 67.6579576 22.9634029 66.8089437 23.0176833 66.685695 23.0256085 66.5890148 23.1298328 66.5890148 23.2554403 66.5890148 23.38673 66.6944035 23.4936459 66.8241468 23.4936459L71.0187361 23.4936459C71.1462653 23.4936459 71.250178 23.3883748 71.250178 23.2593281 71.250178 23.1319262 71.1521695 23.0274029 71.0270019 23.0211225 70.0560677 22.9738702 69.804847 22.8146178 69.804847 22.2457954L69.804847 16.0147674C70.4950398 14.8517019 70.9915771 14.2429543 71.829078 14.0588795 71.7884871 14.2058702 71.7619185 14.3821692 71.7619185 14.5251225 71.7619185 15.2820571 72.2839912 15.8105057 73.0311589 15.8105057 73.7651899 15.8105057 74.2779636 15.2820571 74.2779636 14.5251225 74.2779636 13.8090104 73.8366299 12.972973 72.5926297 12.972973 71.5726912 12.972973 70.5979193 13.565272 69.7611564 14.9825431L69.7611564 13.3797019C69.7611564 13.2164122 69.6281659 13.0851225 69.4669831 13.0893094L66.8239992 13.1607861C66.6960272 13.1645244 66.5958046 13.2687487 66.5958046 13.3983935L66.5958046 13.4330851C66.5958046 13.5504683 66.6802336 13.6512533 66.7918217 13.6671038 67.6728655 13.793758 67.794343 14.2184309 67.7937526 14.6582066L67.793605 22.2459449M96.8592073 13.0431038C96.9203151 13.0431038 96.9781755 13.0668795 97.0223089 13.1100945 97.0683611 13.1551038 97.0938965 13.2156646 97.0943393 13.2802627L97.1037859 15.057758C97.1037859 15.057758 97.9644605 12.972973 100.758443 12.972973L100.782945 12.972973C102.524515 12.972973 103.523347 14.0980571 103.523347 16.0593281L103.523347 22.1964496C103.523347 22.7373094 103.658994 22.9142066 104.507713 22.9681879 104.631109 22.9759636 104.727937 23.0801879 104.727937 23.2059449 104.727937 23.3370851 104.622401 23.444001 104.492805 23.444001L100.724641 23.444001C100.594751 23.444001 100.489067 23.3367861 100.489067 23.2053468 100.489067 23.0779449 100.583533 22.9738702 100.703977 22.9634029 101.388413 22.9041879 101.497787 22.7289356 101.497787 22.1964496L101.497787 16.657758C101.497787 14.828973 100.984571 14.1167487 99.6673593 14.1167487 98.7774592 14.1167487 98.0482991 14.9040384 97.5935335 15.5643748 97.5935335 15.5643748 97.3613536 15.8595524 97.1093948 16.4144683L97.1372918 22.1961505C97.1372918 22.7277393 97.2437138 22.9028421 97.9088141 22.9626552 98.0288155 22.9734216 98.1229864 23.0774963 98.1229864 23.1996646 98.1229864 23.3367861 98.0173025 23.444001 97.8877068 23.444001L94.142717 23.444001C94.0131213 23.444001 93.907585 23.3370851 93.907585 23.2057954 93.907585 23.0801879 94.0042651 22.9759636 94.1275139 22.9680384 94.9765278 22.913758 95.1121752 22.7368608 95.1121752 22.1964496L95.1121752 14.6205244C95.1121752 14.1783562 94.9901073 13.7514403 94.1044877 13.6241879 93.9924569 13.6080384 93.907585 13.5069543 93.907585 13.388973L93.907585 13.3539823C93.907585 13.2238889 94.0085456 13.1190664 94.1369605 13.1153281L96.8592073 13.0431038"/>
      <path fill="#007FA3" d="M22.4497348,2.05023221 C29.0915861,5.88365277 30.6375826,14.4802883 26.0164199,23.1772602 C21.9549687,30.8225687 13.0866699,34.0877649 6.4787673,30.1954285 C-0.130611293,26.3024939 -1.42036854,15.4426808 1.41981331,9.19311071 C5.54384828,0.118568655 15.1113437,-2.18647807 22.4497348,2.05023221"/>
      <path fill="#FFFFFE" d="M13.9212532,25.1188185 C13.7190367,24.9591176 13.4917277,24.8495101 13.2629427,24.8030055 C13.1850081,24.7877531 13.1050072,24.7790802 13.0260394,24.7790802 C12.5940047,24.7790802 12.170531,25.0199774 11.8934796,25.4246129 C11.6620377,25.7606129 11.5674241,26.1621083 11.628827,26.55194 C11.6676467,26.7998653 11.7596035,27.0154914 11.8951033,27.1762391 C12.0472822,27.3579213 12.2802002,27.4966877 12.5687645,27.5799774 C12.7357038,27.6269307 12.9070712,27.6517531 13.0779958,27.6517531 L13.0784386,27.6517531 C13.4511368,27.6517531 13.7864914,27.5385569 14.0470112,27.3242765 C14.3500406,27.0744073 14.5150611,26.7177718 14.511371,26.3207625 C14.5079761,25.8575101 14.2873093,25.4075662 13.9212532,25.1188185 M22.3175168,9.06304284 C23.6176063,10.4692484 24.022482,12.6032298 23.7963538,14.3532111 C23.5380481,16.3488746 22.344233,18.1954541 20.3582312,19.4198279 C18.7831568,20.3907438 16.714202,20.778183 14.6783103,20.7965755 C14.6620739,21.1236036 14.5975713,22.2500335 14.5650986,22.4282765 C14.5172751,22.6910055 14.4264991,22.8327625 14.3153539,22.9799026 C14.0967534,23.2685008 13.7174131,23.4549681 13.3407296,23.5636783 C13.0412426,23.6499587 12.7451504,23.6870428 12.535111,23.6870428 C12.4995386,23.6870428 12.4648518,23.6850989 12.4309031,23.6807625 C12.2094982,23.6553419 11.9637388,23.5499213 11.8117074,23.3781083 C11.6599713,23.2062952 11.5739186,22.9890241 11.5538446,22.7428933 L11.5368702,22.5205382 C11.49377,22.3289868 11.2579,12.63194 11.303657,12.8045008 C11.3377534,11.6426316 13.1894362,11.4398653 14.1941716,11.6450241 C15.2009734,11.8506316 14.9460626,13.0899587 14.9189036,14.6132484 C14.9189036,14.6132484 14.8710801,16.6165382 14.7782377,18.7333232 C16.0598768,18.6824821 17.0781916,18.3123886 18.0312658,17.8326877 C19.9560123,16.8661083 20.97477,15.3834914 20.97477,13.1997157 C20.97477,11.01594 18.8761469,8.57033256 15.0049563,8.57033256 C11.1339133,8.57033256 9.47219584,9.55949143 7.59778209,11.1306316 C7.17519397,11.4847251 6.84972879,11.8416597 6.5418284,12.0765755 C6.23407561,12.311641 5.41664877,12.3475288 5.19745794,11.797697 C4.93339571,11.1348185 5.4268334,10.3958279 5.71672619,10.0382952 C6.17193464,9.47694938 7.29490021,8.34633256 8.53934326,7.68943536 C9.9647479,6.93564097 11.7086804,6.12382788 14.1364587,6.06177181 C16.3329428,6.00554751 19.8008813,6.18573442 22.2989188,9.04420171"/>
    </g>
  </g>
</svg>
