<svg xmlns="http://www.w3.org/2000/svg" width="120" height="120" viewBox="0 0 120 120">
  <g fill="none" fill-rule="evenodd">
    <circle cx="60" cy="60" r="60" fill="#EDC0F2" fill-rule="nonzero" opacity=".1"/>
    <g transform="translate(32 35)">
      <g transform="translate(28.326)">
        <path fill="#EDC0F2" d="M9.18666092,20.0539766 C9.18666092,20.2734505 9.00833235,20.4511391 8.78806806,20.4511391 L8.52220378,20.4511391 C8.30193949,20.4511391 8.12361092,20.2734505 8.12361092,20.0539766 L8.12361092,4.1650425 C8.12361092,3.94556864 8.30193949,3.76747432 8.52220378,3.76747432 L8.78806806,3.76747432 C9.00833235,3.76747432 9.18666092,3.94556864 9.18666092,4.1650425 L9.18666092,20.0539766 Z M2.54092622,1.67456182 C2.10039765,1.67456182 1.74333337,2.03034477 1.74333337,2.46888682 L1.74333337,50.19573 L12.5220334,50.19573 L12.5220334,2.46888682 C12.5220334,2.03034477 12.1649691,1.67456182 11.7248477,1.67456182 L2.54092622,1.67456182 Z"/>
        <path stroke="#6A7070" stroke-linecap="round" stroke-width="1.5" d="M11.2206943,45.3790408 L11.2206943,1.09887034 C11.2206943,0.661545341 10.8615943,0.304545341 10.4231014,0.304545341 L1.19358,0.304545341 C0.755087143,0.304545341 0.396394286,0.661545341 0.396394286,1.09887034 L0.396394286,49.6159817"/>
      </g>
      <g transform="translate(1.454 4.057)">
        <path fill="#E9E9E9" d="M8.98308949,19.4744311 C8.98308949,19.693905 8.80476092,19.8715936 8.58449663,19.8715936 L8.31863235,19.8715936 C8.09836806,19.8715936 7.92003949,19.693905 7.92003949,19.4744311 L7.92003949,3.58549705 C7.92003949,3.36602318 8.09836806,3.18792886 8.31863235,3.18792886 L8.58449663,3.18792886 C8.80476092,3.18792886 8.98308949,3.36602318 8.98308949,3.58549705 L8.98308949,19.4744311 Z M11.5212762,1.67456182 L2.3373548,1.67456182 C1.89682622,1.67456182 1.53976194,2.03034477 1.53976194,2.46888682 L1.53976194,46.1389118 L12.3184619,46.1389118 L12.3184619,2.46888682 C12.3184619,2.03034477 11.9613977,1.67456182 11.5212762,1.67456182 Z"/>
        <path stroke="#6A7070" stroke-linecap="round" stroke-width="1.5" d="M11.0171229,43.4405714 L11.0171229,1.09874864 C11.0171229,0.661829318 10.6580229,0.304423636 10.21953,0.304423636 L0.990008571,0.304423636 C0.551515714,0.304423636 0.192822857,0.661829318 0.192822857,1.09874864 L0.192822857,45.5594475"/>
      </g>
      <g transform="translate(14.89 27.18)">
        <path fill="#E9E9E9" d="M9.66650786,9.37671511 C9.66650786,9.59618898 9.48817929,9.77387761 9.267915,9.77387761 L9.00205071,9.77387761 C8.78178643,9.77387761 8.60345786,9.59618898 8.60345786,9.37671511 L8.60345786,3.81562875 C8.60345786,3.59615489 8.78178643,3.41806057 9.00205071,3.41806057 L9.267915,3.41806057 C9.48817929,3.41806057 9.66650786,3.59615489 9.66650786,3.81562875 L9.66650786,9.37671511 Z M11.6230619,1.59046398 L2.43914051,1.59046398 C1.99861194,1.59046398 1.64154765,1.94584125 1.64154765,2.38478898 L1.64154765,23.0149265 L12.4202477,23.0149265 L12.4202477,2.38478898 C12.4202477,1.94584125 12.0631834,1.59046398 11.6230619,1.59046398 Z"/>
        <path stroke="#6A7070" stroke-linecap="round" stroke-width="1.5" d="M11.1189086,22.4354216 L11.1189086,1.01420455 C11.1189086,0.577285227 10.7598086,0.219473864 10.3213157,0.219473864 L1.09179429,0.219473864 C0.653301429,0.219473864 0.294608571,0.577285227 0.294608571,1.01420455 L0.294608571,20.0520409"/>
      </g>
      <g transform="translate(42.983 12.17)">
        <path fill="#E9E9E9" d="M9.1472902,19.885213 C9.1472902,20.1042811 8.96896163,20.2823755 8.74869735,20.2823755 L8.48283306,20.2823755 C8.26256878,20.2823755 8.0842402,20.1042811 8.0842402,19.885213 L8.0842402,3.99587318 C8.0842402,3.77639932 8.26256878,3.59871068 8.48283306,3.59871068 L8.74869735,3.59871068 C8.96896163,3.59871068 9.1472902,3.77639932 9.1472902,3.99587318 L9.1472902,19.885213 Z M11.6850698,1.5053925 L2.50114837,1.5053925 C2.06102694,1.5053925 1.70396265,1.86117545 1.70396265,2.30012318 L1.70396265,38.0252755 L12.4822555,38.0252755 L12.4822555,2.30012318 C12.4822555,1.86117545 12.1255984,1.5053925 11.6850698,1.5053925 Z"/>
        <path stroke="#6A7070" stroke-linecap="round" stroke-width="1.5" d="M11.1809571,33.2085862 L11.1809571,0.929701023 C11.1809571,0.492781705 10.8222643,0.135376023 10.3837714,0.135376023 L1.15425,0.135376023 C0.715757143,0.135376023 0.356657143,0.492781705 0.356657143,0.929701023 L0.356657143,37.4455272"/>
      </g>
      <path stroke="#6A7070" stroke-linecap="round" stroke-width="1.5" d="M56.7964286,50.4784091 L0.203571429,50.4784091"/>
    </g>
  </g>
</svg>
