<svg xmlns="http://www.w3.org/2000/svg" width="120" height="120" viewBox="0 0 120 120">
  <g fill="none" fill-rule="evenodd">
    <circle cx="60" cy="60" r="60" fill="#76D5D4" fill-rule="nonzero" opacity=".1"/>
    <g transform="translate(30 26)">
      <path fill="#D3EAE4" d="M43.44237 54.1600658L40.9459391 53.3331858C40.6844757 53.2466898 40.4126626 53.4354578 40.4039472 53.7101778L40.3091667 56.5814098C40.3031748 56.7636498 40.4181098 56.9279378 40.591874 56.9856018L41.5053618 57.2886098C41.6774919 57.3451858 41.8659635 57.2837138 41.9710935 57.1368338L43.6482724 54.7905618C43.8095082 54.5648018 43.7054675 54.2476498 43.44237 54.1600658M58.7823907 38.6684881C58.6680004 38.6853521 58.5552443 38.7065681 58.4446671 38.7315921 58.4087159 38.7283281 58.3722199 38.7283281 58.3351793 38.7337681L50.500537 39.8772561C50.2548703 39.9137041 50.0821955 40.1438161 50.1186915 40.3897041L50.2701224 41.4260241C50.3060736 41.6719121 50.5370329 41.8432721 50.7826996 41.8079121L55.8943094 41.0615441C55.8578134 41.2758801 55.8534557 41.4956561 55.8861386 41.7165201 56.0931305 43.1358161 57.7272768 44.0731281 59.5351874 43.8092881 61.3425533 43.5449041 62.6395207 42.1805521 62.4314394 40.7607121 62.2239029 39.3414161 60.5897565 38.4046481 58.7823907 38.6684881M62.7774749 44.7772724C62.6614505 44.7750964 62.5470602 44.7772724 62.4337594 44.7843444 62.3994424 44.7745524 62.3624017 44.7685684 62.3253611 44.7680244L54.4095562 44.6080884C54.1606212 44.6031924 53.9530846 44.8022964 53.9476375 45.0509044L53.9269383 46.0981044C53.9214911 46.3461684 54.120857 46.5539764 54.3697919 46.5583284L59.5342391 46.6627764C59.4623367 46.8684084 59.4225724 47.0843764 59.41767 47.3074164 59.3888001 48.7419444 60.8459139 49.9343924 62.6723448 49.9713844 64.4987757 50.0083764 66.0032798 48.8752244 66.0321497 47.4406964 66.0610196 46.0067124 64.6044505 44.8137204 62.7774749 44.7772724M33.0639677 55.1239534L31.1046262 59.5172974C30.9570083 59.8545774 31.1122522 60.2516974 31.4499758 60.3996654 31.7876994 60.5470894 32.1853416 60.3920494 32.3335042 60.0547694L34.292301 55.6614254C34.359301 55.5091054 34.2895774 55.3317614 34.1376018 55.2653934L33.4610652 54.9694574C33.3080002 54.9025454 33.1304229 54.9721774 33.0639677 55.1239534"/>
      <path fill="#FFDB8D" d="M12.9996341 32.9802738L11.4602683 32.6685618C10.9220894 32.5597618 10.373561 32.7670258 10.0647073 33.2011378 9.98572358 33.3126578 9.89856911 33.4443058 9.80487805 33.5922738 10.8322114 33.2718578 11.9036667 33.0662258 12.9996341 32.9802738M13.8564715 33.346656L13.053561 33.184C11.9581382 33.269952 10.8861382 33.475584 9.85880488 33.796544 9.84137398 33.824288 9.82285366 33.854208 9.80487805 33.883584 11.1083821 33.491904 12.4745285 33.306944 13.8564715 33.346656"/>
      <path stroke="#707070" stroke-linecap="round" stroke-width="1.5" d="M9.97608633,59.957326 C2.45193186,57.464174 -1.71350716,49.621326 0.672346497,42.439438 C3.05820016,35.25755 11.0916636,31.456078 18.6152733,33.948686 C26.1399725,36.441294 30.3048668,44.284142 27.9190132,51.466574 C25.5342489,58.648462 17.5002408,62.449934 9.97608633,59.957326 Z"/>
      <path stroke="#707070" stroke-linecap="round" stroke-width="1.5" d="M8.83548978,59.3377781 C2.00802637,57.0758261 -1.63067282,49.5316341 0.709424743,42.4873781 C3.0495223,35.4436661 10.4810751,31.5671221 17.3090833,33.8290741 C24.1370914,36.0910261 27.7752459,43.6352181 25.4351483,50.6789301 C23.0955955,57.7231861 15.6634979,61.5997301 8.83548978,59.3377781 Z"/>
      <path stroke="#707070" stroke-linecap="round" stroke-width="1.5" d="M.481810417 44.064C-1.99119771 53.75264 5.29927383 63.973312 16.765534 66.892416 27.4828104 69.62112 38.0557372 65.004192 41.410095 56.476992M33.5991382 54.0213127C36.2366504 45.7813447 32.7308618 36.8766087 24.9991707 32.9179207 16.3616179 28.4957447 5.36599187 31.9800647 1.08943089 41.0208007M41.9430894 52.393728C42.7661545 49.391936 45.481561 40.946336 51.1008455 39.712M43.0325203 52.878872C44.3534553 50.403128 47.9752683 44.481144 54.1812114 44.610072M43.44237 53.0720658L40.9459391 52.2451858C40.6844757 52.1586898 40.4126626 52.3474578 40.4039472 52.6221778L40.3091667 55.4934098C40.3031748 55.6756498 40.4181098 55.8399378 40.591874 55.8976018L41.5053618 56.2006098C41.6774919 56.2571858 41.8659635 56.1957138 41.9710935 56.0488338L43.6482724 53.7025618C43.8095082 53.4768018 43.7054675 53.1596498 43.44237 53.0720658zM59.8718336 37.5804873C59.7568986 37.5973513 59.6441425 37.6185673 59.53411 37.6441353 59.4976141 37.6403273 59.4611181 37.6403273 59.4246222 37.6457673L51.5899799 38.7897993C51.3437686 38.8257033 51.1716385 39.0558153 51.2081344 39.3022473L51.3595653 40.3380233C51.3949718 40.5839113 51.6259312 40.7558153 51.8721425 40.7199113L56.9837523 39.9735433C56.9467116 40.1878793 56.9423539 40.4076553 56.9750368 40.6285193 57.1825734 42.0478153 58.8167198 42.9851273 60.6240856 42.7212873 62.4319962 42.4569033 63.7289637 41.0925513 63.5208824 39.6732553 63.3133458 38.2534153 61.6791995 37.3166473 59.8718336 37.5804873zM63.3227145 43.6892724C63.2066901 43.6870964 63.0917552 43.6892724 62.9789991 43.6963444 62.9441373 43.6865524 62.9076414 43.6805684 62.8706007 43.6800244L54.9547958 43.5200884C54.7058609 43.5151924 54.4983243 43.7142964 54.4928771 43.9629044L54.4716332 45.0101044C54.4667308 45.2581684 54.6660966 45.4659764 54.9144869 45.4708724L60.0794788 45.5747764C60.0075763 45.7804084 59.9672674 45.9963764 59.9629097 46.2194164 59.933495 47.6539444 61.3911536 48.8463924 63.2175844 48.8833844 65.0440153 48.9203764 66.5485194 47.7872244 66.5773893 46.3526964 66.6062592 44.9187124 65.1491454 43.7257204 63.3227145 43.6892724z"/>
      <path stroke="#707070" stroke-linecap="round" stroke-width="1.5" d="M33.0639677 54.0359534L31.1046262 58.4292974C30.9570083 58.7665774 31.1122522 59.1636974 31.4499758 59.3116654 31.7876994 59.4590894 32.1853416 59.3040494 32.3335042 58.9667694L34.292301 54.5734254C34.359301 54.4211054 34.2895774 54.2437614 34.1376018 54.1773934L33.4610652 53.8814574C33.3080002 53.8145454 33.1304229 53.8841774 33.0639677 54.0359534zM31.3047967 59.296L29.9593496 62.147648"/>
      <path fill="#76D5D4" d="M50.5654885,17.7559166 C46.7535698,15.8720446 42.6725616,14.5316286 38.4477486,14.0409406 C35.4485454,13.6927806 33.7446754,13.9223486 32.8480738,14.5892926 C32.4046754,14.2993406 31.5745291,13.8434686 30.0852771,13.2624766 C28.596025,12.6814846 27.6754559,12.4546366 27.1536185,12.3675966 C26.9466267,11.2708926 25.8495698,9.94842859 23.4081551,8.17444459 C19.9693665,5.67585259 16.0583096,3.89860459 11.9767567,2.70398059 L4.78542341,0.598156595 C4.11923642,0.403404595 3.41382991,0.748844595 3.16217138,1.39457259 L2.82117951,2.26606059 C2.56625268,2.91722859 2.82499252,3.65652459 3.43071609,4.00740459 C4.02881365,4.35393259 4.28482991,5.08452459 4.03317138,5.72807659 C3.75046406,6.45159659 3.69708195,8.79514859 4.42155349,9.07748459 L4.87584617,9.25482859 C4.87584617,9.25482859 5.90862666,4.91588459 11.4516511,6.01748459 C16.9946754,7.11908459 23.2262202,10.8721406 24.1489681,13.2668286 C24.687147,14.6654526 24.4550982,15.9879166 24.1696673,16.8458046 C24.0792445,17.1167166 24.3728462,17.3087486 24.620147,17.1667646 C25.7536998,16.5166846 26.455838,15.0875966 26.8306023,14.3151166 C26.8523909,14.2694206 26.8681876,14.2231806 26.886708,14.1774846 C27.4346917,14.2857406 28.30896,14.5087806 29.5198624,14.9809726 C30.7307649,15.4537086 31.5244153,15.8812926 32.0010413,16.1723326 C31.9836104,16.2185726 31.9640006,16.2637246 31.9492933,16.3115966 C31.6998137,17.1330366 31.7962283,17.1852606 32.1884234,18.4304766 C32.2739437,18.7024766 32.2897405,20.1625726 32.407399,19.9025406 C32.7794397,19.0783806 33.5066348,17.9484926 34.8515372,17.2848126 C37.1545941,16.1483966 44.2838299,17.6074046 49.1067405,20.5493566 C53.9301958,23.4913086 51.7453421,27.3803646 51.7453421,27.3803646 L52.1996348,27.5582526 C52.9241063,27.8405886 54.0707324,26.0802046 54.3539844,25.3566846 C54.6056429,24.7131326 55.2898055,24.3491966 55.964708,24.4993406 C56.6483258,24.6511166 57.3401145,24.2828286 57.5950413,23.6316606 L57.9354885,22.7607166 C58.1882364,22.1149886 57.9049844,21.3833086 57.2823746,21.0759486 L50.5654885,17.7559166 Z"/>
      <path stroke="#707070" stroke-linecap="round" stroke-width="1.5" d="M5.02500592 8.704C4.29018478 10.74944 3.19203844 14.679296 4.25314413 17.787712 5.73803844 22.13808 13.1347295 26.90896 18.9697214 24.058944 22.4188596 22.373632 23.9021197 18.794112 24.6837864 16.437504M46.8183053 34.12512C42.7743378 36.318528 34.0975654 34.819808 31.7422159 28.774336 30.3782484 25.274784 31.2797524 21.848672 32.2803947 19.584M31.1749297 12.718679C29.6856777 12.137687 28.7651086 11.910839 28.2432712 11.823799 28.0362793 10.726551 26.9397671 9.40408702 24.4983525 7.63064702 21.0590191 5.13151102 17.1479622 3.35480702 13.0669541 2.15963902L5.87507605.0543590174C5.20888906-.140936983 4.50402727.205047017 4.2512793.850775017L3.91028743 1.72171902C3.65590532 2.37288702 3.91464515 3.11218302 4.52036873 3.46306302 5.11901101 3.81013502 5.37502727 4.54072702 5.12336873 5.18427902M58.2061138 20.7963259L51.4897724 17.4762939C47.6778537 15.5924219 43.5963008 14.2520059 39.3714878 13.7613179 36.3728293 13.4131579 34.6684146 13.6432699 33.7723577 14.3096699M55.0162602 25.117024C55.2679187 24.473472 55.9520813 24.108992 56.6269837 24.25968 57.3106016 24.411456 58.0023902 24.043168 58.2573171 23.392"/>
      <path stroke="#707070" stroke-linecap="round" stroke-width="1.5" d="M32.1382114 19.6045227C32.5107967 18.7798187 33.6704959 17.3697707 35.0153984 16.7055467 37.3184553 15.5696747 44.4476911 17.0281387 49.2706016 19.9700907 54.0940569 22.9120427 51.9086585 26.8016427 51.9086585 26.8016427M27.7804878 13.737632C27.8022764 13.69248 27.8180732 13.64624 27.8371382 13.6 28.3845772 13.7088 29.2588455 13.931296 30.469748 14.404032 31.6811951 14.876224 32.4748455 15.303808 32.9514715 15.595392 32.9340407 15.641632 32.9144309 15.686784 32.8991789 15.734656M4.90243902 8.71912232C4.90243902 8.71912232 6.30017886 4.52270632 11.8432033 5.62430632 17.3867724 6.72590632 23.6177724 10.4789623 24.5405203 12.8731063 25.0792439 14.2722743 24.8471951 15.5947383 24.5612195 16.4526263"/>
    </g>
  </g>
</svg>
