<svg xmlns="http://www.w3.org/2000/svg" width="748" height="56" viewBox="0 0 748 56">
  <g fill="none" fill-rule="evenodd">
    <rect width="748" height="56" fill="#FFF"/>
    <g transform="translate(564 19)">
      <rect width="18" height="18"/>
      <path fill="#6A7070" fill-rule="nonzero" d="M9,16.25 C13.0040644,16.25 16.25,13.0040644 16.25,9 C16.25,4.99593556 13.0040644,1.75 9,1.75 C4.99593556,1.75 1.75,4.99593556 1.75,9 C1.75,13.0040644 4.99593556,16.25 9,16.25 Z M9,18 C4.02943725,18 0,13.9705627 0,9 C0,4.02943725 4.02943725,0 9,0 C13.9705627,0 18,4.02943725 18,9 C18,13.9705627 13.9705627,18 9,18 Z"/>
      <path fill="#6A7070" d="M10,8 L12,8 C12.5522847,8 13,8.44771525 13,9 C13,9.55228475 12.5522847,10 12,10 L10,10 L10,12 C10,12.5522847 9.55228475,13 9,13 C8.44771525,13 8,12.5522847 8,12 L8,10 L6,10 C5.44771525,10 5,9.55228475 5,9 C5,8.44771525 5.44771525,8 6,8 L8,8 L8,6 C8,5.44771525 8.44771525,5 9,5 C9.55228475,5 10,5.44771525 10,6 L10,8 Z"/>
    </g>
    <g transform="translate(690 19)">
      <rect width="18" height="18"/>
      <path fill="#6A7070" fill-rule="nonzero" d="M15,12 C15,11.4477153 15.4477153,11 16,11 C16.5522847,11 17,11.4477153 17,12 L17,14.5 C17,15.8807119 15.8807119,17 14.5,17 L3.5,17 C2.11928813,17 1,15.8807119 1,14.5 L1,12 C1,11.4477153 1.44771525,11 2,11 C2.55228475,11 3,11.4477153 3,12 L3,14.5 C3,14.7761424 3.22385763,15 3.5,15 L14.5,15 C14.7761424,15 15,14.7761424 15,14.5 L15,12 Z"/>
      <path fill="#6A7070" fill-rule="nonzero" d="M8,3.30077792 L5.60275864,5.72223256 C5.23610543,6.09258915 4.64164312,6.09258915 4.27498991,5.72223256 C3.9083367,5.35187598 3.9083367,4.75140932 4.27498991,4.38105274 L8.33724451,0.277767437 C8.70389772,-0.0925891455 9.29836003,-0.0925891455 9.66501324,0.277767437 L13.7250101,4.37877219 C14.0916633,4.74912877 14.0916633,5.34959543 13.7250101,5.71995201 C13.3583569,6.0903086 12.7638946,6.0903086 12.3972414,5.71995201 L10,3.29849737 L10,11 C10,11.5522847 9.55228475,12 9,12 C8.44771525,12 8,11.5522847 8,11 L8,3.30077792 Z"/>
    </g>
    <g transform="translate(648 19)">
      <rect width="18" height="18"/>
      <path fill="#6A7070" fill-rule="nonzero" d="M3.75,3.75 L3.75,15.5 C3.75,15.9142136 4.08578644,16.25 4.5,16.25 L13.5,16.25 C13.9142136,16.25 14.25,15.9142136 14.25,15.5 L14.25,3.75 L3.75,3.75 Z M16,3.75 L16,15.5 C16,16.8807119 14.8807119,18 13.5,18 L4.5,18 C3.11928813,18 2,16.8807119 2,15.5 L2,3.75 L1.875,3.75 C1.39175084,3.75 1,3.35824916 1,2.875 C1,2.39175084 1.39175084,2 1.875,2 L6.50599314,2 C6.50202326,1.95052378 6.5,1.90049836 6.5,1.85000038 C6.5,0.828273384 7.32827338,1.87688205e-16 8.35000038,0 L9.64999962,0 C10.6717266,-1.87688205e-16 11.5,0.828273384 11.5,1.85000038 C11.5,1.90049836 11.4979767,1.95052378 11.4940069,2 L16.125,2 C16.6082492,2 17,2.39175084 17,2.875 C17,3.35824916 16.6082492,3.75 16.125,3.75 L16,3.75 Z"/>
      <path fill="#6A7070" d="M5 6L7 6 7 13.5C7 14.0522847 6.55228475 14.5 6 14.5 5.44771525 14.5 5 14.0522847 5 13.5L5 6zM8 6L10 6 10 13.5C10 14.0522847 9.55228475 14.5 9 14.5 8.44771525 14.5 8 14.0522847 8 13.5L8 6zM11 6L13 6 13 13.5C13 14.0522847 12.5522847 14.5 12 14.5 11.4477153 14.5 11 14.0522847 11 13.5L11 6z"/>
    </g>
    <g transform="translate(606 19)">
      <rect width="18" height="18"/>
      <path fill="#6A7070" fill-rule="nonzero" d="M14,15 L14,16 C14,17.1045695 13.1045695,18 12,18 L3,18 C1.8954305,18 1,17.1045695 1,16 L1,5 C1,3.8954305 1.8954305,3 3,3 L4,3 L4,2 C4,0.8954305 4.8954305,2.02906125e-16 6,0 L12.5857864,0 C12.8510029,-4.87194788e-17 13.1053568,0.10535684 13.2928932,0.292893219 L16.7071068,3.70710678 C16.8946432,3.89464316 17,4.14899707 17,4.41421356 L17,13 C17,14.1045695 16.1045695,15 15,15 L14,15 Z M12.25,15 L6,15 C4.8954305,15 4,14.1045695 4,13 L4,4.75 L3,4.75 C2.86192881,4.75 2.75,4.86192881 2.75,5 L2.75,16 C2.75,16.1380712 2.86192881,16.25 3,16.25 L12,16.25 C12.1380712,16.25 12.25,16.1380712 12.25,16 L12.25,15 Z M15.25,5 L13,5 C12.4477153,5 12,4.55228475 12,4 L12,1.75 L6,1.75 C5.86192881,1.75 5.75,1.86192881 5.75,2 L5.75,13 C5.75,13.1380712 5.86192881,13.25 6,13.25 L15,13.25 C15.1380712,13.25 15.25,13.1380712 15.25,13 L15.25,5 Z"/>
    </g>
    <rect width="30" height="20" x="40" y="18" fill="#E9E9E9" rx="10"/>
    <text fill="#252525" font-family="OpenSans-Semibold, Open Sans" font-size="12" font-weight="500">
      <tspan x="52.075" y="32">2</tspan>
    </text>
    <text fill="#252525" font-family="OpenSans, Open Sans" font-size="14">
      <tspan x="78" y="34">Notes selected</tspan>
    </text>
  </g>
</svg>
