<?xml version="1.0" encoding="UTF-8"?>
<svg width="14px" height="19px" viewBox="0 0 14 19" version="1.1" xmlns="http://www.w3.org/2000/svg" xmlns:xlink="http://www.w3.org/1999/xlink">
    <!-- Generator: Sketch 51.3 (57544) - http://www.bohemiancoding.com/sketch -->
    <title>Group</title>
    <desc>Created with Sketch.</desc>
    <defs></defs>
    <g id="Visual" stroke="none" stroke-width="1" fill="none" fill-rule="evenodd">
        <g id="Tips-v1" transform="translate(-246.000000, -202.000000)" fill="#DA0474" fill-rule="nonzero">
            <g id="Group" transform="translate(246.000000, 202.000000)">
                <path d="M14,6.66666667 C14,2.98533333 10.8654,0 7,0 C3.1346,0 0,2.98533333 0,6.66666667 C0,8.84 1.1088,10.7533333 2.8,11.9693333 L2.8,13.3333333 C2.8,14.0693333 3.4272,14.6666667 4.2,14.6666667 L9.8,14.6666667 C10.5728,14.6666667 11.2,14.0693333 11.2,13.3333333 L11.2,11.9693333 C12.8912,10.7533333 14,8.84 14,6.66666667 Z" id="Shape"></path>
                <path d="M4.2,17.3333333 C4.2,18.0693333 4.8272,18.6666667 5.6,18.6666667 L8.4,18.6666667 C9.1728,18.6666667 9.8,18.0693333 9.8,17.3333333 L9.8,16 L4.2,16 L4.2,17.3333333 Z" id="Shape"></path>
            </g>
        </g>
    </g>
</svg>