<svg xmlns="http://www.w3.org/2000/svg" width="71" height="76" viewBox="0 0 71 76">
  <g fill="none" fill-rule="evenodd" transform="translate(-12 -9)">
    <rect width="96" height="96" rx="4"/>
    <g transform="translate(13.5 10.5)">
      <path fill="#047A9C" d="M2.2308665,46.0873909 C5.71301189,34.4181531 18.0727778,27.7582448 29.8366618,31.212562 C41.5999078,34.667512 48.3128308,46.9278697 44.8306854,58.5977404 C41.3479021,70.2669782 28.9887741,76.9268865 17.2255281,73.4725693 C5.46164412,70.0176193 -1.25127889,57.7566287 2.2308665,46.0873909"/>
      <path fill="#FFB81C" d="M27.4500502,12.1448248 C29.7507972,4.40290091 37.9158967,-0.0151369069 45.6877707,2.27611601 C53.4596448,4.56862441 57.8954042,12.7022584 55.5946573,20.4441823 C53.2939103,28.1861062 45.1288108,32.604144 37.3569368,30.3122633 C29.5850628,28.0203827 25.1499335,19.8867487 27.4500502,12.1448248"/>
      <path fill="#E9E9E9" d="M47.4262649,40.369199 C49.1348725,34.6184436 55.2013052,31.3359466 60.9744227,33.037936 C66.7481657,34.7411713 70.0421761,40.7828596 68.3335684,46.534238 C66.6243354,52.2849933 60.5585281,55.5674903 54.7854106,53.864878 C49.0116677,52.1628887 45.7170318,46.1199543 47.4262649,40.369199"/>
      <path stroke="#6A7070" stroke-linecap="round" stroke-linejoin="round" stroke-width="1.5" d="M12.7655538 30.5118072C15.7030317 29.1329938 18.9897382 28.3768088 22.453932 28.4117879 34.7299213 28.5358048 44.5811026 38.5493734 44.4572446 50.7780743 44.3327481 63.0074113 34.2804571 72.8200089 22.0044679 72.696628 9.72784018 72.5732471-.122702689 62.5596785.00115532652 50.3303416.0318006086 47.3030576.670882429 44.4245939 1.80092721 41.8075196M34.042632 1.57819943C35.9538572.610390823 38.1088961.0469746458 40.3961306.00287040259 48.5018454-.155532161 55.2014223 6.26194582 55.3604313 14.3367495 55.5188166 22.4115531 49.0767719 29.0855811 40.9710571 29.2433625 32.8653423 29.401765 26.1657654 22.9842871 26.0067564 14.9094834 25.9680954 12.9105052 26.3328806 10.9978719 27.0275315 9.24861063M51.8781685 32.0449493C53.2434239 31.3536242 54.7826403 30.9513208 56.416521 30.9194795 62.2064088 30.80681 66.9918718 35.3907422 67.1049772 41.158316 67.2180825 46.9252774 62.6170304 51.6922975 56.8271426 51.8055793 51.0372548 51.9182487 46.2517917 47.3343165 46.1380717 41.5673551 46.11041 40.1393922 46.3710441 38.7726628 46.8677242 37.5235015"/>
    </g>
  </g>
</svg>
