<svg xmlns="http://www.w3.org/2000/svg" width="96" height="96" viewBox="0 0 96 96">
  <g fill="none">
    <rect width="96" height="96" fill="#F5F5F5" rx="4"/>
    <g transform="translate(8 23)">
      <path fill="#633FC5" d="M8.85777477,24.66872 C18.8404164,13.2387797 29.5415599,7.52380952 40.9612053,7.52380952 C52.3887875,7.52380952 62.976686,13.2467265 72.724901,24.6925603 L72.7249131,24.6925501 C73.5230153,25.6296391 73.4828049,27.0185994 72.6318274,27.9079477 C62.9093022,38.0688633 52.3524282,43.1493211 40.9612053,43.1493211 C29.5775792,43.1493211 18.9079295,38.0756373 8.95225633,27.9282698 L8.95225184,27.9282742 C8.07413458,27.033249 8.03297216,25.6131037 8.85777477,24.66872 Z"/>
      <path fill="#F5F5F5" d="M40.5806452,36.9047619 C33.9888594,36.9047619 28.6451613,31.5748184 28.6451613,25 C28.6451613,18.4251815 33.9888594,13.0952381 40.5806452,13.0952381 C47.1724309,13.0952381 52.516129,18.4251815 52.516129,25 C52.516129,31.5748184 47.1724309,36.9047619 40.5806452,36.9047619 Z M44.7433455,28.5995124 C45.9083218,27.5921985 46.6451613,26.1053214 46.6451613,24.4467892 C46.6451613,21.4126671 44.1791718,18.9530251 41.1372197,18.9530251 C39.4664126,18.9530251 37.9693625,19.6950521 36.9592463,20.8667355 C41.1372197,25.0005583 40.6462316,25.0005583 44.7433455,28.5995124 Z"/>
      <path stroke="#F5F5F5" stroke-linecap="square" stroke-width="3.6" d="M28.0483871 13.6904762L.596774194 41.0714286M32.8225806 18.452381L5.37096774 45.8333333M37.5967742 23.2142857L13.7258065 47.0238095M42.3709677 27.9761905L23.2741935 47.0238095M47.1451613 32.7380952L32.8225806 47.0238095M51.9193548 37.5L42.3709677 47.0238095"/>
      <path stroke="#633FC5" stroke-linecap="round" stroke-linejoin="round" stroke-width="3.6" d="M14.9193548,0.595238095 L66.2419355,49.4047619"/>
    </g>
  </g>
</svg>
