<svg xmlns="http://www.w3.org/2000/svg" xmlns:xlink="http://www.w3.org/1999/xlink" width="66" height="66" viewBox="0 0 66 66">
  <defs>
    <polygon id="colorvibrate-a" points=".41 .029 62.126 .029 62.126 62.292 .41 62.292"/>
  </defs>
  <g fill="none" fill-rule="evenodd" transform="translate(-14 -14)">
    <rect width="96" height="96" rx="4"/>
    <g transform="translate(15.5 15)">
      <g transform="translate(1.806 2.708)">
        <mask id="colorvibrate-b" fill="#fff">
          <use xlink:href="#colorvibrate-a"/>
        </mask>
        <path fill="#76D5D4" d="M57.7549209,62.2916667 L4.78132255,62.2916667 C2.37653637,62.2916667 0.409977522,60.3071534 0.409977522,57.8816372 L0.409977522,4.43924594 C0.409977522,2.01317847 2.37653637,0.0292164454 4.78132255,0.0292164454 L57.7549209,0.0292164454 C60.1591606,0.0292164454 62.1262659,2.01317847 62.1262659,4.43924594 L62.1262659,57.8816372 C62.1262659,60.3071534 60.1591606,62.2916667 57.7549209,62.2916667" mask="url(#colorvibrate-b)"/>
      </g>
      <path fill="#F5C54C" d="M51.5767392 18.9583333L14.326595 18.9583333C12.3974555 18.9583333 10.8333333 17.5435549 10.8333333 15.7986111 10.8333333 14.0536673 12.3974555 12.6388889 14.326595 12.6388889L51.5767392 12.6388889C53.5058788 12.6388889 55.0694444 14.0536673 55.0694444 15.7986111 55.0694444 17.5435549 53.5058788 18.9583333 51.5767392 18.9583333M51.5767392 30.6944444L14.326595 30.6944444C12.3974555 30.6944444 10.8333333 29.2795533 10.8333333 27.5349739 10.8333333 25.7898911 12.3974555 24.375 14.326595 24.375L51.5767392 24.375C53.5058788 24.375 55.0694444 25.7898911 55.0694444 27.5349739 55.0694444 29.2795533 53.5058788 30.6944444 51.5767392 30.6944444M51.5767392 42.4305556L14.326595 42.4305556C12.3974555 42.4305556 10.8333333 41.0156644 10.8333333 39.271085 10.8333333 37.5260023 12.3974555 36.1111111 14.326595 36.1111111L51.5767392 36.1111111C53.5058788 36.1111111 55.0694444 37.5260023 55.0694444 39.271085 55.0694444 41.0156644 53.5058788 42.4305556 51.5767392 42.4305556M51.5767392 53.2638889L14.326595 53.2638889C12.3974555 53.2638889 10.8333333 51.8491104 10.8333333 50.10467 10.8333333 48.3592229 12.3974555 46.9444444 14.326595 46.9444444L51.5767392 46.9444444C53.5058788 46.9444444 55.0694444 48.3592229 55.0694444 50.10467 55.0694444 51.8491104 53.5058788 53.2638889 51.5767392 53.2638889"/>
      <path stroke="#6A7070" stroke-linecap="round" stroke-linejoin="round" stroke-width="1.5" d="M15.5805279,0 L57.0407335,0 C59.4327625,0 61.3888889,1.9854445 61.3888889,4.41209889 L61.3888889,57.8795678 C61.3888889,60.3067737 59.4327625,62.2916667 57.0407335,62.2916667 L4.34815543,62.2916667 C1.95666994,62.2916667 0,60.3067737 0,57.8795678 L0,10.419723"/>
      <path stroke="#6A7070" stroke-linecap="round" stroke-linejoin="round" stroke-width="1.5" d="M25.7748733 10.8333333L50.6739614 10.8333333C52.603101 10.8333333 54.1666667 12.2481118 54.1666667 13.9925523 54.1666667 15.7379993 52.603101 17.1527778 50.6739614 17.1527778L13.4238173 17.1527778C11.4946777 17.1527778 9.93055556 15.7379993 9.93055556 13.9925523 9.93055556 12.2481118 11.4946777 10.8333333 13.4238173 10.8333333L15.8337116 10.8333333M38.3223489 22.5694444L13.4232608 22.5694444C11.4941212 22.5694444 9.93055556 23.9843356 9.93055556 25.728915 9.93055556 27.4739977 11.4941212 28.8888889 13.4232608 28.8888889L50.673405 28.8888889C52.6025445 28.8888889 54.1666667 27.4739977 54.1666667 25.728915 54.1666667 23.9843356 52.6025445 22.5694444 50.673405 22.5694444L48.2635107 22.5694444M25.7748733 34.3055556L50.6739614 34.3055556C52.603101 34.3055556 54.1666667 35.7204467 54.1666667 37.4650261 54.1666667 39.2101089 52.603101 40.625 50.6739614 40.625L13.4238173 40.625C11.4946777 40.625 9.93055556 39.2101089 9.93055556 37.4650261 9.93055556 35.7204467 11.4946777 34.3055556 13.4238173 34.3055556L15.8337116 34.3055556M38.3223489 45.1388889L13.4232608 45.1388889C11.4941212 45.1388889 9.93055556 46.5536673 9.93055556 48.2986111 9.93055556 50.0435549 11.4941212 51.4583333 13.4232608 51.4583333L50.673405 51.4583333C52.6025445 51.4583333 54.1666667 50.0435549 54.1666667 48.2986111 54.1666667 46.5536673 52.6025445 45.1388889 50.673405 45.1388889L48.2635107 45.1388889"/>
    </g>
  </g>
</svg>
