<svg xmlns="http://www.w3.org/2000/svg" xmlns:xlink="http://www.w3.org/1999/xlink" width="699" height="332" viewBox="0 0 699 332">
  <defs>
    <rect id="colorexample07-b" width="691" height="324" rx="4"/>
    <filter id="colorexample07-a" width="102%" height="104.3%" x="-1%" y="-1.5%" filterUnits="objectBoundingBox">
      <feOffset dy="2" in="SourceAlpha" result="shadowOffsetOuter1"/>
      <feGaussianBlur in="shadowOffsetOuter1" result="shadowBlurOuter1" stdDeviation="2"/>
      <feColorMatrix in="shadowBlurOuter1" values="0 0 0 0 0   0 0 0 0 0   0 0 0 0 0  0 0 0 0.2 0"/>
    </filter>
  </defs>
  <g fill="none" fill-rule="evenodd" transform="translate(4 2)">
    <use fill="#000" filter="url(#colorexample07-a)" xlink:href="#colorexample07-b"/>
    <use fill="#FFF" xlink:href="#colorexample07-b"/>
    <g transform="translate(376 24)">
      <circle cx="14" cy="14" r="14" fill="#DB0020" opacity=".2" transform="rotate(90 14 14)"/>
      <circle cx="14" cy="14" r="10" fill="#C94543" transform="rotate(90 14 14)"/>
      <path fill="#FFF" stroke="#FFF" stroke-linecap="round" stroke-linejoin="round" stroke-width=".5" d="M14.9395638,13.9999167 L17.8055041,11.133857 C18.064832,10.8745182 18.064832,10.4538428 17.8055041,10.1945041 C17.5461761,9.93516532 17.1255182,9.93516532 16.8661903,10.1945041 L14.00025,13.0605638 L11.1343097,10.1945041 C10.8749818,9.93516532 10.4543239,9.93516532 10.1949959,10.1945041 C9.93500135,10.4538428 9.93500135,10.8745182 10.1949959,11.133857 L13.0609362,13.9999167 L10.1949959,16.8659764 C9.93500135,17.1253151 9.93500135,17.5459905 10.1949959,17.8053293 C10.3243266,17.935332 10.494323,18 10.6643195,18 C10.834316,18 11.0043124,17.935332 11.1343097,17.8053293 L14.00025,14.9392696 L16.8661903,17.8053293 C16.9955209,17.935332 17.1655174,18 17.3355138,18 C17.5055103,18 17.6755068,17.935332 17.8055041,17.8053293 C18.064832,17.5459905 18.064832,17.1253151 17.8055041,16.8659764 L14.9395638,13.9999167 Z"/>
    </g>
    <path stroke="#E9E9E9" stroke-linecap="square" d="M345 .5L345 323.5M32.5 69L311.5 69M376 69L659 69"/>
    <text fill="#6A7070" font-family="OpenSans, Open Sans" font-size="14">
      <tspan x="32" y="99">Use the 14px / 20px multi-line height for </tspan> <tspan x="32" y="119">body copy (when the text wraps).</tspan>
    </text>
    <text fill="#252525" font-family="OpenSans, Open Sans" font-size="14">
      <tspan x="68" y="43">Do</tspan>
    </text>
    <text fill="#252525" font-family="OpenSans, Open Sans" font-size="14">
      <tspan x="412" y="43">Don’t</tspan>
    </text>
    <g transform="translate(32 24)">
      <rect width="24" height="24" x="2" y="2" transform="rotate(90 14 14)"/>
      <circle cx="14" cy="14" r="14" fill="#038238" opacity=".2" transform="rotate(90 14 14)"/>
      <circle cx="14" cy="14" r="10" fill="#038238" transform="rotate(90 14 14)"/>
      <path fill="#FFF" d="M18.2794817,16.7695408 L17.3207926,17.7087458 L15.2758562,19.6980554 C15.070032,19.8996965 14.8008772,20 14.5317225,20 C14.2625677,20 13.993413,19.8996965 13.7886443,19.6980554 C13.3769958,19.2958072 13.3769958,18.6433172 13.7886443,18.241069 L15.8335807,16.2517595 L9.80873633,10.7586724 C9.39708789,10.3564243 9.39708789,9.7039343 9.80873633,9.30168613 C10.2193293,8.89943796 10.8853553,8.89943796 11.2959483,9.30168613 L17.3207926,14.7947732 L18.2794817,15.7339783 C18.5756277,16.0241054 18.5713768,16.4835781 18.2794817,16.7695408 Z" transform="rotate(90 14 14.5)"/>
    </g>
    <text fill="#6A7070" font-family="OpenSans, Open Sans" font-size="14">
      <tspan x="376" y="99">Use the 14px / 18px single-line height style </tspan> <tspan x="376" y="119">for wrapping text.</tspan>
    </text>
    <text fill="#252525" font-family="OpenSans-Semibold, Open Sans" font-size="18" font-weight="500">
      <tspan x="32" y="175">Community psychology</tspan>
    </text>
    <text fill="#252525" font-family="OpenSans, Open Sans" font-size="14">
      <tspan x="32" y="207">Area of psychology in which psychologists </tspan> <tspan x="32" y="227">serve at various levels including individual, </tspan> <tspan x="32" y="247">group, and community, focusing on </tspan> <tspan x="32" y="267">promoting social welfare and preventing </tspan> <tspan x="32" y="287">social problems.</tspan>
    </text>
    <text fill="#252525" font-family="OpenSans-Semibold, Open Sans" font-size="18" font-weight="500">
      <tspan x="376" y="175">Community psychology</tspan>
    </text>
    <text fill="#252525" font-family="OpenSans, Open Sans" font-size="14">
      <tspan x="376" y="207">Area of psychology in which psychologists </tspan> <tspan x="376" y="225">serve at various levels including individual, </tspan> <tspan x="376" y="243">group, and community, focusing on </tspan> <tspan x="376" y="261">promoting social welfare and preventing </tspan> <tspan x="376" y="279">social problems.</tspan>
    </text>
  </g>
</svg>
