<svg xmlns="http://www.w3.org/2000/svg" width="343" height="167" viewBox="0 0 343 167">
  <g fill="#5030A8">
    <g transform="translate(283 89)">
      <path d="M58.4035714,0.150275229 L1.44642857,0.150275229 C0.739285714,0.150275229 0.164285714,0.726330275 0.164285714,1.43477064 L0.171428571,76.3183486 C0.171428571,77.030367 0.739285714,77.602844 1.44642857,77.602844 L58.4035714,77.602844 C59.1142857,77.602844 59.6892857,77.030367 59.6892857,76.3183486 L59.6892857,1.43477064 C59.6928571,0.726330275 59.1142857,0.150275229 58.4035714,0.150275229 Z M29.9285714,3.04844037 C30.2,3.04844037 30.4178571,3.27027523 30.4178571,3.54220183 C30.4178571,3.81412844 30.2,4.03238532 29.9285714,4.03238532 C29.6571429,4.03238532 29.4392857,3.81055046 29.4392857,3.54220183 C29.4392857,3.26669725 29.6535714,3.04844037 29.9285714,3.04844037 Z M29.9285714,76.4900917 C28.475,76.4900917 27.2928571,75.3093578 27.2928571,73.8566972 C27.2928571,72.3968807 28.475,71.2125688 29.9285714,71.2125688 C31.3821429,71.2125688 32.5678571,72.3968807 32.5678571,73.8566972 C32.5678571,75.3093578 31.3821429,76.4900917 29.9285714,76.4900917 Z M55.3357143,70.5184404 L4.525,70.5184404 L4.525,7.23110092 L55.3357143,7.23110092 L55.3357143,70.5184404 Z"/>
      <ellipse cx="29.929" cy="73.85" rx="2.186" ry="2.19"/>
    </g>
    <g transform="translate(0 105)">
      <ellipse cx="16.643" cy="56.326" rx="3.278" ry="3.233"/>
      <path d="M31.645484,0.191046512 L1.64093109,0.191046512 C0.906349467,0.191046512 0.306989336,1.01651163 0.306989336,2.03662791 L0.306989336,59.5776744 C0.306989336,60.594186 0.906349467,61.4268605 1.64093109,61.4268605 L31.645484,61.4268605 C32.3837203,61.4268605 32.9794258,60.5977907 32.9794258,59.5776744 L32.9794258,2.03662791 C32.9794258,1.02011628 32.3800656,0.191046512 31.645484,0.191046512 Z M12.0968417,4.67883721 L21.1895734,4.67883721 C21.3686505,4.67883721 21.5075267,4.82302326 21.5075267,4.99244186 C21.5075267,5.16906977 21.3649959,5.31325581 21.1895734,5.31325581 L12.0968417,5.31325581 C11.9177646,5.31325581 11.7752338,5.16906977 11.7752338,4.99244186 C11.7752338,4.82302326 11.9177646,4.67883721 12.0968417,4.67883721 Z M16.6432075,60.2445349 C14.4540812,60.2445349 12.6779286,58.4926744 12.6779286,56.3298837 C12.6779286,54.167093 14.4577358,52.4188372 16.6432075,52.4188372 C18.8286792,52.4188372 20.6084865,54.167093 20.6084865,56.3298837 C20.6084865,58.4926744 18.8286792,60.2445349 16.6432075,60.2445349 Z M30.5271657,51.4888372 L2.75559475,51.4888372 L2.75559475,10.1254651 L30.5271657,10.1254651 L30.5271657,51.4888372 Z"/>
    </g>
    <g transform="translate(19)">
      <path d="M19.7715961 106.563373L19.7715961 133.147321 83.0643943 133.147321 78.472309 148.373756 76.3278918 148.373756C75.8694053 148.373756 75.4939518 148.879498 75.4939518 149.50445 75.4939518 150.122177 75.8694053 150.627919 76.3278918 150.627919L126.880541 150.627919C127.342638 150.627919 127.714481 150.122177 127.714481 149.50445 127.714481 148.875885 127.342638 148.373756 126.880541 148.373756L124.739734 148.373756 120.147649 133.147321 145.16946 133.147321 145.16946 104.305598 19.3636514 104.305598C19.6235808 105.010024 19.7715961 105.768636 19.7715961 106.563373zM192.198622.599665072L11.017031.599665072C5.06392675.599665072.222742493 5.44394737.222742493 11.4008612L.222742493 100.060981 7.89787875 100.060981 7.89787875 8.6554067 195.321385 8.6554067 195.321385 72.4402632 203.000131 72.4402632 203.000131 11.4008612C202.996521 5.44394737 198.151727.599665072 192.198622.599665072z"/>
    </g>
    <path d="M275.996396 151L242.613488 151C242.433273 151.73044 241.669164 152.289731 240.746467 152.289731L223.626103 152.289731C222.707009 152.289731 221.939296 151.73044 221.759082 151L162 151 162 152.341687C162 154.355746 163.931898 156 166.314332 156L276 156 276 151 275.996396 151zM290.537646 82.9176554L295 82.9176554C294.245443 80.0916236 291.689338 78 288.620567 78L177.610493 78C173.964072 78 171 80.9592333 171 84.5952743L171 149 175.704245 149 175.704245 82.9176554 289.194608 82.9176554 290.537646 82.9176554z"/>
  </g>
</svg>
