<svg xmlns="http://www.w3.org/2000/svg" xmlns:xlink="http://www.w3.org/1999/xlink" width="699" height="267" viewBox="0 0 699 267">
  <defs>
    <rect id="hinttextdodont-b" width="691" height="259" rx="4"/>
    <filter id="hinttextdodont-a" width="102%" height="105.4%" x="-1%" y="-1.9%" filterUnits="objectBoundingBox">
      <feOffset dy="2" in="SourceAlpha" result="shadowOffsetOuter1"/>
      <feGaussianBlur in="shadowOffsetOuter1" result="shadowBlurOuter1" stdDeviation="2"/>
      <feColorMatrix in="shadowBlurOuter1" values="0 0 0 0 0   0 0 0 0 0   0 0 0 0 0  0 0 0 0.2 0"/>
    </filter>
  </defs>
  <g fill="none" fill-rule="evenodd" transform="translate(4 2)">
    <use fill="#000" filter="url(#hinttextdodont-a)" xlink:href="#hinttextdodont-b"/>
    <use fill="#FFF" xlink:href="#hinttextdodont-b"/>
    <circle cx="390" cy="38" r="14" fill="#DB0020" opacity=".2" transform="rotate(90 390 38)"/>
    <circle cx="390" cy="38" r="10" fill="#C94543" transform="rotate(90 390 38)"/>
    <path fill="#FFF" stroke="#FFF" stroke-linecap="round" stroke-linejoin="round" stroke-width=".5" d="M390.939564,37.9999167 L393.805504,35.133857 C394.064832,34.8745182 394.064832,34.4538428 393.805504,34.1945041 C393.546176,33.9351653 393.125518,33.9351653 392.86619,34.1945041 L390.00025,37.0605638 L387.13431,34.1945041 C386.874982,33.9351653 386.454324,33.9351653 386.194996,34.1945041 C385.935001,34.4538428 385.935001,34.8745182 386.194996,35.133857 L389.060936,37.9999167 L386.194996,40.8659764 C385.935001,41.1253151 385.935001,41.5459905 386.194996,41.8053293 C386.324327,41.935332 386.494323,42 386.664319,42 C386.834316,42 387.004312,41.935332 387.13431,41.8053293 L390.00025,38.9392696 L392.86619,41.8053293 C392.995521,41.935332 393.165517,42 393.335514,42 C393.50551,42 393.675507,41.935332 393.805504,41.8053293 C394.064832,41.5459905 394.064832,41.1253151 393.805504,40.8659764 L390.939564,37.9999167 Z"/>
    <path stroke="#E9E9E9" stroke-linecap="square" d="M345.5.5L345.5 258.5M32.5 69L311.5 69M376 68.25L659 68.25"/>
    <text fill="#6A7070" font-family="OpenSans, Open Sans" font-size="14">
      <tspan x="32" y="99">Provide text for the icon that represents </tspan> <tspan x="32" y="119">the action that the user is going to take.</tspan>
    </text>
    <text fill="#252525" font-family="OpenSans, Open Sans" font-size="14">
      <tspan x="68" y="43">Do</tspan>
    </text>
    <text fill="#252525" font-family="OpenSans, Open Sans" font-size="14">
      <tspan x="412" y="43">Don’t</tspan>
    </text>
    <g transform="translate(32 24)">
      <rect width="24" height="24" x="2" y="2" transform="rotate(90 14 14)"/>
      <circle cx="14" cy="14" r="14" fill="#038238" opacity=".2" transform="rotate(90 14 14)"/>
      <circle cx="14" cy="14" r="10" fill="#038238" transform="rotate(90 14 14)"/>
      <path fill="#FFF" d="M18.2794817,16.7695408 L17.3207926,17.7087458 L15.2758562,19.6980554 C15.070032,19.8996965 14.8008772,20 14.5317225,20 C14.2625677,20 13.993413,19.8996965 13.7886443,19.6980554 C13.3769958,19.2958072 13.3769958,18.6433172 13.7886443,18.241069 L15.8335807,16.2517595 L9.80873633,10.7586724 C9.39708789,10.3564243 9.39708789,9.7039343 9.80873633,9.30168613 C10.2193293,8.89943796 10.8853553,8.89943796 11.2959483,9.30168613 L17.3207926,14.7947732 L18.2794817,15.7339783 C18.5756277,16.0241054 18.5713768,16.4835781 18.2794817,16.7695408 Z" transform="rotate(90 14 14.5)"/>
    </g>
    <text fill="#6A7070" font-family="OpenSans, Open Sans" font-size="14">
      <tspan x="376" y="99">Show a description of the icon in the hover </tspan> <tspan x="376" y="119">state.</tspan>
    </text>
    <path fill="#252525" fill-rule="nonzero" d="M180,187.14272 L206,187.14272 C208.209139,187.14272 210,188.933581 210,191.14272 L210,215.002559 C210,217.211698 208.209139,219.002559 206,219.002559 L138,219.002559 C135.790861,219.002559 134,217.211698 134,215.002559 L134,191.14272 C134,188.933581 135.790861,187.14272 138,187.14272 L164,187.14272 L170.588894,180.582686 C171.369226,179.805771 172.630774,179.805771 173.411106,180.582686 L180,187.14272 Z"/>
    <text fill="#FFF" font-family="OpenSans-Semibold, Open Sans" font-size="14" font-weight="500">
      <tspan x="150" y="209">Delete</tspan>
    </text>
    <rect width="24" height="24" x="160" y="148"/>
    <path fill="#047A9C" fill-rule="nonzero" d="M165,152 L165,168.777778 C165,169.452792 165.447715,170 166,170 L178,170 C178.552285,170 179,169.452792 179,168.777778 L179,152 L165,152 Z M181,152 L181,169 C181,170.656854 179.656854,172 178,172 L166,172 C164.343146,172 163,170.656854 163,169 L163,152 L162,152 C161.447715,152 161,151.552285 161,151 C161,150.447715 161.447715,150 162,150 L169,150 C169,148.895431 169.895431,148 171,148 L173,148 C174.104569,148 175,148.895431 175,150 L182,150 C182.552285,150 183,150.447715 183,151 C183,151.552285 182.552285,152 182,152 L181,152 Z"/>
    <path fill="#047A9C" d="M167 154L169 154 169 167C169 167.552285 168.552285 168 168 168 167.447715 168 167 167.552285 167 167L167 154zM175 154L177 154 177 167C177 167.552285 176.552285 168 176 168 175.447715 168 175 167.552285 175 167L175 154zM171 154L173 154 173 167C173 167.552285 172.552285 168 172 168 171.447715 168 171 167.552285 171 167L171 154z"/>
    <path fill="#252525" fill-rule="nonzero" d="M526.088092,187.21373 L562,187.21373 C564.209139,187.21373 566,189.004591 566,191.21373 L566,215 C566,217.209139 564.209139,219 562,219 L473,219 C470.790861,219 469,217.209139 469,215 L469,191.21373 C469,189.004591 470.790861,187.21373 473,187.21373 L509.911908,187.21373 L516.590533,180.579712 C517.370483,179.804971 518.629517,179.804971 519.409467,180.579712 L526.088092,187.21373 Z"/>
    <text fill="#FFF" font-family="OpenSans-Semibold, Open Sans" font-size="14" font-weight="500">
      <tspan x="485" y="209">Trash can</tspan>
    </text>
    <g transform="translate(506 148)">
      <rect width="24" height="24"/>
      <path fill="#047A9C" fill-rule="nonzero" d="M5,4 L5,20.7777778 C5,21.4527925 5.44771525,22 6,22 L18,22 C18.5522847,22 19,21.4527925 19,20.7777778 L19,4 L5,4 Z M21,4 L21,21 C21,22.6568542 19.6568542,24 18,24 L6,24 C4.34314575,24 3,22.6568542 3,21 L3,4 L2,4 C1.44771525,4 1,3.55228475 1,3 C1,2.44771525 1.44771525,2 2,2 L9,2 C9,0.8954305 9.8954305,2.02906125e-16 11,0 L13,0 C14.1045695,-2.02906125e-16 15,0.8954305 15,2 L22,2 C22.5522847,2 23,2.44771525 23,3 C23,3.55228475 22.5522847,4 22,4 L21,4 Z"/>
      <path fill="#047A9C" d="M7 6L9 6 9 19C9 19.5522847 8.55228475 20 8 20 7.44771525 20 7 19.5522847 7 19L7 6zM15 6L17 6 17 19C17 19.5522847 16.5522847 20 16 20 15.4477153 20 15 19.5522847 15 19L15 6zM11 6L13 6 13 19C13 19.5522847 12.5522847 20 12 20 11.4477153 20 11 19.5522847 11 19L11 6z"/>
    </g>
  </g>
</svg>
