<svg xmlns="http://www.w3.org/2000/svg" width="129" height="71" viewBox="0 0 129 71">
  <g fill="none" fill-rule="evenodd">
    <g transform="translate(53 47)">
      <rect width="24" height="24"/>
      <path stroke="#047A9C" stroke-width="2" d="M7,22.9834919 L12.0881892,17 L21,17 C22.1045695,17 23,16.1045695 23,15 L23,4 C23,2.8954305 22.1045695,2 21,2 L3,2 C1.8954305,2 1,2.8954305 1,4 L1,15 C1,16.1045695 1.8954305,17 3,17 L7,17 L7,22.9834919 Z"/>
      <circle cx="7" cy="9.5" r="1.5" fill="#047A9C"/>
      <circle cx="12" cy="9.5" r="1.5" fill="#047A9C"/>
      <circle cx="17" cy="9.5" r="1.5" fill="#047A9C"/>
    </g>
    <path fill="#252525" fill-rule="nonzero" d="M72,7.1427201 L125,7.1427201 C127.209139,7.1427201 129,8.9335811 129,11.1427201 L129,35.002559 C129,37.211698 127.209139,39.002559 125,39.002559 L4,39.002559 C1.790861,39.002559 2.705415e-16,37.211698 0,35.002559 L0,11.1427201 C-2.705415e-16,8.9335811 1.790861,7.1427201 4,7.1427201 L56,7.1427201 L62.5888938,0.582685901 C63.3692262,-0.194228634 64.6307738,-0.194228634 65.4111062,0.582685901 L72,7.1427201 Z" transform="rotate(-180 64.5 19.501)"/>
    <text fill="#FFF" font-family="OpenSans-Semibold, Open Sans" font-size="14" font-weight="500">
      <tspan x="16" y="22">Send message</tspan>
    </text>
  </g>
</svg>
