<svg xmlns="http://www.w3.org/2000/svg" xmlns:xlink="http://www.w3.org/1999/xlink" width="748" height="232" viewBox="0 0 748 232">
  <defs>
    <circle id="iconclarity-a" cx="18" cy="18" r="18"/>
    <circle id="iconclarity-c" cx="18" cy="18" r="18"/>
  </defs>
  <g fill="none" fill-rule="evenodd">
    <text fill="#252525" font-family="OpenSans-Semibold, Open Sans" font-size="14" font-weight="500">
      <tspan x="0" y="69">Soft corners</tspan>
    </text>
    <text fill="#252525" font-family="OpenSans, Open Sans" font-size="14">
      <tspan x="0" y="91">We use rounded </tspan> <tspan x="0" y="109">corners to soften the </tspan> <tspan x="0" y="127">look of our icons.</tspan>
    </text>
    <text fill="#252525" font-family="OpenSans-Semibold, Open Sans" font-size="14" font-weight="500">
      <tspan x="649.337" y="110.316">Color options</tspan>
    </text>
    <text fill="#252525" font-family="OpenSans, Open Sans" font-size="14">
      <tspan x="600.385" y="132.33">Task and navigational </tspan> <tspan x="611.028" y="150.33">icons should be in a </tspan> <tspan x="617.563" y="168.33">high contrast tone.</tspan>
    </text>
    <g transform="translate(174)">
      <g opacity=".8" transform="translate(256 48)">
        <path stroke="#6A7070" stroke-linecap="round" stroke-width=".8" d="M.4.4L143.6 143.6M143.6.4L.4 143.6"/>
        <path stroke="#6A7070" stroke-width="8" d="M52.6 0L45.4 0 45.4 144 52.6 144 52.6 0zM75.6 0L68.4 0 68.4 144 75.6 144 75.6 0zM98.8 0L91.6 0 91.6 144 98.8 144 98.8 0z"/>
        <polygon fill="#6A7070" fill-rule="nonzero" points="0 72.4 0 71.6 144 71.6 144 72.4"/>
        <polygon fill="#6A7070" fill-rule="nonzero" points="0 95.6 0 94.8 144 94.8 144 95.6"/>
        <polygon fill="#6A7070" fill-rule="nonzero" points="0 49.2 0 48.4 144 48.4 144 49.2"/>
        <rect width="95.2" height="127.2" x="24.4" y="8.4" stroke="#6A7070" stroke-width=".8" rx="16"/>
        <rect width="127.2" height="95.2" x="8.4" y="24.4" stroke="#6A7070" stroke-width=".8" rx="16"/>
        <rect width="111.2" height="111.2" x="16.4" y="16.4" stroke="#6A7070" stroke-width=".8" rx="16"/>
        <circle cx="72" cy="72" r="63.6" stroke="#6A7070" stroke-width=".8"/>
        <circle cx="72" cy="72" r="47.6" stroke="#6A7070" stroke-width=".8"/>
        <circle cx="72" cy="72" r="31.6" stroke="#6A7070" stroke-width=".8"/>
        <rect width="143.2" height="143.2" x=".4" y=".4" stroke="#6A7070" stroke-width=".8"/>
      </g>
      <g transform="translate(257 48)">
        <rect width="144" height="144"/>
        <rect width="114" height="106" x="14.2" y="22.2" stroke="#6A7070" stroke-width="14" rx="17"/>
        <polygon fill="#6A7070" fill-rule="nonzero" points="7.2 60.4 7.2 46.4 135.2 46.4 135.2 60.4"/>
        <rect width="16" height="16" x="94.4" y="95.2" fill="#6A7070" rx="4"/>
        <rect width="16" height="16" x="94.4" y="69" fill="#6A7070" rx="4"/>
        <rect width="16" height="16" x="63" y="95" fill="#6A7070" rx="4"/>
        <rect width="16" height="16" x="63" y="69" fill="#6A7070" rx="4"/>
        <rect width="16" height="16" x="32" y="95" fill="#6A7070" rx="4"/>
        <path fill="#6A7070" d="M60 20C60 13.372583 54.627417 8 48 8 41.372583 8 36 13.372583 36 20M106.4 20C106.4 13.372583 101.027417 8 94.4 8 87.772583 8 82.4 13.372583 82.4 20"/>
      </g>
      <g opacity=".8">
        <path stroke="#6A7070" stroke-linecap="round" stroke-width=".8" d="M.4.4L191.6 190.8M191.6.4L.4 191.6"/>
        <polygon fill="#6A7070" fill-rule="nonzero" points="95.84 0 96.64 0 96.64 191.2 95.84 191.2"/>
        <polygon fill="#6A7070" fill-rule="nonzero" points="0 96.2 0 95.4 192 95.4 192 96.2"/>
        <polygon fill="#6A7070" fill-rule="nonzero" points="64 0 64.8 0 64.8 191.2 64 191.2"/>
        <polygon fill="#6A7070" fill-rule="nonzero" points="127.6 0 128.4 0 128.4 191.2 127.6 191.2"/>
        <polygon fill="#6A7070" fill-rule="nonzero" points="0 64.4 0 63.6 192 63.6 192 64.4"/>
        <polygon fill="#6A7070" fill-rule="nonzero" points="0 128 0 127.2 192 127.2 192 128"/>
        <rect width="159.2" height="159.2" x="16.4" y="16.4" stroke="#6A7070" stroke-width=".8" rx="16"/>
        <rect width="175.2" height="143.2" x="8.4" y="24.4" stroke="#6A7070" stroke-width=".8" rx="16"/>
        <rect width="143.2" height="175.2" x="24.4" y="8.4" stroke="#6A7070" stroke-width=".8" rx="16"/>
        <circle cx="96" cy="96" r="87.6" stroke="#6A7070" stroke-width=".8"/>
        <circle cx="96" cy="96" r="63.6" stroke="#6A7070" stroke-width=".8"/>
        <circle cx="96" cy="96" r="39.6" stroke="#6A7070" stroke-width=".8"/>
        <rect width="191.2" height="191.2" x=".4" y=".4" stroke="#6A7070" stroke-width=".8"/>
      </g>
      <rect width="192" height="192"/>
      <rect width="160" height="152" x="16" y="24" stroke="#6A7070" stroke-width="16" rx="20"/>
      <polygon fill="#6A7070" fill-rule="nonzero" points="16 72 16 56 176 56 176 72"/>
      <rect width="24" height="24" x="128" y="127.2" fill="#6A7070" rx="4"/>
      <rect width="24" height="24" x="128" y="88" fill="#6A7070" rx="4"/>
      <rect width="24" height="24" x="84" y="88" fill="#6A7070" rx="4"/>
      <rect width="24" height="24" x="84" y="127.2" fill="#6A7070" rx="4"/>
      <rect width="24" height="24" x="40.8" y="127.2" fill="#6A7070" rx="4"/>
      <path fill="#6A7070" d="M144 20C144 11.163444 136.836556 4 128 4 119.163444 4 112 11.163444 112 20M80 20C80 11.163444 72.836556 4 64 4 55.163444 4 48 11.163444 48 20"/>
      <text fill="#252525" font-family="OpenSans, Open Sans" font-size="16">
        <tspan x="52.469" y="228.234">24px grid</tspan>
      </text>
      <text fill="#252525" font-family="OpenSans, Open Sans" font-size="16">
        <tspan x="284.469" y="228.234">18px grid</tspan>
      </text>
    </g>
    <g transform="translate(0 2)">
      <path stroke="#DA0474" stroke-linecap="round" stroke-linejoin="round" d="M186.962891,20 L38.5,20"/>
      <circle cx="187" cy="20" r="4" fill="#DA0474" fill-rule="nonzero"/>
      <circle cx="187" cy="20" r="2" fill="#FFF" fill-rule="nonzero"/>
      <circle cx="20" cy="20" r="20" fill="#DA0474" fill-rule="nonzero"/>
      <g transform="translate(2 2)">
        <mask id="iconclarity-b" fill="#fff">
          <use xlink:href="#iconclarity-a"/>
        </mask>
        <use fill="#FFF" fill-rule="nonzero" xlink:href="#iconclarity-a"/>
        <path fill="#6A7070" d="M30,9 L35.2047082,9 C40.9013569,9 45.519403,13.6180462 45.519403,19.3146948 C45.519403,22.0807546 44.4084363,24.7309116 42.4359616,26.6700944 L27.6700944,41.1867396 C23.5790768,45.208708 17.0022021,45.1527326 12.9802336,41.0617149 C11.0702843,39.1189755 10,36.5036579 10,33.7792969 L10,29 C10,17.954305 18.954305,9 30,9 Z" mask="url(#iconclarity-b)"/>
      </g>
    </g>
    <g transform="rotate(-180 374 44)">
      <path stroke="#DA0474" stroke-linecap="round" stroke-linejoin="round" d="M204.5,18 L60.5,18"/>
      <circle cx="204" cy="18" r="4" fill="#DA0474" fill-rule="nonzero"/>
      <circle cx="204" cy="18" r="2" fill="#FFF" fill-rule="nonzero"/>
      <g transform="translate(24)">
        <use fill="#FFF" fill-rule="nonzero" xlink:href="#iconclarity-c"/>
      </g>
      <circle cx="40" cy="18" r="12" fill="#6A7070" fill-rule="nonzero"/>
      <circle cx="12" cy="18" r="12" fill="#252525" fill-rule="nonzero"/>
    </g>
  </g>
</svg>
