<svg xmlns="http://www.w3.org/2000/svg" width="216" height="240" viewBox="0 0 216 240">
  <g fill="none" fill-rule="evenodd">
    <rect width="215" height="239" x=".5" y=".5" fill="#FFF" stroke="#D9D9D9"/>
    <rect width="69" height="239" x=".5" y=".5" fill="#EEE" stroke="#D9D9D9"/>
    <rect width="70" height="32" fill="#D9D9D9"/>
    <g fill="#FFF" transform="translate(5 44)">
      <rect width="59" height="5" rx="2.5"/>
      <rect width="59" height="5" y="68" rx="2.5"/>
      <rect width="59" height="5" y="34" rx="2.5"/>
      <rect width="59" height="5" y="102" rx="2.5"/>
      <rect width="59" height="5" y="136" rx="2.5"/>
      <rect width="59" height="5" y="11" rx="2.5"/>
      <rect width="59" height="5" y="79" rx="2.5"/>
      <rect width="59" height="5" y="45" rx="2.5"/>
      <rect width="59" height="5" y="113" rx="2.5"/>
      <rect width="59" height="5" y="147" rx="2.5"/>
      <rect width="59" height="5" y="23" rx="2.5"/>
      <rect width="59" height="5" y="91" rx="2.5"/>
      <rect width="59" height="5" y="57" rx="2.5"/>
      <rect width="59" height="5" y="125" rx="2.5"/>
    </g>
  </g>
</svg>
