<svg xmlns="http://www.w3.org/2000/svg" width="353" height="382" viewBox="0 0 353 382">
  <g fill="none" fill-rule="evenodd">
    <rect width="352" height="276" x=".5" y="105.5" fill="#F5F5F5" stroke="#D9D9D9"/>
    <g transform="translate(19 123)">
      <rect width="96" height="76" x=".5" y="1.5" fill="#FFF" stroke="#D9D9D9" rx="4"/>
      <rect width="96" height="76" x=".5" y="92.5" fill="#FFF" stroke="#D9D9D9" rx="4"/>
      <rect width="96" height="76" x="109.5" y="1.5" fill="#FFF" stroke="#D9D9D9" rx="4"/>
      <rect width="96" height="76" x="109.5" y="92.5" fill="#FFF" stroke="#D9D9D9" rx="4"/>
      <rect width="96" height="76" x="218.5" y=".5" fill="#FFF" stroke="#D9D9D9" rx="4"/>
      <rect width="96" height="76" x="218.5" y="91.5" fill="#FFF" stroke="#D9D9D9" rx="4"/>
      <rect width="59" height="6" x="19" y="54" fill="#633FC5" rx="3"/>
      <rect width="59" height="6" x="19" y="145" fill="#633FC5" rx="3"/>
      <rect width="59" height="6" x="127" y="54" fill="#633FC5" rx="3"/>
      <rect width="59" height="6" x="127" y="145" fill="#633FC5" rx="3"/>
      <rect width="59" height="6" x="237" y="54" fill="#633FC5" rx="3"/>
      <rect width="59" height="6" x="237" y="145" fill="#633FC5" rx="3"/>
    </g>
    <rect width="352" height="105" x=".5" y=".5" fill="#FFF" stroke="#E9E9E9"/>
    <rect width="50" height="12" x="17.686" y="10.75" fill="#E9E9E9"/>
    <ellipse cx="328.25" cy="15.184" fill="#E9E9E9" rx="6.25" ry="6.184"/>
    <ellipse cx="306.25" cy="15.184" fill="#E9E9E9" rx="6.25" ry="6.184"/>
    <rect width="177.181" height="14" x="88" y="47" fill="#E9E9E9"/>
    <rect width="49.91" height="6" x="63" y="85" fill="#898989" rx="3"/>
    <rect width="49.91" height="6" x="122" y="85" fill="#633FC5" rx="3"/>
    <rect width="49.91" height="6" x="182" y="85" fill="#898989" rx="3"/>
    <rect width="49.91" height="6" x="242" y="85" fill="#898989" rx="3"/>
  </g>
</svg>
