<svg xmlns="http://www.w3.org/2000/svg" width="353" height="382" viewBox="0 0 353 382">
  <g fill="none" fill-rule="evenodd">
    <rect width="352" height="276" x=".5" y="105.5" fill="#F5F5F5" stroke="#D9D9D9"/>
    <g transform="translate(43 136)">
      <rect width="275" height="51" x=".5" y=".5" fill="#FFF" stroke="#D9D9D9" rx="4"/>
      <rect width="129" height="4" x="10" y="12" fill="#633FC5"/>
      <rect width="204" height="2" x="10" y="28" fill="#D9D9D9"/>
      <rect width="204" height="2" x="10" y="34" fill="#D9D9D9"/>
      <circle cx="259.5" cy="12.5" r="4.5" stroke="#633FC5"/>
      <circle cx="244.5" cy="12.5" r="4.5" stroke="#633FC5"/>
    </g>
    <g transform="translate(43 200)">
      <rect width="275" height="51" x=".5" y=".5" fill="#FFF" stroke="#D9D9D9" rx="4"/>
      <rect width="129" height="4" x="10" y="12" fill="#633FC5"/>
      <rect width="204" height="2" x="10" y="28" fill="#D9D9D9"/>
      <rect width="204" height="2" x="10" y="34" fill="#D9D9D9"/>
      <circle cx="259.5" cy="12.5" r="4.5" stroke="#633FC5"/>
      <circle cx="244.5" cy="12.5" r="4.5" stroke="#633FC5"/>
    </g>
    <g transform="translate(43 264)">
      <rect width="275" height="51" x=".5" y=".5" fill="#FFF" stroke="#D9D9D9" rx="4"/>
      <rect width="129" height="4" x="10" y="12" fill="#633FC5"/>
      <rect width="204" height="2" x="10" y="28" fill="#D9D9D9"/>
      <rect width="204" height="2" x="10" y="34" fill="#D9D9D9"/>
      <circle cx="259.5" cy="12.5" r="4.5" stroke="#633FC5"/>
      <circle cx="244.5" cy="12.5" r="4.5" stroke="#633FC5"/>
    </g>
    <rect width="352" height="105" x=".5" y=".5" fill="#FFF" stroke="#E9E9E9"/>
    <rect width="50" height="12" x="17.686" y="10.75" fill="#E9E9E9"/>
    <ellipse cx="328.25" cy="15.184" fill="#E9E9E9" rx="6.25" ry="6.184"/>
    <ellipse cx="306.25" cy="15.184" fill="#E9E9E9" rx="6.25" ry="6.184"/>
    <rect width="177.181" height="14" x="88" y="45" fill="#E9E9E9"/>
    <rect width="49.91" height="6" x="63" y="85" fill="#898989" rx="3"/>
    <rect width="49.91" height="6" x="122" y="85" fill="#633FC5" rx="3"/>
    <rect width="49.91" height="6" x="182" y="85" fill="#898989" rx="3"/>
    <rect width="49.91" height="6" x="242" y="85" fill="#898989" rx="3"/>
  </g>
</svg>
