<svg xmlns="http://www.w3.org/2000/svg" width="353" height="382" viewBox="0 0 353 382">
  <g fill="none" fill-rule="evenodd">
    <rect width="352" height="276" x=".5" y="105.5" fill="#F5F5F5" stroke="#D9D9D9"/>
    <rect width="352" height="105" x=".5" y=".5" fill="#FFF" stroke="#E9E9E9"/>
    <rect width="352" height="23" x=".5" y="105.5" fill="#FFF" stroke="#E9E9E9"/>
    <rect width="50" height="12" x="17.686" y="10.75" fill="#E9E9E9"/>
    <ellipse cx="328.25" cy="15.184" fill="#E9E9E9" rx="6.25" ry="6.184"/>
    <ellipse cx="306.25" cy="15.184" fill="#E9E9E9" rx="6.25" ry="6.184"/>
    <rect width="177.181" height="14" x="88" y="47" fill="#E9E9E9"/>
    <rect width="49.91" height="6" x="63" y="85" fill="#898989" rx="3"/>
    <rect width="49.91" height="6" x="122" y="85" fill="#633FC5" rx="3"/>
    <rect width="49.91" height="6" x="182" y="85" fill="#898989" rx="3"/>
    <rect width="49.91" height="6" x="242" y="85" fill="#898989" rx="3"/>
    <path fill="#633FC5" d="M19.7182766,119.682784 L19.6910392,114.206228 C19.6883239,113.825938 19.9860297,113.519768 20.3558055,113.52256 C20.7251037,113.524861 21.0264394,113.834765 21.0286772,114.214564 L21.0557455,119.657115 L23.2079496,117.476509 C23.4748804,117.213239 23.907871,117.213239 24.1748019,117.476509 C24.4417327,117.739104 24.4417327,118.165062 24.1748019,118.427657 L20.9198556,121.797446 C20.6320831,122.095372 20.1572807,122.103603 19.8593548,121.815831 C19.8534547,121.810132 19.8476486,121.804336 19.8419387,121.798447 L16.5751981,118.428987 C16.3082673,118.166391 16.3082673,117.740434 16.5751981,117.477838 C16.842129,117.214568 17.2751196,117.214568 17.5420504,117.477838 L19.7182766,119.682784 Z" transform="rotate(90 20.375 117.875)"/>
    <rect width="177" height="8" x="88" y="147" fill="#D9D9D9"/>
    <g transform="translate(16 172)">
      <path fill="#FFF" stroke="#D9D9D9" d="M0.5,209.5 L320.5,209.5 L320.5,4 C320.5,2.06700338 318.932997,0.5 317,0.5 L4,0.5 C2.06700338,0.5 0.5,2.06700338 0.5,4 L0.5,209.5 Z"/>
      <g fill="#D9D9D9" transform="translate(41 23)">
        <rect width="240" height="3"/>
        <rect width="240" height="3" y="76"/>
        <rect width="240" height="3" y="19"/>
        <rect width="240" height="3" y="95"/>
        <rect width="240" height="3" y="152"/>
        <rect width="240" height="3" y="38"/>
        <rect width="240" height="3" y="114"/>
        <rect width="240" height="3" y="171"/>
        <rect width="240" height="3" y="57"/>
        <rect width="240" height="3" y="133"/>
      </g>
    </g>
  </g>
</svg>
