<svg xmlns="http://www.w3.org/2000/svg" width="353" height="382" viewBox="0 0 353 382">
  <g fill="none" fill-rule="evenodd">
    <rect width="352" height="352" x=".5" y="29.5" fill="#F5F5F5" stroke="#D9D9D9"/>
    <rect width="352" height="29" x=".5" y=".5" fill="#FFF" stroke="#E9E9E9"/>
    <path fill="#633FC5" d="M22.9395638,15.9999167 L25.8055041,13.133857 C26.064832,12.8745182 26.064832,12.4538428 25.8055041,12.1945041 C25.5461761,11.9351653 25.1255182,11.9351653 24.8661903,12.1945041 L22.00025,15.0605638 L19.1343097,12.1945041 C18.8749818,11.9351653 18.4543239,11.9351653 18.1949959,12.1945041 C17.9350014,12.4538428 17.9350014,12.8745182 18.1949959,13.133857 L21.0609362,15.9999167 L18.1949959,18.8659764 C17.9350014,19.1253151 17.9350014,19.5459905 18.1949959,19.8053293 C18.3243266,19.935332 18.494323,20 18.6643195,20 C18.834316,20 19.0043124,19.935332 19.1343097,19.8053293 L22.00025,16.9392696 L24.8661903,19.8053293 C24.9955209,19.935332 25.1655174,20 25.3355138,20 C25.5055103,20 25.6755068,19.935332 25.8055041,19.8053293 C26.064832,19.5459905 26.064832,19.1253151 25.8055041,18.8659764 L22.9395638,15.9999167 Z"/>
    <ellipse cx="331.25" cy="15.184" fill="#FFF" stroke="#633FC5" rx="5.75" ry="5.684"/>
    <ellipse cx="310.25" cy="15.184" fill="#FFF" stroke="#633FC5" rx="5.75" ry="5.684"/>
    <ellipse cx="289.75" cy="15.184" fill="#FFF" stroke="#633FC5" rx="5.75" ry="5.684"/>
    <path fill="#FFF" stroke="#D9D9D9" d="M16.5,381.5 L336.5,381.5 L336.5,48 C336.5,46.0670034 334.932997,44.5 333,44.5 L20,44.5 C18.0670034,44.5 16.5,46.0670034 16.5,48 L16.5,381.5 Z"/>
    <g fill="#D9D9D9" transform="translate(55 69)">
      <rect width="240" height="3"/>
      <rect width="240" height="3" y="76"/>
      <rect width="240" height="3" y="190"/>
      <rect width="240" height="3" y="19"/>
      <rect width="240" height="3" y="95"/>
      <rect width="240" height="3" y="209"/>
      <rect width="240" height="3" y="152"/>
      <rect width="240" height="3" y="266"/>
      <rect width="240" height="3" y="38"/>
      <rect width="240" height="3" y="114"/>
      <rect width="240" height="3" y="228"/>
      <rect width="240" height="3" y="171"/>
      <rect width="240" height="3" y="285"/>
      <rect width="240" height="3" y="57"/>
      <rect width="240" height="3" y="133"/>
      <rect width="240" height="3" y="247"/>
    </g>
    <rect width="164" height="8" x="88" y="11" fill="#E9E9E9"/>
  </g>
</svg>
