<svg xmlns="http://www.w3.org/2000/svg" width="180" height="382" viewBox="0 0 180 382">
  <g fill="none" fill-rule="evenodd">
    <rect width="179" height="320" x=".5" y=".5" fill="#F5F5F5" stroke="#E9E9E9" transform="translate(0 61)"/>
    <path fill="#FFF" stroke="#D9D9D9" d="M0.5,380.5 L179.5,380.5 L179.5,81 C179.5,79.0670034 177.932997,77.5 176,77.5 L4,77.5 C2.06700338,77.5 0.5,79.0670034 0.5,81 L0.5,380.5 Z"/>
    <g fill="#D9D9D9" transform="translate(23 100)">
      <rect width="134.579" height="3"/>
      <rect width="134.579" height="3" y="76"/>
      <rect width="134.579" height="3" y="190"/>
      <rect width="134.579" height="3" y="19"/>
      <rect width="134.579" height="3" y="95"/>
      <rect width="134.579" height="3" y="209"/>
      <rect width="134.579" height="3" y="152"/>
      <rect width="134.579" height="3" y="266"/>
      <rect width="134.579" height="3" y="38"/>
      <rect width="134.579" height="3" y="114"/>
      <rect width="134.579" height="3" y="228"/>
      <rect width="134.579" height="3" y="171"/>
      <rect width="134.579" height="3" y="57"/>
      <rect width="134.579" height="3" y="133"/>
      <rect width="134.579" height="3" y="247"/>
    </g>
    <g fill="#FFF">
      <rect width="179" height="63" x=".5" y=".5" stroke="#E9E9E9"/>
      <circle cx="161" cy="14.471" r="6" stroke="#633FC5"/>
      <circle cx="139" cy="14" r="6" stroke="#633FC5"/>
      <circle cx="117" cy="14" r="6" stroke="#633FC5"/>
    </g>
    <path fill="#633FC5" d="M18.1744547,14.9998958 L21.7568801,11.4173212 C22.08104,11.0931478 22.08104,10.5673035 21.7568801,10.2431301 C21.4327202,9.91895664 20.9068978,9.91895664 20.5827379,10.2431301 L17.0003125,13.8257047 L13.4178871,10.2431301 C13.0937272,9.91895664 12.5679048,9.91895664 12.2437449,10.2431301 C11.9187517,10.5673035 11.9187517,11.0931478 12.2437449,11.4173212 L15.8261703,14.9998958 L12.2437449,18.5824705 C11.9187517,18.9066439 11.9187517,19.4324882 12.2437449,19.7566616 C12.4054082,19.919165 12.6179038,20 12.8303994,20 C13.0428949,20 13.2553905,19.919165 13.4178871,19.7566616 L17.0003125,16.174087 L20.5827379,19.7566616 C20.7444012,19.919165 20.9568967,20 21.1693923,20 C21.3818879,20 21.5943835,19.919165 21.7568801,19.7566616 C22.08104,19.4324882 22.08104,18.9066439 21.7568801,18.5824705 L18.1744547,14.9998958 Z"/>
    <rect width="130" height="8" x="25" y="40" fill="#D9D9D9"/>
  </g>
</svg>
