<svg xmlns="http://www.w3.org/2000/svg" width="180" height="382" viewBox="0 0 180 382">
  <defs>
    <linearGradient id="navigationsmall01-a" x1="0%" x2="98.038%" y1="37.719%" y2="37.719%">
      <stop offset="0%" stop-color="#FFF" stop-opacity="0"/>
      <stop offset="100%" stop-color="#FFF"/>
    </linearGradient>
  </defs>
  <g fill="none" fill-rule="evenodd">
    <rect width="179" height="276" x=".5" y=".5" fill="#F5F5F5" stroke="#E9E9E9" transform="translate(0 105)"/>
    <rect width="130" height="8" x="25" y="142" fill="#D9D9D9"/>
    <path fill="#FFF" stroke="#D9D9D9" d="M0.5,381.5 L179.5,381.5 L179.5,168 C179.5,166.067003 177.932997,164.5 176,164.5 L4,164.5 C2.06700338,164.5 0.5,166.067003 0.5,168 L0.5,381.5 Z"/>
    <g fill="#D9D9D9" transform="translate(23 187)">
      <rect width="134.579" height="3"/>
      <rect width="134.579" height="3" y="76"/>
      <rect width="134.579" height="3" y="19"/>
      <rect width="134.579" height="3" y="95"/>
      <rect width="134.579" height="3" y="152"/>
      <rect width="134.579" height="3" y="38"/>
      <rect width="134.579" height="3" y="114"/>
      <rect width="134.579" height="3" y="171"/>
      <rect width="134.579" height="3" y="57"/>
      <rect width="134.579" height="3" y="133"/>
    </g>
    <rect width="179" height="105" x=".5" y=".5" fill="#FFF" stroke="#E9E9E9"/>
    <ellipse cx="161.25" cy="15.184" fill="#E9E9E9" rx="6.25" ry="6.184"/>
    <ellipse cx="139.25" cy="15.184" fill="#E9E9E9" rx="6.25" ry="6.184"/>
    <rect width="151.5" height="17.77" x="14" y="42" fill="#E9E9E9"/>
    <rect width="49.91" height="6" x="13" y="85" fill="#898989" rx="3"/>
    <rect width="49.91" height="6" x="72" y="85" fill="#633FC5" rx="3"/>
    <rect width="44" height="6" x="132" y="85" fill="#898989" rx="3"/>
    <rect width="40" height="12" x="13" y="10" fill="#E9E9E9"/>
    <rect width="76" height="33" x="103" y="72" fill="url(#navigationsmall01-a)"/>
    <rect width="179" height="23" x=".5" y="104.5" fill="#FFF" stroke="#E9E9E9"/>
    <path fill="#633FC5" d="M19.5932766,117.807784 L19.5660392,112.331228 C19.5633239,111.950938 19.8610297,111.644768 20.2308055,111.64756 C20.6001037,111.649861 20.9014394,111.959765 20.9036772,112.339564 L20.9307455,117.782115 L23.0829496,115.601509 C23.3498804,115.338239 23.782871,115.338239 24.0498019,115.601509 C24.3167327,115.864104 24.3167327,116.290062 24.0498019,116.552657 L20.7948556,119.922446 C20.5070831,120.220372 20.0322807,120.228603 19.7343548,119.940831 C19.7284547,119.935132 19.7226486,119.929336 19.7169387,119.923447 L16.4501981,116.553987 C16.1832673,116.291391 16.1832673,115.865434 16.4501981,115.602838 C16.717129,115.339568 17.1501196,115.339568 17.4170504,115.602838 L19.5932766,117.807784 Z" transform="rotate(90 20.25 116)"/>
  </g>
</svg>
