<svg xmlns="http://www.w3.org/2000/svg" width="162" height="344" viewBox="0 0 162 344">
  <g fill="none" fill-rule="evenodd">
    <rect width="161.1" height="288.168" x=".45" y=".45" fill="#EEE" stroke="#E9E9E9" stroke-width=".9" transform="translate(0 54.932)"/>
    <path fill="#FFF" stroke="#D9D9D9" stroke-width=".9" d="M0.45,342.649476 L161.55,342.649476 L161.55,72.9403141 C161.55,71.2006172 160.139697,69.7903141 158.4,69.7903141 L3.6,69.7903141 C1.86030304,69.7903141 0.45,71.2006172 0.45,72.9403141 L0.45,342.649476 Z"/>
    <g fill="#D9D9D9" transform="translate(20.7 90.052)">
      <rect width="121.121" height="2.702"/>
      <rect width="121.121" height="2.702" y="68.44"/>
      <rect width="121.121" height="2.702" y="171.099"/>
      <rect width="121.121" height="2.702" y="17.11"/>
      <rect width="121.121" height="2.702" y="85.55"/>
      <rect width="121.121" height="2.702" y="188.209"/>
      <rect width="121.121" height="2.702" y="136.88"/>
      <rect width="121.121" height="2.702" y="239.539"/>
      <rect width="121.121" height="2.702" y="34.22"/>
      <rect width="121.121" height="2.702" y="102.66"/>
      <rect width="121.121" height="2.702" y="205.319"/>
      <rect width="121.121" height="2.702" y="153.99"/>
      <rect width="121.121" height="2.702" y="51.33"/>
      <rect width="121.121" height="2.702" y="119.77"/>
      <rect width="121.121" height="2.702" y="222.429"/>
    </g>
    <g stroke-width=".9">
      <rect width="161.1" height="56.734" x=".45" y=".45" fill="#FFF" stroke="#E9E9E9"/>
      <ellipse cx="144.9" cy="13.031" stroke="#047A9C" rx="5.4" ry="5.403"/>
      <ellipse cx="125.1" cy="12.607" stroke="#047A9C" rx="5.4" ry="5.403"/>
      <ellipse cx="105.3" cy="12.607" stroke="#047A9C" rx="5.4" ry="5.403"/>
    </g>
    <path fill="#047A9C" d="M16.3570092,13.5077596 L19.5811921,10.2815667 C19.872936,9.98964093 19.872936,9.51610576 19.5811921,9.22417995 C19.2894481,8.93225415 18.816208,8.93225415 18.5244641,9.22417995 L15.3002812,12.4503728 L12.0760984,9.22417995 C11.7843545,8.93225415 11.3111144,8.93225415 11.0193704,9.22417995 C10.7268765,9.51610576 10.7268765,9.98964093 11.0193704,10.2815667 L14.2435533,13.5077596 L11.0193704,16.7339525 C10.7268765,17.0258783 10.7268765,17.4994134 11.0193704,17.7913392 C11.1648674,17.9376774 11.3561134,18.0104712 11.5473594,18.0104712 C11.7386054,18.0104712 11.9298515,17.9376774 12.0760984,17.7913392 L15.3002812,14.5651464 L18.5244641,17.7913392 C18.669961,17.9376774 18.8612071,18.0104712 19.0524531,18.0104712 C19.2436991,18.0104712 19.4349451,17.9376774 19.5811921,17.7913392 C19.872936,17.4994134 19.872936,17.0258783 19.5811921,16.7339525 L16.3570092,13.5077596 Z"/>
    <rect width="117" height="7.204" x="22.5" y="36.021" fill="#D9D9D9"/>
  </g>
</svg>
