<svg xmlns="http://www.w3.org/2000/svg" width="353" height="382" viewBox="0 0 353 382">
  <g fill="none" fill-rule="evenodd">
    <g transform="translate(0 105)">
      <rect width="352" height="276" x=".5" y=".5" fill="#F5F5F5" stroke="#E9E9E9"/>
      <rect width="320" height="220" x="16.5" y="41.5" fill="#FFF" stroke="#D9D9D9" rx="4"/>
      <g transform="translate(76 20)">
        <rect width="59.06" height="6" fill="#633FC5" rx="3"/>
        <rect width="59.06" height="6" x="70" fill="#898989" rx="3"/>
        <rect width="59.06" height="6" x="141" fill="#898989" rx="3"/>
      </g>
    </g>
    <rect width="352" height="105" x=".5" y=".5" fill="#FFF" stroke="#E9E9E9"/>
    <rect width="50" height="12" x="17.686" y="8.75" fill="#E9E9E9"/>
    <ellipse cx="328.25" cy="15.184" fill="#E9E9E9" rx="6.25" ry="6.184"/>
    <ellipse cx="306.25" cy="15.184" fill="#E9E9E9" rx="6.25" ry="6.184"/>
    <rect width="177.181" height="14" x="88" y="46" fill="#E9E9E9"/>
    <rect width="49.91" height="6" x="63" y="85" fill="#898989" rx="3"/>
    <rect width="49.91" height="6" x="122" y="85" fill="#633FC5" rx="3"/>
    <rect width="49.91" height="6" x="182" y="85" fill="#898989" rx="3"/>
    <rect width="49.91" height="6" x="242" y="85" fill="#898989" rx="3"/>
  </g>
</svg>
