<svg xmlns="http://www.w3.org/2000/svg" width="28" height="28" viewBox="0 0 28 28">
  <g fill="none" fill-rule="evenodd">
    <rect width="24" height="24" x="2" y="2" transform="rotate(90 14 14)"/>
    <circle cx="14" cy="14" r="14" fill="#84BD00" opacity=".4" transform="rotate(90 14 14)"/>
    <circle cx="14" cy="14" r="10" fill="#038238" transform="rotate(90 14 14)"/>
    <path fill="#FFF" d="M17.7794817,16.7695408 L16.8207926,17.7087458 L14.7758562,19.6980554 C14.570032,19.8996965 14.3008772,20 14.0317225,20 C13.7625677,20 13.493413,19.8996965 13.2886443,19.6980554 C12.8769958,19.2958072 12.8769958,18.6433172 13.2886443,18.241069 L15.3335807,16.2517595 L9.30873633,10.7586724 C8.89708789,10.3564243 8.89708789,9.7039343 9.30873633,9.30168613 C9.71932926,8.89943796 10.3853553,8.89943796 10.7959483,9.30168613 L16.8207926,14.7947732 L17.7794817,15.7339783 C18.0756277,16.0241054 18.0713768,16.4835781 17.7794817,16.7695408 Z" transform="rotate(90 13.5 14.5)"/>
  </g>
</svg>
