<svg xmlns="http://www.w3.org/2000/svg" width="749" height="226" viewBox="0 0 749 226">
  <g fill="none" fill-rule="evenodd" transform="translate(1)">
    <g transform="translate(0 184)">
      <rect width="746.867" height="40" y="1.846" fill="#FFF"/>
      <path stroke="#F5F5F5" stroke-linecap="square" d="M746.867188,1.38461538 L0,1.38461538"/>
      <g transform="rotate(-180 30 16.5)">
        <rect width="24" height="24"/>
        <path fill="#6A7070" d="M11.594982,15.7071389 L11.5405072,4.75402705 C11.5350765,3.99344758 12.1304881,3.38110636 12.8700397,3.38669143 C13.6086361,3.39129424 14.2113076,4.01110171 14.2157831,4.77069892 L14.2699197,15.6558016 L18.5743279,11.294589 C19.1081896,10.7680485 19.9741708,10.7680485 20.5080325,11.294589 C21.0418941,11.8197794 21.0418941,12.6716949 20.5080325,13.1968854 L13.6391789,20.3080899 C13.2554822,20.7053244 12.6224124,20.716299 12.2251778,20.3326023 C12.2173111,20.3250036 12.2095696,20.3172765 12.2019563,20.3094238 L5.30882498,13.1995443 C4.77496332,12.6743539 4.77496332,11.8224383 5.30882498,11.2972479 C5.84268664,10.7707074 6.7086679,10.7707074 7.24252956,11.2972479 L11.594982,15.7071389 Z" transform="rotate(-90 12.908 12)"/>
      </g>
    </g>
    <rect width="747" height="72" fill="#FFF"/>
    <g transform="translate(32 18)">
      <path fill="#000" d="M70.9132256 23.8030245C70.6306087 24.1949871 69.7082349 25.3653236 68.560777 25.3653236 67.009076 25.3653236 66.6833938 24.2760712 66.6833938 23.3626133 66.6833938 21.8602021 67.8335433 21.1654357 70.9132256 20.4048937L70.9132256 23.8030245zM74.7472256 25.6432301C74.7024779 25.5266507 74.5813564 25.4603703 74.4622536 25.4884638L74.4245714 25.4980525C74.0707957 25.5747628 73.7986087 25.5532301 73.6078424 25.4245385 73.3375059 25.241174 73.2057863 24.8283516 73.2057863 24.1625198L73.2057863 18.1397535C73.2057863 15.7873049 71.8029639 14.5945946 69.0358424 14.5945946 66.5573938 14.5945946 64.6159172 15.7676226 64.6159172 17.2651553 64.6159172 18.035118 65.0849265 18.5916039 65.7778424 18.6752114 66.230534 18.7297161 66.6621975 18.5248189 66.9759358 18.1939217 67.5852443 17.5508002 67.5061788 16.786389 66.7675059 15.9652862 67.2043844 15.5080525 67.9782162 15.2375479 68.8608891 15.2375479 70.2993751 15.2375479 70.9132256 16.0906133 70.9132256 18.0899591L70.9132256 19.6118843C70.5759358 19.7161834 70.2603471 19.814931 69.6831695 19.9503516 68.5185527 20.2237161 66.9207583 20.5875852 65.7155994 21.2535852 64.7207209 21.7988002 64.2162162 22.6597722 64.2162162 23.8127815 64.2162162 25.0675666 65.0398424 26.5329684 67.3613377 26.5329684 68.6612069 26.5329684 69.8261601 25.9160899 71.021562 24.5936787 71.1245153 25.9682395 71.6455059 26.483174 72.9092069 26.483174 73.5166648 26.483174 74.002833 26.3415292 74.5806835 26.0619404 74.7373003 25.9862395 74.8118237 25.8045572 74.7472256 25.6432301L74.7472256 25.6432301zM100.023145 15.2375479C98.6018176 15.2375479 96.9707148 15.8487067 96.9707148 20.6139965 96.9707148 24.2484824 98.0426401 26.0150058 100.247892 26.0150058 102.358603 26.0150058 103.299818 24.3492488 103.299818 20.6139965 103.299818 16.9959965 102.228061 15.2375479 100.023145 15.2375479zM100.147631 26.6582955C96.8586774 26.6582955 94.3783784 24.0812675 94.3783784 20.6637909 94.3783784 17.3171367 96.9666774 14.5945946 100.147631 14.5945946 103.368958 14.5945946 105.892322 17.2163703 105.892322 20.5638656 105.892322 24.3280525 102.910547 26.6582955 100.147631 26.6582955L100.147631 26.6582955zM43.8884329 23.9265148L43.8884329 19.5695054 45.5657974 19.5695054C48.0688068 19.5695054 49.9729376 19.0397671 51.225704 17.9947578 52.5348255 16.9024774 52.8095357 15.5184961 52.8095357 14.5500288 52.8095357 10.5661409 48.9656105 9.73006618 45.7407507 9.73006618L45.7538722 9.72972973 39.212975 9.72972973C39.0649376 9.72972973 38.944489 9.85017833 38.944489 9.99821571L38.944489 10.0160475 38.9443208 10.0103279C38.9443208 10.1470942 39.02776 10.2688886 39.1561152 10.3159914 39.7386759 10.5301409 41.3211619 10.228683 41.3211619 11.925898L41.3213301 23.9241596C41.3213301 24.7969073 40.934246 25.4126082 39.1650311 25.579655 39.0249002 25.5931129 38.9189189 25.7080101 38.9189189 25.8467952L38.9189189 25.8880101C38.9189189 26.0360475 39.0393675 26.1564961 39.1874049 26.1564961L46.1754423 26.1564961C46.3233114 26.1564961 46.4439283 26.0360475 46.4439283 25.8880101L46.4439283 25.8513372C46.4439283 25.7125522 46.3339096 25.5951316 46.1937787 25.584197 44.2718161 25.43044 43.8859096 24.834926 43.8859096 23.9241596L43.8859096 19.5770755M49.9174236 14.499898C49.9174236 17.271898 49.2342647 18.7990381 45.7407507 18.7990381L43.8884329 18.7990381 43.8884329 10.4231503 45.815947 10.4231503C49.4300778 10.4231503 49.9174236 12.483898 49.9174236 14.499898M55.1222789 19.1245385C55.3771387 16.6270806 56.3518303 15.2580712 57.8825032 15.2580712 58.6487648 15.2580712 59.2165218 15.4700338 59.6180733 15.9064077 60.169849 16.5057909 60.4030078 17.5883142 60.3113256 19.1245385L55.1222789 19.1245385zM58.0569518 14.5945946C55.01512 14.5945946 52.5405405 17.3487628 52.5405405 20.7341086 52.5405405 24.161174 54.8606901 26.6487067 58.0569518 26.6487067 60.7429891 26.6487067 62.0497555 25.0440152 62.7990265 23.8368376 62.872877 23.7182395 62.8405779 23.5607815 62.7256807 23.4785198L62.6903536 23.4534544C62.5744471 23.3708563 62.41312 23.393903 62.3237929 23.5066133 61.3359798 24.7447441 60.4718116 25.4615479 58.9789891 25.4615479 57.0908396 25.4615479 55.073662 24.1606694 55.073662 20.5096974L55.073662 20.4826133C55.0704658 20.3212862 55.0743349 20.1002395 55.0802228 19.8939965L62.8050826 19.8939965C62.8262789 19.8939965 62.843606 19.8775105 62.84512 19.8566507L62.8494938 19.7945759C62.9585032 18.296875 62.5349144 16.9520899 61.6569518 16.0073423 60.797662 15.083118 59.552634 14.5945946 58.0569518 14.5945946L58.0569518 14.5945946zM90.2200328 19.2596226C90.2193599 19.2592862 90.2185188 19.2592862 90.2176777 19.259118 88.1051169 18.666632 87.2819955 18.0667441 87.2819955 17.1199778 87.2819955 16.0409871 88.1384254 15.2580712 89.3181824 15.2580712 90.7062011 15.2580712 91.3005375 15.9213796 92.7656029 18.3708937L92.7851169 18.4035292C92.7921824 18.4158095 92.8054721 18.4235479 92.8196029 18.4235479L93.020631 18.4235479C93.1685001 18.4235479 93.2891169 18.302931 93.2891169 18.1550619L93.2891169 14.6349684C93.2891169 14.6125946 93.2709487 14.5945946 93.2487431 14.5945946L92.9836216 14.5945946C92.902874 14.5945946 92.827173 14.6304264 92.7762011 14.6928376L92.3085375 15.2619404C91.7180702 14.9364264 90.7568366 14.5945946 89.7920702 14.5945946 87.3659394 14.5945946 85.6712478 16.094146 85.6712478 18.2413609 85.6712478 20.2565198 87.0074534 21.0118469 89.3148179 21.6349497 91.5567431 22.248632 92.3512665 22.8870432 92.3512665 24.0736974 92.3512665 25.3920712 91.0732665 25.9852301 90.1658646 25.9852301 88.4780702 25.9852301 87.7642945 25.3577535 86.1468179 22.4515105L86.1276403 22.4168563C86.1205749 22.4040712 86.1071169 22.3959965 86.0924814 22.3959965L85.8901076 22.3959965C85.7420702 22.3959965 85.6216216 22.5164451 85.6216216 22.6644824L85.6216216 26.6083329C85.6216216 26.6305385 85.6396216 26.6487067 85.6618272 26.6487067L85.9363693 26.6487067C86.0071917 26.6487067 86.0763319 26.6197722 86.1262945 26.570146L86.8658085 25.8302955C87.7314908 26.3676039 89.0258085 26.6487067 89.8667618 26.6487067 91.1287805 26.6487067 92.166388 26.2490058 92.8675469 25.4925011 93.4926684 24.8184264 93.8370235 23.8630806 93.8370235 22.8024264 93.8370235 20.9657535 92.8566123 20.0053609 90.2200328 19.2596226M77.2647704 25.0266881C77.2647704 25.6348189 77.1101723 25.8338282 76.1425461 25.8948937 76.0020788 25.9038095 75.8918919 26.0210619 75.8918919 26.1623703 75.8918919 26.3100712 76.012004 26.4303516 76.1598732 26.4303516L80.9404713 26.4303516C81.0858171 26.4303516 81.204247 26.3119217 81.204247 26.1667441 81.204247 26.023417 81.0925461 25.9058282 80.9498919 25.8987628 79.8433125 25.8456039 79.5569947 25.6664451 79.5569947 25.0265198L79.5569947 18.0166133C80.3436115 16.7081647 80.9095181 16.0233236 81.8640227 15.8162395 81.8177611 15.9816039 81.7874807 16.1799404 81.7874807 16.3407628 81.7874807 17.1923142 82.38249 17.7868189 83.2340414 17.7868189 84.0706209 17.7868189 84.6550321 17.1923142 84.6550321 16.3407628 84.6550321 15.5351367 84.1520414 14.5945946 82.734247 14.5945946 81.5718171 14.5945946 80.4608639 15.260931 79.5072003 16.8553609L79.5072003 15.0521647C79.5072003 14.8684638 79.3556302 14.7207628 79.1719293 14.7254731L76.159705 14.8058843C76.0138545 14.8100899 75.8996302 14.9273423 75.8996302 15.0731927L75.8996302 15.1122208C75.8996302 15.2442768 75.9958545 15.35766 76.1230321 15.3754918 77.1271629 15.5179778 77.2656115 15.9957348 77.2649386 16.4904824L77.2647704 25.0266881M110.391008 14.6734918C110.460653 14.6734918 110.526597 14.7002395 110.576896 14.7488563 110.629382 14.7994918 110.658485 14.8676226 110.65899 14.9402955L110.669756 16.9399778C110.669756 16.9399778 111.650672 14.5945946 114.83499 14.5945946L114.862915 14.5945946C116.847793 14.5945946 117.986167 15.8603142 117.986167 18.0667441L117.986167 24.9710058C117.986167 25.5794731 118.140765 25.7784824 119.108055 25.8392114 119.248691 25.8479591 119.359046 25.9652114 119.359046 26.1066881 119.359046 26.2542208 119.238765 26.3745011 119.091064 26.3745011L114.796466 26.3745011C114.648429 26.3745011 114.52798 26.2538843 114.52798 26.1060152 114.52798 25.9626881 114.635644 25.8456039 114.772915 25.8338282 115.552971 25.7672114 115.677625 25.5700525 115.677625 24.9710058L115.677625 18.7399778C115.677625 16.6825946 115.092709 15.8813423 113.591476 15.8813423 112.577251 15.8813423 111.746223 16.7670432 111.227924 17.5099217 111.227924 17.5099217 110.963307 17.8419965 110.676149 18.4662768L110.707943 24.9706694C110.707943 25.5687067 110.829233 25.7656974 111.587251 25.8329871 111.724018 25.8450993 111.831345 25.9621834 111.831345 26.0996226 111.831345 26.2538843 111.710896 26.3745011 111.563195 26.3745011L107.295008 26.3745011C107.147307 26.3745011 107.027027 26.2542208 107.027027 26.1065198 107.027027 25.9652114 107.137214 25.8479591 107.277681 25.8390432 108.245307 25.7779778 108.399906 25.5789684 108.399906 24.9710058L108.399906 16.4480899C108.399906 15.9506507 108.260784 15.4703703 107.251438 15.3272114 107.123756 15.3090432 107.027027 15.1953236 107.027027 15.0625946L107.027027 15.0232301C107.027027 14.876875 107.142092 14.7589497 107.288448 14.7547441L110.391008 14.6734918"/>
      <path fill="#007FA3" d="M25.5860948,2.30651123 C33.1558518,6.61910936 34.9178331,16.2903243 29.6510668,26.0744178 C25.022207,34.6753897 14.9149546,38.3487355 7.3838892,33.969857 C-0.148858459,29.5903056 -1.61880238,17.3730159 1.61816958,10.3422495 C6.31835649,0.133389737 17.2224873,-2.45978783 25.5860948,2.30651123"/>
      <path fill="#FFFFFE" d="M15.8661341,28.2586709 C15.6356668,28.0790073 15.3766014,27.9556989 15.1158538,27.9033811 C15.0270313,27.8862223 14.9358538,27.8764652 14.8458538,27.8764652 C14.3534612,27.8764652 13.8708257,28.1474746 13.5550687,28.6026895 C13.291293,28.9806895 13.1834612,29.4323718 13.2534425,29.8709325 C13.2976855,30.1498484 13.4024893,30.3924279 13.5569192,30.573269 C13.7303584,30.7776615 13.9958164,30.9337737 14.3246949,31.0274746 C14.5149566,31.080297 14.710265,31.1082223 14.9050687,31.1082223 L14.9055734,31.1082223 C15.3303397,31.1082223 15.7125453,30.9808765 16.0094612,30.739811 C16.3548257,30.4587082 16.5429005,30.0574933 16.5386949,29.6108578 C16.5348257,29.0896989 16.2833304,28.583512 15.8661341,28.2586709 M25.4354052,10.1959232 C26.9171248,11.7779045 27.378564,14.1786335 27.1208444,16.1473624 C26.8264519,18.3924839 25.4658538,20.4698858 23.2023958,21.8473064 C21.4072743,22.9395867 19.0492743,23.3754559 16.7289566,23.3961475 C16.7104519,23.764054 16.6369379,25.0312877 16.5999285,25.231811 C16.5454239,25.5273811 16.4419659,25.6868578 16.315293,25.8523905 C16.0661528,26.1770634 15.6338164,26.3868391 15.204508,26.5091381 C14.8631809,26.6062036 14.5257229,26.6479232 14.2863397,26.6479232 C14.2457977,26.6479232 14.206265,26.6457363 14.1675734,26.6408578 C13.9152369,26.6122596 13.6351435,26.4936615 13.4618725,26.3003718 C13.2889379,26.1070821 13.1908631,25.8626522 13.1679846,25.585755 L13.1486388,25.3356054 C13.0995173,25.1201101 12.8306949,14.2109325 12.8828444,14.4050634 C12.9217042,13.0979606 15.0320781,12.8698484 16.1771809,13.1006522 C17.3246388,13.3319606 17.0341154,14.7262036 17.0031622,16.4399045 C17.0031622,16.4399045 16.9486575,18.6936054 16.8428444,21.0749886 C18.303536,21.0177923 19.4641154,20.6014372 20.5503397,20.0617737 C22.7439846,18.9743718 23.9050687,17.3064279 23.9050687,14.8496802 C23.9050687,12.3929325 21.5132556,9.64162412 17.1012369,9.64162412 C12.6893865,9.64162412 10.7955173,10.7544279 8.65923694,12.5219606 C8.17761077,12.9203157 7.80667619,13.3218671 7.4557603,13.5861475 C7.10501264,13.8505961 6.17338647,13.8909699 5.92357339,13.2724092 C5.62262012,12.5266709 6.18499395,11.6953064 6.51538647,11.2930821 C7.03419021,10.661568 8.31404068,9.38962412 9.73233974,8.65061478 C11.3568818,7.80259609 13.3444519,6.88930637 16.1114052,6.81949328 C18.614751,6.75624095 22.5671809,6.95895123 25.4142089,10.1747269"/>
    </g>
    <g transform="rotate(90 314 340.75)">
      <rect width="18" height="17.5"/>
      <path fill="#6A7070" fill-rule="nonzero" d="M7.67969312,14.5625 L7.67969312,11.901571 C7.67969312,11.6944643 7.84758634,11.526571 8.05469312,11.526571 L10.2316384,11.526571 C10.4387452,11.526571 10.6066384,11.6944643 10.6066384,11.901571 L10.6066384,14.5625 C10.6066384,14.9767136 10.9424248,15.3125 11.3566384,15.3125 L13.51532,15.3125 C13.9295335,15.3125 14.26532,14.9767136 14.26532,14.5625 L14.26532,10.2275368 C14.26532,10.0215725 14.4314341,9.85415632 14.6373922,9.85254827 L16.1140008,9.84101938 C16.3211012,9.8394024 16.4876785,9.67020349 16.4860615,9.46310302 C16.4852896,9.3642298 16.4454994,9.26966257 16.37535,9.19998067 L9.54232811,2.41249927 C9.25003981,2.12215901 8.7782775,2.12193848 8.48571789,2.41200535 L1.62511153,9.21415619 C1.4780397,9.3599749 1.47702385,9.59740959 1.62284255,9.74448142 C1.69325869,9.81550269 1.78912739,9.85545329 1.88913966,9.85545329 L3.64601155,9.85545329 C3.85311833,9.85545329 4.02101155,10.0233465 4.02101155,10.2304533 L4.02101155,14.5625 C4.02101155,14.9767136 4.35679799,15.3125 4.77101155,15.3125 L6.92969312,15.3125 C7.34390668,15.3125 7.67969312,14.9767136 7.67969312,14.5625 Z" transform="rotate(-90 9 8.75)"/>
    </g>
    <text fill="#6A7070" font-family=".AppleSystemUIFont" font-size="14">
      <tspan x="673.472" y="41">Adrian</tspan>
    </text>
    <g transform="translate(0 79)">
      <polygon fill="#FFF" points="0 0 574.11 0 747 0 747 100 0 100"/>
      <g transform="translate(113 65)">
        <text fill="#252525" font-family="OpenSans-Semibold, Open Sans" font-size="14" font-weight="500">
          <tspan x="428.919" y="15">Settings</tspan>
        </text>
        <text fill="#6A7070" font-family="OpenSans, Open Sans" font-size="14">
          <tspan x="291.565" y="15">Resources</tspan>
        </text>
        <text fill="#6A7070" font-family="OpenSans, Open Sans" font-size="14">
          <tspan x="171.737" y="15">Grades</tspan>
        </text>
        <rect width="130" height="2" x="391" y="30" fill="#252525"/>
        <text fill="#6A7070" font-family="OpenSans, Open Sans" font-size="14">
          <tspan x="28.951" y="15">Dashboard</tspan>
        </text>
      </g>
      <text fill="#252525" font-family="OpenSans, Open Sans" font-size="24" transform="translate(0 5)">
        <tspan x="177.082" y="23.852">Introduction to American History</tspan>
      </text>
    </g>
  </g>
</svg>
