<svg xmlns="http://www.w3.org/2000/svg" width="28" height="28" viewBox="0 0 28 28">
  <g fill="none" fill-rule="evenodd">
    <circle cx="14" cy="14" r="14" fill="#F6C8C7" transform="rotate(90 14 14)"/>
    <circle cx="14" cy="14" r="10" fill="#C94543" transform="rotate(90 14 14)"/>
    <path fill="#FFF" stroke="#FFF" stroke-linecap="round" stroke-linejoin="round" stroke-width=".5" d="M14.9395638,13.9999167 L17.8055041,11.133857 C18.064832,10.8745182 18.064832,10.4538428 17.8055041,10.1945041 C17.5461761,9.93516532 17.1255182,9.93516532 16.8661903,10.1945041 L14.00025,13.0605638 L11.1343097,10.1945041 C10.8749818,9.93516532 10.4543239,9.93516532 10.1949959,10.1945041 C9.93500135,10.4538428 9.93500135,10.8745182 10.1949959,11.133857 L13.0609362,13.9999167 L10.1949959,16.8659764 C9.93500135,17.1253151 9.93500135,17.5459905 10.1949959,17.8053293 C10.3243266,17.935332 10.494323,18 10.6643195,18 C10.834316,18 11.0043124,17.935332 11.1343097,17.8053293 L14.00025,14.9392696 L16.8661903,17.8053293 C16.9955209,17.935332 17.1655174,18 17.3355138,18 C17.5055103,18 17.6755068,17.935332 17.8055041,17.8053293 C18.064832,17.5459905 18.064832,17.1253151 17.8055041,16.8659764 L14.9395638,13.9999167 Z"/>
  </g>
</svg>
