<?xml version="1.0" encoding="UTF-8"?>
<svg xmlns="http://www.w3.org/2000/svg" xmlns:xlink="http://www.w3.org/1999/xlink" width="18px" height="18px" viewBox="0 0 18 18">
  <!-- Generator: Sketch 51.3 (57544) - http://www.bohemiancoding.com/sketch -->
  <title>Combined Shape</title>
  <desc>Created with Sketch.</desc>
  <defs></defs>
  <g id="Types" stroke="none" stroke-width="1" fill="none" fill-rule="evenodd">
    <g id="Icons" transform="translate(-427.000000, -1972.000000)" fill="#6A7070" fill-rule="nonzero">
      <g id="Group-17" transform="translate(427.000000, 1972.000000)">
        <g id="help-18">
          <path d="M9,18 C4.02943725,18 0,13.9705627 0,9 C0,4.02943725 4.02943725,0 9,0 C13.9705627,0 18,4.02943725 18,9 C18,13.9705627 13.9705627,18 9,18 Z M8.625,13 C8.34885763,13 8.125,13.2238576 8.125,13.5 L8.125,14.25 C8.125,14.5261424 8.34885763,14.75 8.625,14.75 L9.375,14.75 C9.65114237,14.75 9.875,14.5261424 9.875,14.25 L9.875,13.5 C9.875,13.2238576 9.65114237,13 9.375,13 L8.625,13 Z M7.24955477,7.0032853 C7.52568655,7.00570452 7.75149675,6.78381666 7.75391598,6.50768488 L7.75496749,6.38766485 C7.78360338,6.05741091 8.11117401,5.75499916 8.50479226,5.75499916 L10.1950006,5.75499916 C10.7804227,5.75499916 11.2550011,6.22957751 11.2550011,6.81499958 L11.2550011,7.1601489 C11.2550011,7.65638313 10.8993759,8.08128138 10.4108982,8.16867664 C9.08806139,8.40535001 8.125,9.5560085 8.125,10.8998506 L8.125,11.5 C8.125,11.7761424 8.34885763,12 8.625,12 L9.375,12 C9.65114237,12 9.875,11.7761424 9.875,11.5 L9.875,10.8998506 C9.875,10.4036163 10.2306251,9.97871809 10.7191029,9.89132283 C12.0419397,9.65464945 13.0050011,8.50399097 13.0050011,7.1601489 L13.0050011,6.81499958 C13.0050011,5.2630792 11.746921,4.00499916 10.1950006,4.00499916 L8.50479226,4.00499916 C7.19879225,4.00499916 6.11193399,5.00838187 6.00778765,6.31022271 L6.00562145,6.49074885 L6.00560465,6.4923677 C6.00318542,6.76849948 6.22507329,6.99430969 6.50120506,6.99672891 L7.24955477,7.0032853 Z" id="Combined-Shape"></path>
        </g>
      </g>
    </g>
  </g>
</svg>
